<?xml version="1.0" encoding="UTF-8" standalone="no"?>
<svg
   version="1.1"
   width="1287.2323"
   height="362.54889"
   id="svg21"
   sodipodi:docname="Mask group.svg"
   xml:space="preserve"
   inkscape:version="1.4.2 (ebf0e940d0, 2025-05-08)"
   xmlns:inkscape="http://www.inkscape.org/namespaces/inkscape"
   xmlns:sodipodi="http://sodipodi.sourceforge.net/DTD/sodipodi-0.dtd"
   xmlns="http://www.w3.org/2000/svg"
   xmlns:svg="http://www.w3.org/2000/svg"><defs
     id="defs21" /><sodipodi:namedview
     id="namedview21"
     pagecolor="#505050"
     bordercolor="#eeeeee"
     borderopacity="1"
     inkscape:showpageshadow="0"
     inkscape:pageopacity="0"
     inkscape:pagecheckerboard="0"
     inkscape:deskcolor="#505050"
     inkscape:zoom="0.35355339"
     inkscape:cx="694.37886"
     inkscape:cy="209.30361"
     inkscape:window-width="1920"
     inkscape:window-height="1017"
     inkscape:window-x="0"
     inkscape:window-y="0"
     inkscape:window-maximized="1"
     inkscape:current-layer="svg21" /><path
     d="m 709.46082,2.7402836 c 78.95786,6.503771 143.94539,22.3298214 196.74122,39.4921874 38.52143,12.565901 75.50455,28.520226 111.89706,46.316406 8.8626,4.293721 20.7758,10.122836 43,23.000003 68.6488,39.68106 109.6545,74.37319 146.2735,107.02734 0.8899,0.79386 33.3709,29.83542 48.1677,47.19947 9.2461,10.51787 -1.8785,-3.38788 18.5979,20.28881 6.1578,7.99367 10.7726,14.42966 12.5937,22.76954 0.3672,2.71484 0.5004,2.80323 0.5004,4.80323 0,16.33318 -0.022,32.57788 0,48.91162 -4.3527,-1.52605 -10.1453,-4.81783 -13.9533,-7.3672 l -1.9749,-1.30557 c -1.3916,-0.92044 -2.782,-1.84281 -4.1712,-2.76694 -3.6294,-2.41323 -7.2697,-4.80995 -10.9086,-7.20874 l -2.1622,-1.42682 c -50.5459,-33.3358 -104.2638,-61.95367 -159.7626,-86.09369 -24.3653,-11.12431 -49.4343,-20.54548 -74.5935,-29.69689 -128.31257,-46.29133 -259.07006,-59.16577 -304.98812,-62.44617 -51.27576,-3.59199 -98.97238,-3.19611 -150.27289,0.50342 -94.75661,6.85579 -187.9857,25.28026 -401.34576,104.80859 -33.24992,15.64611 -43.51918,21.00382 -83.429695,43.65234 C 35.355904,338.42974 13.693631,356.42337 0,362.54889 c 0.02313062,-18.96116 0,-37.76277 0,-56.90564 0.16755,-3.04967 1.1771051,-5.16565 2.6034651,-7.82093 4.0585958,-5.92124 9.3070659,-10.86535 13.9960899,-16.27344 12.35967,-14.15336 25.23526,-27.81733 38.5,-41.125 5.680605,-5.71419 9.545825,-9.43082 15.04834,-14.16846 7.094465,-6.20344 14.352826,-14.0407 26.13525,-23.41748 9.159545,-7.44451 12.243015,-11.32679 32.659185,-26.65967 65.46098,-49.44362 99.61886,-67.5977 135.79786,-85.926268 C 300.92683,71.90423 425.13986,14.2753 580.16283,2.3906742 623.09992,1.321083 666.55056,-0.73743521 709.46082,2.7402836 Z"
     fill="#8f2723"
     id="path1"
     sodipodi:nodetypes="cccccccccccccccccccccccccccccccc" /><path
     d=""
     fill="#ff0000"
     id="path14" /><path
     d=""
     fill="#ff0000"
     id="path15" /><path
     d=""
     fill="#ff0000"
     id="path16" /><path
     d=""
     fill="#ff0000"
     id="path17" /><path
     d=""
     fill="#ff0000"
     id="path18" /><path
     d=""
     fill="#ff0000"
     id="path19" /><path
     d=""
     fill="#ff0000"
     id="path20" /><path
     d=""
     fill="#ff0000"
     id="path21" /><path
     d="m 480.25288,67.719592 c 8.49247,3.961459 14.95221,11.370532 18.00875,19.579076 3.51054,10.568629 4.77363,19.467902 -0.40722,29.868002 -5.78359,9.57805 -14.2066,15.65594 -25.67037,18.69016 -11.03255,1.97787 -20.17695,1.42603 -29.79517,-4.18824 -6.99582,-5.13917 -9.02842,-13.48823 -9.96957,-21.34378 0.48541,-21.32712 36.82039,-23.151788 30.1533,-0.55575 -1.81232,5.25611 -12.96713,9.00911 -17.23922,6.97386 -2.56095,-1.13659 -4.46328,-2.32849 -6.66202,-3.94698 1.38653,6.16658 2.88864,10.99709 8.44765,14.97764 6.48899,3.90504 12.65827,4.54435 20.20106,3.29203 9.47843,-2.10071 17.64653,-5.62675 23.56671,-12.95334 5.16877,-8.18678 5.66974,-16.39007 3.06183,-25.342533 -2.08073,-7.019855 -9.17927,-15.717924 -17.81943,-16.439911 -12.77516,0.955545 2.78188,6.792076 -6.15624,10.952179 -3.425,0.470253 -3.425,0.470253 -6.24676,-0.731281 -2.09642,-2.059911 -2.09642,-2.059911 -2.92562,-4.608404 0.33092,-3.873066 2.49763,-5.717169 5.58766,-8.261637 1.39091,-0.413538 2.58176,-1.023444 3.99701,-1.360715 l 2.27148,-0.548566 2.92126,-0.08083 c -15.10722,-3.497824 -30.08093,-0.834378 -43.46308,6.169539 -8.47165,4.983479 -14.0161,12.401978 -18.44451,20.532966 l -1.71292,2.683453 -1.59858,2.65459 -1.20151,1.99511 c -5.45756,9.52148 -8.65666,18.54525 -5.42722,29.02415 1.04543,2.49675 2.53456,3.83353 4.82567,5.4551 0,0 7.45355,1.91937 11.38419,0.84198 l 2.9473,-0.79297 2.21543,-1.31978 0.93491,-1.61839 -3.7935,0.56079 c -2.71551,-0.44039 -2.71551,-0.44039 -4.41397,-1.58772 -1.56342,-2.38717 -1.73946,-4.22304 -1.73691,-6.99068 0.51459,-1.76202 0.51459,-1.76202 1.98684,-3.20277 5.81303,-2.8453 5.81303,-2.8453 10.00726,-2.3 2.69229,1.1001 4.47452,2.19672 5.91328,4.60026 1.12444,2.95266 1.70516,4.98721 0.52468,7.99307 -3.21413,4.87092 -7.3702,8.31788 -13.13787,10.48376 -5.43559,1.08287 -10.13183,0.54141 -15.22875,-1.56035 -1.82455,-1.56563 -1.82455,-1.56563 -2.83722,-2.88597 l -1.88783,-2.01112 -0.0342,4.40956 c -0.84791,4.8318 -2.41937,8.36524 -6.57394,11.45155 -3.50381,2.09289 -6.25466,2.32492 -10.42484,1.72994 -2.65463,-1.27432 -3.50436,-2.17727 -4.78201,-4.6465 -0.2302,-2.19315 -0.2302,-2.19315 0.61558,-4.4889 6.45227,-6.58965 12.62107,-1.92867 12.35604,3.15389 2.66339,-1.81649 3.35219,-4.84546 4.33653,-7.79593 1.70676,-7.0335 -1.18872,-14.30947 0.44316,-23.22665 l -3.30385,5.20805 c -15.46599,23.0023 -39.49409,38.32171 -67.90335,44.99257 -9.02376,1.84887 -17.4019,1.56529 -25.75628,-2.40386 -5.60019,-3.36485 -7.83689,-7.07664 -9.43541,-12.8853 -0.83554,-5.31354 1.61278,-9.95497 4.8645,-14.28095 2.91972,-3.13177 5.6323,-5.36698 10.13586,-6.15943 3.88239,-0.0448 5.02891,0.38577 8.37713,2.1256 5.27319,5.83114 3.44146,12.14718 -3.45327,15.03562 -3.24638,0.3618 -5.12428,0.14528 -8.12472,-1.04533 -1.87771,-1.94626 -1.87771,-1.94626 -3.08942,-3.72288 -2.75286,4.19291 -2.75286,4.19291 -2.4686,8.95235 1.48775,3.90391 3.03733,6.33763 7.20265,8.20399 15.17448,4.90218 30.49821,-1.26929 44.1904,-7.12284 3.36211,-1.48647 6.5073,-3.17202 9.65747,-5.00461 l -2.73745,0.22645 c -9.20736,0.64851 -14.89808,0.82134 -22.23352,-4.73143 -4.22278,-3.61466 -5.93703,-9.26235 -4.90982,-14.48781 7.5317,-33.36189 42.32947,-7.12099 15.42085,-0.38027 -5.11663,0.68362 -7.10339,0.0508 -9.56253,-1.58 -1.16724,4.21159 -0.27785,7.36074 1.44854,11.34082 2.1716,2.8397 4.25819,3.72822 7.82852,4.55317 10.3504,1.42558 19.34626,-2.45135 27.66028,-7.89705 7.53468,-5.20348 13.9534,-10.47125 18.99455,-17.88894 2.56202,-3.74325 5.18866,-7.42977 7.9132,-11.07539 1.22765,-1.86419 2.06701,-3.73055 2.87671,-5.77353 l -1.65923,0.34829 c -4.902,0.89713 -7.91391,1.11451 -12.40301,-1.30243 -2.01499,-2.04968 -2.42588,-3.75956 -2.93122,-6.464233 0.82998,-2.34805 0.82998,-2.34805 2.64919,-4.27038 3.11577,-1.292812 3.11577,-1.292812 6.40083,-1.615185 2.42169,1.302535 2.42169,1.302535 4.0038,3.492255 0.0917,2.95962 0.0917,2.95962 -0.31618,5.482663 8.53978,-0.86857 13.65762,-7.748343 18.25466,-14.919539 14.07491,-18.313397 42.438,-26.803218 65.29137,-18.233454 z"
     fill="#040404"
     id="path1-3"
     sodipodi:nodetypes="ccccccccccccccccccccccccccccccccccccccccccccccccccccccccccccccccccccccccccccccccccccc"
     style="fill:#efb810;fill-opacity:1;stroke-width:0.907421" /><path
     d="m 803.86638,68.619591 c -8.49247,3.961459 -14.95221,11.370532 -18.00875,19.579076 -3.51054,10.56863 -4.77363,19.467903 0.40722,29.868003 5.78359,9.57805 14.2066,15.65594 25.67038,18.69016 11.0325,1.97787 20.1769,1.42603 29.7952,-4.18824 6.9958,-5.13917 9.0284,-13.48823 9.9695,-21.34378 -0.4854,-21.327121 -36.8204,-23.151789 -30.1533,-0.55575 1.8124,5.25611 12.9672,9.00911 17.2393,6.97386 2.5609,-1.13659 4.4632,-2.32849 6.662,-3.94698 -1.3866,6.16658 -2.8887,10.99709 -8.4477,14.97764 -6.489,3.90504 -12.6582,4.54435 -20.201,3.29203 -9.4785,-2.10071 -17.64657,-5.62675 -23.56675,-12.95334 -5.16877,-8.18678 -5.66974,-16.39007 -3.06183,-25.342533 2.08073,-7.019856 9.17927,-15.717925 17.81948,-16.439912 12.7751,0.955545 -2.7819,6.792076 6.1562,10.952179 3.425,0.470253 3.425,0.470253 6.2468,-0.731281 2.0964,-2.059911 2.0964,-2.059911 2.9256,-4.608404 -0.3309,-3.873066 -2.4977,-5.717169 -5.5877,-8.261637 -1.3909,-0.413538 -2.5817,-1.023444 -3.997,-1.360715 l -2.2715,-0.548566 -2.9212,-0.08083 c 15.1072,-3.497824 30.0809,-0.834378 43.463,6.169539 8.4717,4.983479 14.0161,12.401978 18.4446,20.532967 l 1.7129,2.683453 1.5986,2.65459 1.2015,1.99511 c 5.4575,9.52148 8.6566,18.54525 5.4272,29.02415 -1.0454,2.49675 -2.5346,3.83353 -4.8257,5.4551 0,0 -7.4535,1.91937 -11.3842,0.84198 l -2.9473,-0.79297 -2.2154,-1.31978 -0.9349,-1.61839 3.7935,0.56079 c 2.7155,-0.44039 2.7155,-0.44039 4.414,-1.58772 1.5634,-2.38717 1.7394,-4.22304 1.7369,-6.99068 -0.5146,-1.76202 -0.5146,-1.76202 -1.9869,-3.20277 -5.813,-2.8453 -5.813,-2.8453 -10.0072,-2.3 -2.6923,1.1001 -4.4746,2.19672 -5.9133,4.60026 -1.1245,2.95266 -1.7052,4.98721 -0.5247,7.99307 3.2141,4.87092 7.3702,8.31788 13.1379,10.48376 5.4356,1.08287 10.1318,0.54141 15.2287,-1.56035 1.8246,-1.56563 1.8246,-1.56563 2.8372,-2.88597 l 1.8879,-2.01112 0.034,4.40956 c 0.8479,4.8318 2.4193,8.36524 6.5739,11.45155 3.5038,2.09289 6.2547,2.32492 10.4249,1.72994 2.6546,-1.27432 3.5043,-2.17727 4.782,-4.6465 0.2302,-2.19315 0.2302,-2.19315 -0.6156,-4.4889 -6.4523,-6.58965 -12.6211,-1.92867 -12.3561,3.15389 -2.6633,-1.81649 -3.3521,-4.84546 -4.3365,-7.79593 -1.7067,-7.0335 1.1887,-14.30947 -0.4431,-23.22665 l 3.3038,5.20805 c 15.466,23.0023 39.4941,38.32171 67.9034,44.99257 9.0237,1.84887 17.4019,1.56529 25.7562,-2.40386 5.6002,-3.36485 7.8369,-7.07664 9.4354,-12.8853 0.8356,-5.31354 -1.6127,-9.95497 -4.8645,-14.28095 -2.9197,-3.13177 -5.6323,-5.36698 -10.1358,-6.15943 -3.8824,-0.0448 -5.0289,0.38577 -8.3771,2.1256 -5.2732,5.83114 -3.4415,12.14718 3.4532,15.03562 3.2464,0.3618 5.1243,0.14528 8.1247,-1.04533 1.8778,-1.94626 1.8778,-1.94626 3.0895,-3.72288 2.7528,4.19291 2.7528,4.19291 2.4686,8.95235 -1.4878,3.90391 -3.0374,6.33763 -7.2027,8.20399 -15.1745,4.90218 -30.4982,-1.26929 -44.1904,-7.12284 -3.3621,-1.48647 -6.5073,-3.17202 -9.6575,-5.00461 l 2.7375,0.22645 c 9.2074,0.64851 14.8981,0.82134 22.2335,-4.73143 4.2228,-3.61466 5.937,-9.26235 4.9098,-14.48781 -7.5317,-33.36189 -42.3294,-7.12099 -15.4208,-0.38027 5.1166,0.68362 7.1034,0.0508 9.5625,-1.58 1.1673,4.21159 0.2779,7.36074 -1.4485,11.34082 -2.1716,2.8397 -4.2582,3.72822 -7.8285,4.55317 -10.3504,1.42558 -19.3463,-2.45135 -27.6603,-7.89705 -7.5347,-5.20348 -13.9534,-10.47125 -18.9946,-17.88894 -2.562,-3.74325 -5.1886,-7.42977 -7.9132,-11.07539 -1.2276,-1.86419 -2.067,-3.73055 -2.8767,-5.77353 l 1.6592,0.34829 c 4.902,0.89713 7.914,1.11451 12.4031,-1.30243 2.0149,-2.04968 2.4258,-3.75956 2.9312,-6.464233 -0.83,-2.34805 -0.83,-2.34805 -2.6492,-4.27038 -3.1158,-1.29281 -3.1158,-1.29281 -6.4008,-1.61519 -2.4217,1.30254 -2.4217,1.30254 -4.0038,3.49226 -0.092,2.95962 -0.092,2.95962 0.3161,5.482663 -8.5397,-0.86857 -13.6576,-7.748343 -18.2546,-14.91954 -14.0749,-18.313397 -42.438,-26.803218 -65.2914,-18.233454 z"
     fill="#040404"
     id="path1-3-3"
     sodipodi:nodetypes="ccccccccccccccccccccccccccccccccccccccccccccccccccccccccccccccccccccccccccccccccccccc"
     style="fill:#efb810;fill-opacity:1;stroke-width:0.907421" /></svg>
