<?xml version="1.0" encoding="UTF-8" standalone="no"?>
<svg
   version="1.1"
   width="300"
   height="300"
   id="svg1"
   sodipodi:docname="arrow.svg"
   inkscape:version="1.4.2 (ebf0e940d0, 2025-05-08)"
   xmlns:inkscape="http://www.inkscape.org/namespaces/inkscape"
   xmlns:sodipodi="http://sodipodi.sourceforge.net/DTD/sodipodi-0.dtd"
   xmlns="http://www.w3.org/2000/svg"
   xmlns:svg="http://www.w3.org/2000/svg">
  <defs
     id="defs1" />
  <sodipodi:namedview
     id="namedview1"
     pagecolor="#505050"
     bordercolor="#eeeeee"
     borderopacity="1"
     inkscape:showpageshadow="0"
     inkscape:pageopacity="0"
     inkscape:pagecheckerboard="0"
     inkscape:deskcolor="#505050"
     inkscape:zoom="1.3466667"
     inkscape:cx="-10.39604"
     inkscape:cy="173.0198"
     inkscape:window-width="1920"
     inkscape:window-height="1017"
     inkscape:window-x="1600"
     inkscape:window-y="0"
     inkscape:window-maximized="1"
     inkscape:current-layer="svg1" />
  <path
     d="m 184.33201,32.919102 c -2.4471,4.145757 -5.25842,7.506692 -8.65704,10.897552 l -2.82138,2.829712 c -1.02436,1.017275 -2.0488,2.034454 -3.07334,3.051545 -1.08475,1.084185 -2.16906,2.168812 -3.25296,3.253845 -2.93322,2.933797 -5.87256,5.861401 -8.81306,8.78791 -3.07588,3.063352 -6.14607,6.132393 -9.21688,9.200829 -5.81116,5.804957 -11.62741,11.604798 -17.4455,17.402811 -6.62545,6.60306 -13.24519,13.211834 -19.86447,19.821084 -13.612145,13.59124 -27.559575,28.29113 -41.183545,41.87051 3.95292,4.64709 3.97548,4.77603 6.73125,7.52107 l 2.80429,2.80824 c 1.02844,1.01977 2.05698,2.03945 3.0856,3.05905 1.08122,1.07902 2.16198,2.15848 3.24234,3.23836 2.32595,2.32302 4.65503,4.64285 6.98657,6.96027 3.6855,3.66323 7.363905,7.33354 11.041355,11.00485 5.81615,5.80477 11.63696,11.60485 17.45981,17.40291 10.43095,10.38661 20.85633,20.77882 31.2765,31.17625 3.6581,3.64969 7.319,7.29656 10.98215,10.94118 2.27636,2.26572 4.55069,4.53347 6.82452,6.80172 1.05611,1.05264 2.11309,2.1044 3.171,3.15523 1.4422,1.43276 2.88105,2.8689 4.31971,4.30521 l 2.44466,2.43399 c 3.43432,3.64031 4.39777,6.03906 4.28654,11.07197 -0.51304,3.13325 -2.09822,4.83959 -4.32813,7.00391 -3.40126,1.70063 -6.37828,1.92072 -10,1 -2.19977,-1.6066 -2.19977,-1.6066 -4.52181,-3.78673 l -2.66183,-2.49093 c -5.0395,-4.87126 -10.01974,-9.79541 -14.96724,-14.75969 -1.18351,-1.1838 -2.36724,-2.36737 -3.55117,-3.55074 -3.18336,-3.18308 -6.36367,-6.36922 -9.54338,-9.55595 -3.33471,-3.34099 -6.67228,-6.67912 -10.00953,-10.01757 -6.30573,-6.30881 -12.6089,-12.62017 -18.91113,-18.93247 C 98.985215,209.63312 91.801645,202.44409 84.617855,195.25528 69.852725,180.47973 55.09117,165.70061 40.332,150.91911 56.60566,132.60862 81.509275,107.8322 115.97841,73.008303 c 5.80614,-5.815214 11.61617,-11.626525 17.42947,-17.434586 3.47301,-3.469908 6.94468,-6.941157 10.41284,-10.415926 3.26059,-3.266354 6.52602,-6.527786 9.79527,-9.785466 1.1998,-1.197161 2.39791,-2.396032 3.59419,-3.596718 1.63167,-1.637142 3.26938,-3.268013 4.90879,-4.897429 l 2.77426,-2.771982 c 3.36744,-3.019915 5.38373,-4.071998 9.87628,-4.562094 4.14405,0.436216 5.6538,1.466303 8.5625,4.375 1.55477,3.109534 1.28644,5.562668 1,9 z"
     fill="#121113"
     id="path1"
     sodipodi:nodetypes="ccccccccccccccscccccccccccccccccccccscccccccc" />
  <path
     d="m 259.33201,32.919099 c -2.4471,4.145757 -5.25842,7.506692 -8.65704,10.897552 l -2.82138,2.829712 c -1.02436,1.017275 -2.0488,2.034454 -3.07334,3.051545 -1.08475,1.084185 -2.16906,2.168812 -3.25296,3.253845 -2.93322,2.933797 -5.87256,5.861401 -8.81306,8.78791 -3.07588,3.063352 -6.14607,6.132393 -9.21688,9.200829 -5.81116,5.804957 -11.62741,11.604798 -17.4455,17.402811 -6.62545,6.60306 -13.24519,13.211837 -19.86447,19.821087 -13.61214,13.59124 -27.55957,28.29113 -41.18354,41.87051 3.95292,4.64709 3.97548,4.77603 6.73125,7.52107 l 2.80429,2.80824 c 1.02844,1.01977 2.05698,2.03945 3.0856,3.05905 1.08122,1.07902 2.16198,2.15848 3.24234,3.23836 2.32595,2.32302 4.65503,4.64285 6.98657,6.96027 3.6855,3.66323 7.3639,7.33354 11.04135,11.00485 5.81615,5.80477 11.63696,11.60485 17.45981,17.40291 10.43095,10.38661 20.85633,20.77882 31.2765,31.17625 3.6581,3.64969 7.319,7.29656 10.98215,10.94118 2.27636,2.26572 4.55069,4.53347 6.82452,6.80172 1.05611,1.05264 2.11309,2.1044 3.171,3.15523 1.4422,1.43276 2.88105,2.8689 4.31971,4.30521 l 2.44466,2.43399 c 3.43433,3.64031 4.39777,6.03906 4.28654,11.07197 -0.51304,3.13325 -2.09822,4.83959 -4.32812,7.00391 -3.40126,1.70063 -6.37829,1.92072 -10,1 -2.19977,-1.6066 -2.19977,-1.6066 -4.52182,-3.78673 l -2.66182,-2.49093 c -5.0395,-4.87126 -10.01974,-9.79541 -14.96724,-14.75969 -1.18351,-1.1838 -2.36724,-2.36737 -3.55118,-3.55074 -3.18336,-3.18308 -6.36366,-6.36922 -9.54337,-9.55595 -3.33471,-3.34099 -6.67228,-6.67912 -10.00954,-10.01757 -6.30573,-6.30881 -12.6089,-12.62017 -18.91113,-18.93247 -7.18069,-7.19191 -14.36426,-14.38094 -21.54805,-21.56975 -14.76513,-14.77555 -29.52669,-29.55467 -44.28586,-44.33617 16.27366,-18.31049 41.17728,-43.08691 75.64641,-77.91081 5.80614,-5.815214 11.61617,-11.626525 17.42947,-17.434586 3.47302,-3.469908 6.94468,-6.941157 10.41285,-10.415926 3.26058,-3.266354 6.52601,-6.527786 9.79526,-9.785466 1.1998,-1.197161 2.39791,-2.396032 3.59419,-3.596718 1.63168,-1.637142 3.26939,-3.268013 4.90879,-4.897429 l 2.77426,-2.771982 c 3.36744,-3.019915 5.38373,-4.071998 9.87628,-4.562094 4.14405,0.436216 5.6538,1.466303 8.5625,4.375 1.55477,3.109534 1.28644,5.562668 1,9 z"
     fill="#121113"
     id="path1-5"
     sodipodi:nodetypes="ccccccccccccccscccccccccccccccccccccscccccccc" />
</svg>
