<svg width="16" height="16" viewBox="0 0 16 16" fill="none" xmlns="http://www.w3.org/2000/svg">
<path d="M13.1562 6.70563V5.15625C13.1562 2.31309 10.8432 0 8 0C5.15684 0 2.84375 2.31309 2.84375 5.15625V6.70563C2.29816 6.89913 1.90625 7.42016 1.90625 8.03125V9.90625C1.90625 13.2663 4.63991 16 8 16C11.3601 16 14.0938 13.2663 14.0938 9.90625V8.03125C14.0938 7.42016 13.7018 6.89913 13.1562 6.70563ZM8 0.9375C10.3262 0.9375 12.2188 2.83003 12.2188 5.15625V6.625H11.2812V5.15625C11.2812 3.34697 9.80928 1.875 8 1.875C6.19072 1.875 4.71875 3.34697 4.71875 5.15625V6.625H3.78125V5.15625C3.78125 2.83003 5.67378 0.9375 8 0.9375ZM5.65625 6.625V5.15625C5.65625 3.86391 6.70766 2.8125 8 2.8125C9.29234 2.8125 10.3438 3.86391 10.3438 5.15625V6.625H5.65625ZM13.1562 9.90625C13.1562 12.7494 10.8432 15.0625 8 15.0625C5.15684 15.0625 2.84375 12.7494 2.84375 9.90625V8.03125C2.84375 7.77278 3.05403 7.5625 3.3125 7.5625H12.6875C12.946 7.5625 13.1562 7.77278 13.1562 8.03125V9.90625Z" fill="#003DA5"/>
<path d="M13.1562 6.70563V5.15625C13.1562 2.31309 10.8432 0 8 0C5.15684 0 2.84375 2.31309 2.84375 5.15625V6.70563C2.29816 6.89913 1.90625 7.42016 1.90625 8.03125V9.90625C1.90625 13.2663 4.63991 16 8 16C11.3601 16 14.0938 13.2663 14.0938 9.90625V8.03125C14.0938 7.42016 13.7018 6.89913 13.1562 6.70563ZM8 0.9375C10.3262 0.9375 12.2188 2.83003 12.2188 5.15625V6.625H11.2812V5.15625C11.2812 3.34697 9.80928 1.875 8 1.875C6.19072 1.875 4.71875 3.34697 4.71875 5.15625V6.625H3.78125V5.15625C3.78125 2.83003 5.67378 0.9375 8 0.9375ZM5.65625 6.625V5.15625C5.65625 3.86391 6.70766 2.8125 8 2.8125C9.29234 2.8125 10.3438 3.86391 10.3438 5.15625V6.625H5.65625ZM13.1562 9.90625C13.1562 12.7494 10.8432 15.0625 8 15.0625C5.15684 15.0625 2.84375 12.7494 2.84375 9.90625V8.03125C2.84375 7.77278 3.05403 7.5625 3.3125 7.5625H12.6875C12.946 7.5625 13.1562 7.77278 13.1562 8.03125V9.90625Z" fill="white" fill-opacity="0.3"/>
<path d="M8 8.5C7.22459 8.5 6.59375 9.13084 6.59375 9.90625C6.59375 10.5173 6.98566 11.0384 7.53125 11.2319V13.6562C7.53125 13.9151 7.74112 14.125 8 14.125C8.25888 14.125 8.46875 13.9151 8.46875 13.6562V11.2319C9.01434 11.0384 9.40625 10.5173 9.40625 9.90625C9.40625 9.13084 8.77541 8.5 8 8.5ZM8 10.375C7.74153 10.375 7.53125 10.1647 7.53125 9.90625C7.53125 9.64778 7.74153 9.4375 8 9.4375C8.25847 9.4375 8.46875 9.64778 8.46875 9.90625C8.46875 10.1647 8.25847 10.375 8 10.375Z" fill="#003DA5"/>
<path d="M8 8.5C7.22459 8.5 6.59375 9.13084 6.59375 9.90625C6.59375 10.5173 6.98566 11.0384 7.53125 11.2319V13.6562C7.53125 13.9151 7.74112 14.125 8 14.125C8.25888 14.125 8.46875 13.9151 8.46875 13.6562V11.2319C9.01434 11.0384 9.40625 10.5173 9.40625 9.90625C9.40625 9.13084 8.77541 8.5 8 8.5ZM8 10.375C7.74153 10.375 7.53125 10.1647 7.53125 9.90625C7.53125 9.64778 7.74153 9.4375 8 9.4375C8.25847 9.4375 8.46875 9.64778 8.46875 9.90625C8.46875 10.1647 8.25847 10.375 8 10.375Z" fill="white" fill-opacity="0.3"/>
</svg>
