<?xml version="1.0" encoding="UTF-8" standalone="no"?>
<!-- Uploaded to: SVG Repo, www.svgrepo.com, Generator: SVG Repo Mixer Tools -->

<svg
   width="800px"
   height="800px"
   viewBox="0 0 24 24"
   version="1.1"
   id="svg2"
   sodipodi:docname="danger.svg"
   inkscape:version="1.4.2 (ebf0e940d0, 2025-05-08)"
   xmlns:inkscape="http://www.inkscape.org/namespaces/inkscape"
   xmlns:sodipodi="http://sodipodi.sourceforge.net/DTD/sodipodi-0.dtd"
   xmlns="http://www.w3.org/2000/svg"
   xmlns:svg="http://www.w3.org/2000/svg">
  <defs
     id="defs2" />
  <sodipodi:namedview
     id="namedview2"
     pagecolor="#505050"
     bordercolor="#eeeeee"
     borderopacity="1"
     inkscape:showpageshadow="0"
     inkscape:pageopacity="0"
     inkscape:pagecheckerboard="0"
     inkscape:deskcolor="#505050"
     inkscape:zoom="0.505"
     inkscape:cx="134.65347"
     inkscape:cy="184.15842"
     inkscape:window-width="1920"
     inkscape:window-height="1017"
     inkscape:window-x="0"
     inkscape:window-y="0"
     inkscape:window-maximized="1"
     inkscape:current-layer="svg2" />
  <path
     d="m 0.72966635,21.724707 c 0.32089655,0.503644 0.88528735,0.798788 1.48200005,0.775 H 21.784666 c 0.597322,0.0241 1.162453,-0.271035 1.484,-0.775 0.307012,-0.509013 0.308166,-1.145878 0.003,-1.656 l -9.772,-17.7420001 c -0.681942,-1.1037124 -2.287058,-1.1037124 -2.969,0 L 0.73066635,20.068707 c -0.3072028,0.509258 -0.3072028,1.146742 0,1.656 z m 0.85900005,-1.143 9.8199996,-17.7730001 c 0.135913,-0.1987533 0.363296,-0.3150798 0.604,-0.309 0.255014,-0.0037 0.493471,0.12595 0.629,0.342 l 9.751,17.7080001 c 0.131474,0.19936 0.138069,0.456155 0.017,0.662 -0.146795,0.195365 -0.382132,0.303635 -0.626,0.288 H 2.2126664 c -0.2425358,0.01543 -0.4765991,-0.09202 -0.623,-0.286 -0.1190861,-0.193736 -0.1194724,-0.437888 -0.001,-0.632 z m 10.9159996,-5.082 h -1 V 8.4997069 h 1 z m -1.5,2.5 c 0,-0.890967 1.077139,-1.337003 1.707071,-0.707071 0.629932,0.629932 0.183896,1.707071 -0.707071,1.707071 -0.551828,-0.0011 -0.9989,-0.448172 -1,-1 z"
     id="path1"
     sodipodi:nodetypes="ccccccccccccccccccccccccccscc"
     style="fill:#ffffff;fill-opacity:1" />
  <path
     fill="none"
     d="M0 0h24v24H0z"
     id="path2" />
</svg>
