<?xml version="1.0" encoding="UTF-8" standalone="no"?>
<svg
   version="1.1"
   width="385.06058"
   height="385.05713"
   id="svg2"
   sodipodi:docname="diskette.svg"
   inkscape:version="1.4.2 (ebf0e940d0, 2025-05-08)"
   xmlns:inkscape="http://www.inkscape.org/namespaces/inkscape"
   xmlns:sodipodi="http://sodipodi.sourceforge.net/DTD/sodipodi-0.dtd"
   xmlns="http://www.w3.org/2000/svg"
   xmlns:svg="http://www.w3.org/2000/svg">
  <defs
     id="defs2" />
  <sodipodi:namedview
     id="namedview2"
     pagecolor="#505050"
     bordercolor="#eeeeee"
     borderopacity="1"
     inkscape:showpageshadow="0"
     inkscape:pageopacity="0"
     inkscape:pagecheckerboard="0"
     inkscape:deskcolor="#505050"
     inkscape:zoom="1.578125"
     inkscape:cx="233.50495"
     inkscape:cy="126.73267"
     inkscape:window-width="1920"
     inkscape:window-height="1017"
     inkscape:window-x="0"
     inkscape:window-y="0"
     inkscape:window-maximized="1"
     inkscape:current-layer="svg2" />
  <path
     d="m 51.343757,0.1379606 3.81155,-0.0163198 c 3.466,-0.0143763 6.93176,-0.0102346 10.397772,-0.002833 3.747895,0.004749 7.495741,-0.007793 11.24362,-0.0180174 7.332679,-0.01715991 14.665273,-0.01803384 21.997967,-0.0127871 5.962674,0.0040483 11.925324,0.0025904 17.887994,-0.0027483 l 2.57573,-0.002268 c 1.72699,-0.0015315 3.45399,-0.0030699 5.18098,-0.004615 16.18045,-0.01371494 32.36085,-0.0082945 48.5413,0.0031852 14.78672,0.0099308 29.57331,-0.0030074 44.36001,-0.02693419 15.20131,-0.02441145 30.40257,-0.03399381 45.6039,-0.02734727 8.52706,0.003488 17.05402,0.00129 25.58106,-0.016251 7.25901,-0.0147476 14.51786,-0.0153241 21.77686,0.002071 3.6998,0.008491 7.3993,0.0107053 11.09908,-0.004652 4.01986,-0.0164782 12.63191,1.92020587 16.27553,5.83883917 50.39889,54.0886713 -10.57611,-11.0751513 40.8362,43.2030513 5.58724,6.014382 6.42996,13.033282 6.42276,16.499295 -0.005,3.747896 0.008,7.49574 0.018,11.24362 0.0172,7.332679 0.018,14.665273 0.0128,21.997967 -0.004,5.962674 -0.003,11.925324 0.003,17.887994 l 0.002,2.57573 c 0.002,1.72699 0.003,3.45398 0.005,5.18098 0.0137,16.18045 0.008,32.36085 -0.003,48.5413 -0.01,14.78672 0.003,29.57331 0.0269,44.36001 0.0244,15.20131 0.034,30.40257 0.0274,45.6039 -0.003,8.52706 -10e-4,17.05402 0.0163,25.58106 0.0147,7.25901 0.0153,14.51785 -0.002,21.77686 -0.008,3.6998 -0.0107,7.3993 0.005,11.09908 0.0165,4.01986 0.002,8.03902 -0.016,12.05888 l 0.0291,3.50496 c -0.12791,14.21469 -5.26285,24.98811 -14.84281,35.31367 -10.55063,9.98542 -22.36297,12.71087 -36.50216,12.63768 l -3.81155,0.0163 c -3.466,0.0144 -6.93176,0.0102 -10.39778,0.003 -3.74789,-0.005 -7.49574,0.008 -11.24362,0.018 -7.33267,0.0172 -14.66527,0.018 -21.99796,0.0128 -5.96268,-0.004 -11.92532,-0.003 -17.888,0.003 l -2.57573,0.002 c -1.72699,0.002 -3.45398,0.003 -5.18097,0.005 -16.18045,0.0137 -32.36085,0.008 -48.5413,-0.003 -14.78672,-0.01 -29.57332,0.003 -44.36001,0.0269 -15.20132,0.0244 -30.40258,0.034 -45.60391,0.0274 -8.52706,-0.003 -17.05402,-10e-4 -25.581057,0.0163 -7.259011,0.0147 -14.517857,0.0153 -21.776864,-0.002 -3.699796,-0.009 -7.399299,-0.0107 -11.099079,0.005 -4.01986,0.0165 -8.03902,0.002 -12.058876,-0.016 l -3.50496,0.0291 C 33.879237,384.92921 23.105825,379.79426 12.78026,370.21431 2.794844,359.66368 0.069393,347.85134 0.14258,333.71214 l -0.01632,-3.81155 c -0.01438,-3.466 -0.01023,-6.93176 -0.0028,-10.39777 0.0047,-3.74789 -0.0078,-7.49574 -0.01802,-11.24362 -0.01716,-7.33268 -0.01803,-14.66527 -0.01279,-21.99797 0.004,-5.96267 0.0026,-11.92532 -0.0027,-17.88799 l -0.0023,-2.57573 c -0.0015,-1.72699 -0.0031,-3.45398 -0.0046,-5.18098 -0.01371,-16.18045 -0.0083,-32.36085 0.0032,-48.5413 0.0099,-14.78672 -0.003,-29.57331 -0.02693,-44.36001 C 0.03491,152.51391 0.02533,137.31265 0.03197,122.11132 0.03547,113.58426 0.03327,105.0573 0.01572,96.530262 9.7e-4,89.271252 4e-4,82.012406 0.01782,74.753399 0.02632,71.053603 0.02853,67.3541 0.01312,63.65432 -0.00336,59.634459 0.01142,55.6153 0.02911,51.595444 L 0,48.090484 C 0.126695,33.874618 5.261636,23.101205 14.84159,12.775641 25.392219,2.7902242 37.204563,0.06477368 51.343757,0.1379606 Z M 36.59159,38.275641 c -4.48462,7.066675 -4.35134,13.817649 -4.323196,21.964813 l -0.01159,3.562709 c -0.0085,3.25051 -0.0081,6.500874 -0.0038,9.751387 0.0025,3.51066 -0.0066,7.021293 -0.01404,10.531943 -0.01274,6.872859 -0.01454,13.745679 -0.0122,20.618547 0.0018,5.58757 3.1e-5,11.17514 -0.0042,16.76271 l -0.0018,2.41139 -0.0036,4.85002 c -0.01087,15.15597 -0.0087,30.31192 -0.0026,45.46789 0.0052,13.85773 -0.0061,27.7154 -0.0251,41.57312 -0.01938,14.2373 -0.02763,28.47456 -0.02388,42.71187 0.0019,7.98988 -5.69e-4,15.9797 -0.01471,23.96956 -0.01192,6.80204 -0.01331,13.60398 -0.0012,20.40602 0.0059,3.46848 0.007,6.93679 -0.005,10.40526 -0.01045,3.76482 -0.0024,7.52917 0.01031,11.29398 l -0.02235,3.30183 c 0.04713,6.64936 0.322548,13.84327 4.671474,19.25277 5.559173,5.09407 12.180073,5.66755 19.408688,5.60949 l 2.12233,-0.009 c 2.210708,-0.0111 4.420993,-0.0362 6.631576,-0.0617 1.50976,-0.01 3.019526,-0.0192 4.529297,-0.0273 3.677869,-0.0219 7.355495,-0.0564 11.033203,-0.0977 l 0.0044,-1.84615 c 0.03713,-14.8581 0.09623,-29.71599 0.179459,-44.5739 0.03973,-7.18534 0.07215,-14.37058 0.08709,-21.55602 0.01305,-6.26649 0.0401,-12.53274 0.08362,-18.79909 0.02254,-3.31477 0.03621,-6.62918 0.03727,-9.94403 0.0024,-3.71034 0.02949,-7.41975 0.06222,-11.12993 l -0.01524,-3.29132 c 0.131301,-9.65864 2.546017,-18.00387 9.561142,-24.85956 6.731765,-5.00353 12.867507,-7.24524 21.335877,-7.26743 l 2.17205,-0.0137 c 2.39033,-0.0126 4.78043,-0.011 7.17078,-0.009 1.71864,-0.006 3.43726,-0.0128 5.15589,-0.0204 4.66134,-0.0177 9.3226,-0.0224 13.98397,-0.0236 2.91512,-0.001 5.83023,-0.006 8.74535,-0.011 10.17825,-0.0185 20.35645,-0.0267 30.53472,-0.0251 9.47374,0.001 18.94726,-0.0199 28.42095,-0.0515 8.14459,-0.0262 16.28911,-0.0369 24.43375,-0.0356 4.85951,5e-4 9.71881,-0.005 14.57827,-0.0264 4.5736,-0.0194 9.14681,-0.0195 13.72042,-0.005 1.67287,0.002 3.34577,-0.003 5.0186,-0.0147 10.30509,-0.0699 19.45424,0.36501 28.04187,6.75374 8.27368,8.46608 9.98371,16.91147 10.00635,28.44678 l 0.0304,3.54941 c 0.0308,3.86324 0.0479,7.72642 0.0648,11.58975 0.0187,2.68186 0.0382,5.36371 0.0587,8.04556 0.0467,6.33214 0.0835,12.6643 0.11667,18.99653 0.0383,7.21166 0.0877,14.42324 0.13799,21.63483 0.10321,14.82897 0.19251,29.65802 0.27259,44.48714 4.39247,0.0748 8.78458,0.12892 13.17749,0.16479 1.49063,0.015 2.98121,0.0354 4.47168,0.0615 13.19544,0.62524 13.19544,0.62524 24.9187,-4.50195 6.18756,-6.66073 5.72219,-14.94093 5.69283,-23.43918 l 0.0116,-3.56271 c 0.009,-3.25051 0.008,-6.50088 0.004,-9.75139 -0.002,-3.51066 0.007,-7.02129 0.014,-10.53194 0.0127,-6.87286 0.0145,-13.74568 0.0122,-20.61855 -0.002,-5.58757 -3e-5,-11.17514 0.004,-16.76271 l 0.002,-2.41139 c 10e-4,-1.61667 0.002,-3.23334 0.004,-4.85002 0.0109,-15.15597 0.009,-30.31192 0.003,-45.46789 -0.005,-13.85773 0.006,-27.7154 0.0251,-41.57312 0.0194,-14.2373 0.0276,-28.47456 0.0239,-42.71187 -0.002,-7.98988 5.7e-4,-15.9797 0.0147,-23.96956 0.0119,-6.802038 0.0133,-13.603979 10e-4,-20.406019 -0.006,-3.468483 -0.007,-6.936789 0.005,-10.40526 -33.0595,-39.32943 -4.65338,-5.040145 -32.82207,-39.387732 -1.50976,0.01004 -3.01952,0.01917 -4.52929,0.02734 -3.67787,0.02191 -23.3555,0.05636 -27.03321,0.09766 l -0.004,1.846151 c -0.0371,14.8581 -0.0962,29.715992 -0.17946,44.573899 -0.0397,7.185345 -0.0721,14.370581 -0.0871,21.556021 -0.0131,6.26649 -0.0401,12.53274 -0.0836,18.79909 -0.0225,3.31477 -0.0362,6.62918 -0.0373,9.94403 -0.002,3.71034 -0.0295,7.41975 -0.0622,11.12993 l 0.0152,3.29132 c -0.13131,9.65864 -2.54602,18.00387 -9.56115,24.85956 -6.73441,5.0055 -12.87104,7.24525 -21.3426,7.26743 l -2.17419,0.0137 c -2.39266,0.0126 -4.7851,0.011 -7.17779,0.009 -1.72025,0.006 -3.4405,0.0128 -5.16075,0.0203 -4.6654,0.0177 -9.33073,0.0224 -13.99617,0.0236 -2.91712,0.001 -5.83423,0.006 -8.75135,0.011 -10.18358,0.0185 -20.36711,0.0267 -30.55071,0.0251 -9.48172,-0.001 -18.96321,0.0199 -28.44487,0.0515 -8.14968,0.0262 -16.29928,0.0369 -24.44899,0.0356 -4.86339,-5e-4 -9.72657,0.005 -14.58991,0.0264 -4.57606,0.0194 -9.15173,0.0195 -13.7278,0.005 -1.67491,-0.002 -3.34983,0.003 -5.02469,0.0147 -16.185449,0.10953 -16.185449,0.10953 -23.610177,-4.50374 l -1.998944,-1.17755 c -6.586186,-4.03262 -10.059416,-10.50465 -12.002149,-17.82196 -0.310895,-3.89777 -0.311175,-7.78808 -0.318847,-11.69678 l -0.03044,-3.54941 c -0.03084,-3.86324 -0.04787,-7.72642 -0.06477,-11.58975 -0.01871,-2.68186 -0.03819,-5.36371 -0.05869,-8.04556 -0.04672,-6.33214 -0.0835,-12.6643 -0.116672,-18.996525 -0.03827,-7.211665 -0.08767,-14.423241 -0.137985,-21.63483 -0.103214,-14.828979 -0.192509,-29.658022 -0.272596,-44.487144 -4.392463,-0.07483 7.215424,-0.128917 2.82251,-0.164795 -1.490626,-0.01497 -2.981208,-0.03536 -4.47168,-0.06152 -14.315648,-0.689135 -14.315648,-0.689135 -26.28833,5.976315 z m 59.9375,-5.75 V 144.52564 h 160 V 32.525641 Z m 16,207.999999 v 40 h 160 v -40 z m 0,72 v 40 h 160 v -40 z"
     fill="#000000"
     id="path1"
     sodipodi:nodetypes="ccccccsccccccccccccsscccccccccccccccsscccccccccccccccsscccccccccccccccccsscccccccccccccccccsccccccccccsccccccccccccccccccccccssccccccccccccsccccccccccscccccccccccccccccccccccccccccccccc"
     style="fill:#06ef38;fill-opacity:1" />
  <path
     d="m 222.52909,56.525641 c 4.96592,2.305608 7.41978,5.220821 10,10 0.57098,3.338247 0.56124,6.619431 0.53125,10 l 0.0116,2.890625 c 0.003,2.010427 -0.005,4.020891 -0.0214,6.03125 -0.0214,3.068513 -1.8e-4,6.134685 0.0254,9.203125 -0.003,1.958338 -0.008,3.916675 -0.0156,5.874999 l 0.0245,2.76563 c -0.0817,5.58161 -0.83268,8.8091 -4.55579,13.23437 -3.81931,3.62834 -6.88279,4.31001 -12,4.5 -5.11721,-0.18999 -8.1807,-0.87166 -12,-4.5 -4.42899,-5.26426 -4.58961,-9.42274 -4.53125,-16 l -0.0116,-2.890624 c -0.003,-2.010427 0.005,-4.020891 0.0214,-6.03125 0.0214,-3.068513 1.8e-4,-6.134685 -0.0254,-9.203125 0.003,-1.958338 0.008,-3.916675 0.0156,-5.875 l -0.0245,-2.765625 c 0.0817,-5.581615 0.83267,-8.809107 4.55579,-13.234375 5.27133,-5.007762 11.10809,-4.927757 18,-4 z"
     fill="#000000"
     id="path2"
     sodipodi:nodetypes="ccccccccccccccccccc"
     style="fill:#06ef38;fill-opacity:1" />
</svg>
