<?xml version="1.0" encoding="UTF-8"?>
<svg width="64.674" height="90" fill="none" version="1.1" viewBox="0 0 64.674 90" xmlns="http://www.w3.org/2000/svg">
 <path transform="matrix(1.2 0 0 1.2 .00047629 0)" d="m26.953 0c-14.862 0-26.953 16.82-26.953 37.5s12.091 37.5 26.953 37.5 26.942-16.825 26.942-37.5-12.085-37.5-26.942-37.5zm25.702 37.5c0 20.013-9.8368-26.212-24.006-26.212s-8.9958 47.231-8.9958 27.23-7.225 31.547 6.9388 31.547c14.164 0 26.64-41.839 26.64-21.826z" clip-path="url(#clipPath902-3)" fill="#fff"/>
 <g fill="#8f2724">
  <path transform="translate(5.3895 7.5)" d="m26.953 0c-14.862 0-26.953 16.82-26.953 37.5s12.091 37.5 26.953 37.5 26.942-16.825 26.942-37.5-12.085-37.5-26.942-37.5zm25.702 37.5c0 20.013-11.532 36.292-25.702 36.292s-25.724-16.29-25.724-36.292 11.538-36.27 25.702-36.27c14.164 0 25.735 16.257 25.735 36.27z" clip-path="url(#clipPath902)"/>
  <path transform="translate(5.3895 7.5)" d="m15.969 63.579-3.4306 1.2904c-0.0124 0.0059-0.0232 0.0144-0.0319 0.0249s-0.015 0.0227-0.0184 0.0358c-0.0055 0.0111-0.0083 0.0234-0.0083 0.0358s0.0028 0.0247 0.0083 0.0359l0.2346 0.2371c0.0126 0.0078 0.0271 0.012 0.0419 0.012 0.0149 0 0.0294-0.0042 0.0419-0.012l2.235-0.8548-0.8605 2.2776c-0.0084 0.0132-0.0129 0.0285-0.0129 0.0441s0.0045 0.0309 0.0129 0.0441l0.38 0.3916c0.0182 0.0052 0.0376 0.0052 0.0558 0 0.0138-0.0029 0.0263-0.0097 0.0362-0.0195 0.01-0.0097 0.0168-0.0222 0.0197-0.0357l1.3186-3.4467c0.0085-0.0132 0.0129-0.0285 0.0129-0.0441s-0.0044-0.0309-0.0129-0.0441c-0.0095 0.0073-0.0171 0.0168-0.0223 0.0276z" clip-path="url(#clipPath896)"/>
  <path transform="translate(5.3895 7.5)" d="m36.251 65.074c-0.0126-0.0078-0.0271-0.012-0.042-0.012-0.0148 0-0.0293 0.0042-0.0419 0.012-0.0073 0.0126-0.0112 0.0269-0.0112 0.0414s0.0039 0.0288 0.0112 0.0414l0.9778 3.5625c0.0035 0.0124 0.0098 0.0238 0.0186 0.0334 0.0087 0.0096 0.0196 0.017 0.0317 0.0217 0.0144 0.0055 0.0303 0.0055 0.0447 0l0.257-0.2151c0.0096-0.0117 0.0147-0.0263 0.0147-0.0413 0-0.0151-0.0051-0.0297-0.0147-0.0414l-0.6202-2.3327 2.1735 1.0698c0.0119 0.0094 0.0267 0.0146 0.0419 0.0146s0.03-0.0052 0.0419-0.0146l0.4191-0.3474c0.0108-0.0085 0.0195-0.0195 0.0253-0.0319 0.0058-0.0125 0.0086-0.0261 0.0082-0.0398-0.0021-0.0128-0.0072-0.0251-0.015-0.0356s-0.0179-0.0191-0.0297-0.025z" clip-path="url(#clipPath890)"/>
  <path transform="translate(5.3895 7.5)" d="m3.1121 38.052 3.3524-1.4559c0.01368-0.0064 0.02518-0.0166 0.03312-0.0293 0.00793-0.0127 0.01195-0.0275 0.01158-0.0424 1.4e-4 -0.0156-0.00392-0.031-0.01178-0.0446-0.00785-0.0135-0.01921-0.0248-0.03292-0.0326l-3.2574-1.5882c-0.01189-0.0068-0.02538-0.0104-0.03911-0.0104s-0.02722 0.0036-0.03911 0.0104c-0.01115 0.0069-0.02017 0.0168-0.02608 0.0284-0.0059 0.0117-0.00848 0.0247-0.00744 0.0377v0.3364c7.8e-4 0.0154 0.00591 0.0303 0.01479 0.0429 0.00889 0.0127 0.02118 0.0227 0.03549 0.0288l2.1679 1.0644-2.2349 0.965c-0.01288 8e-3 -0.02398 0.0184-0.03263 0.0308-0.00865 0.0123-0.01465 0.0262-0.01766 0.0409v0.5515c6.3e-4 0.0133 0.00452 0.0263 0.01133 0.0378 0.00681 0.0116 0.01634 0.0213 0.02778 0.0284 0.01437 0.0055 0.03033 0.0055 0.0447 0z" clip-path="url(#clipPath884)"/>
  <path transform="translate(5.3895 7.5)" d="m20.058 66.899c-0.0154-0.0136-0.0353-0.0211-0.0559-0.0211s-0.0405 0.0075-0.0559 0.0211l-0.6146 1.1029-0.2849-0.1323-0.0336-0.1544c-0.0831-0.4756-0.216-0.9413-0.3967-1.3897-0.0909-0.2314-0.2582-0.4256-0.4749-0.5515-0.0667-0.0458-0.1402-0.0812-0.2179-0.1048-0.1055-0.0284-0.2147-0.0414-0.3241-0.0386-0.0166-4e-4 -0.033 0.0048-0.0462 0.0149-0.0132 0.01-0.0225 0.0242-0.0264 0.0403-0.0056 0.0157-0.0059 0.0328-9e-4 0.0487 0.0051 0.0159 0.0152 0.0297 0.0288 0.0395 0.0646 0.0456 0.1245 0.0973 0.1788 0.1544 0.1227 0.1686 0.2187 0.3545 0.285 0.5515 0.095 0.2537 0.2403 0.7941 0.3464 1.2242-0.1666-3e-4 -0.3304 0.0429-0.4746 0.1252-0.1443 0.0823-0.2639 0.2009-0.3467 0.3436-0.0704 0.1106-0.1154 0.235-0.1318 0.3646s-0.0039 0.2611 0.0368 0.3854c0.1423 0.3234 0.3955 0.587 0.7152 0.7445l0.6481 0.375c0.0126 0.0046 0.0265 0.0046 0.0391 0 0.021-0.0064 0.0389-0.0201 0.0503-0.0386l1.6147-2.7243c0.0058-0.0198 0.0058-0.0408 0-0.0607-0.0064-0.0207-0.0203-0.0383-0.0391-0.0496zm-1.531 2.5037-0.0558-0.0331c-0.1607-0.0784-0.2836-0.2161-0.3422-0.3833s-0.048-0.3505 0.0293-0.5101c0.0665-0.1275 0.1807-0.2245 0.3185-0.2702 0.0444-0.0061 0.0896-0.0061 0.1341 0 0.1835 0.0121 0.3616 0.0669 0.5196 0.1599z" clip-path="url(#clipPath878)"/>
  <path transform="translate(5.3895 7.5)" d="m32.736 7.8198c0.0182 0.00553 0.0376 0.00553 0.0558 0l2.7937-2.3824c0.0116-0.00687 0.0212-0.01657 0.0278-0.02816 0.0066-0.0116 0.0101-0.0247 0.0101-0.03802s-0.0035-0.02642-0.0101-0.03802c-0.0066-0.01159-0.0162-0.02129-0.0278-0.02816l-0.3017-0.14889c-0.0129-0.00676-0.0273-0.0103-0.0419-0.0103s-0.029 0.00354-0.0419 0.0103l-1.8438 1.5717 0.0558-2.4375c0.0012-0.01508-0.0025-0.03013-0.0105-0.043-0.0081-0.01288-0.02-0.02292-0.0342-0.02869l-0.4916-0.24265c-0.0123-0.00548-0.0257-0.00832-0.0392-0.00832-0.0134 0-0.0268 0.00284-0.0391 0.00832-0.0114 0.0071-0.0209 0.01683-0.0278 0.02835-0.0068 0.01152-0.0106 0.0245-0.0113 0.03783l-0.095 3.6783c-0.0015 0.01584 2e-3 0.03177 0.01 0.04559s0.0201 0.02486 0.0347 0.03161z" clip-path="url(#clipPath872)"/>
  <path transform="translate(5.3895 7.5)" d="m36.318 9.7941c0.0157 0.01516 0.0367 0.02365 0.0587 0.02365 0.0219 0 0.043-0.00849 0.0586-0.02365l1.6763-1.8254 0.1732 3.6121c-5e-3 0.018-5e-3 0.0371 0 0.0551l0.1061 0.0993c0.0165 0.0042 0.0338 0.0042 0.0503 0 0.0088 4e-3 0.0183 6e-3 0.0279 6e-3 0.0097 0 0.0192-2e-3 0.028-6e-3l2.2014-2.3603c0.0054-0.01987 0.0054-0.04081 0-0.06067 0.0069-0.01775 0.0069-0.03739 0-0.05514l-0.2179-0.20405c-0.0074-0.00821-0.0164-0.01479-0.0265-0.0193s-0.0211-0.00684-0.0322-0.00684-0.0221 0.00233-0.0322 0.00684-0.0191 0.01109-0.0265 0.0193l-1.4918 1.6268-0.1117-3.1985c0.0078-0.01949 0.0078-0.04117 0-0.06066l-0.3353-0.30882c-0.0068-0.0081-0.0153-0.01462-0.025-0.01909-0.0096-0.00448-0.0202-0.0068-0.0308-0.0068-0.0107 0-0.0212 0.00232-0.0309 0.0068-0.0096 0.00447-0.0182 0.01099-0.025 0.01909l-2.1679 2.3603c-0.0078 0.01949-0.0078 0.04117 0 0.06066 0.0023 0.0211 0.0122 0.04068 0.0279 0.05515z" clip-path="url(#clipPath866)"/>
  <path transform="translate(5.3895 7.5)" d="m40.195 13.748c8e-3 0.0152 0.0195 0.0284 0.0335 0.0386l0.3073 0.397c7e-3 0.0099 0.0161 0.018 0.0268 0.0237 0.0107 0.0058 0.0226 9e-3 0.0347 0.0094 0.0164 0.0048 0.0339 0.0048 0.0503 0l2.5254-1.9632c0.0138-0.0152 0.0214-0.0348 0.0214-0.0552 0-0.0203-0.0076-0.04-0.0214-0.0551l-0.3073-0.4026c-0.0057-8e-3 -0.0133-0.0146-0.0219-0.0194-0.0087-0.0047-0.0184-0.0075-0.0283-0.0082-0.0094-0.0053-0.02-0.0081-0.0308-0.0081s-0.0214 0.0028-0.0307 0.0081l-2.5255 1.9798c-0.0162 0.0149-0.0278 0.034-0.0335 0.0552z" clip-path="url(#clipPath860)"/>
  <path transform="translate(5.3895 7.5)" d="m42.391 17.46c0.0081 0.0121 0.0188 0.0224 0.0314 0.03 0.0125 0.0076 0.0266 0.0124 0.0413 0.0141l3.6485-0.2758c0.0127-1e-3 0.0249-5e-3 0.0356-0.0118 0.0107-0.0067 0.0196-0.0159 0.0259-0.0268 0.0055-0.0121 0.0084-0.0253 0.0084-0.0386s-0.0029-0.0264-0.0084-0.0386l-0.1565-0.2978c-7e-3 -0.0139-0.0184-0.0252-0.0325-0.0322-0.0142-0.0069-0.0302-0.0092-0.0457-0.0064l-2.4026 0.1765 1.4639-1.9412c0.0085-0.0132 0.0129-0.0285 0.0129-0.0441s-0.0044-0.0309-0.0129-0.0441l-0.257-0.4798c-0.0069-0.0114-0.0168-0.0209-0.0285-0.0274-0.0118-0.0066-0.025-0.01-0.0385-0.01s-0.0268 0.0034-0.0386 0.01c-0.0117 0.0065-0.0215 0.016-0.0285 0.0274l-2.2349 2.9394c-0.0035 0.0132-0.0038 0.0271-9e-4 0.0405s9e-3 0.026 0.0176 0.0367z" clip-path="url(#clipPath854)"/>
  <path transform="translate(5.3895 7.5)" d="m45.783 20.796 0.285 0.7389c0.0086 0.0194 0.0244 0.0347 0.0442 0.0429 0.0197 0.0082 0.0419 0.0087 0.0619 0.0012l0.2571-0.1047c0.0191-0.0074 0.0346-0.022 0.043-0.0406 0.0083-0.0186 9e-3 -0.0397 0.0017-0.0587l-0.2906-0.739 0.9554-0.3805 0.3967 1.0313c0.012 0.0173 0.0271 0.0323 0.0447 0.0441h0.0615l0.257-0.1048c0.0196-0.0085 0.0352-0.0241 0.0435-0.0436s0.0087-0.0414 0.0012-0.0612l-0.609-1.5662c-0.0085-0.0199-0.0245-0.0357-0.0447-0.0441-0.0093-0.0053-0.0199-0.0081-0.0307-0.0081s-0.0214 0.0028-0.0308 0.0081l-2.9668 1.1747c-0.0102 0.0036-0.0195 0.0092-0.0274 0.0166-0.0079 0.0073-0.0141 0.0162-0.0183 0.0261-0.0042 0.0098-0.0063 0.0204-0.0061 0.0311s0.0026 0.0212 0.0071 0.0309l0.609 1.5717c0.0103 0.0187 0.0258 0.034 0.0447 0.0442h0.0614l0.2515-0.0993c0.0196-0.0085 0.0351-0.0241 0.0435-0.0436 0.0083-0.0195 0.0087-0.0414 0.0012-0.0612l-0.4023-1.0257z" clip-path="url(#clipPath848)"/>
  <path transform="translate(5.3895 7.5)" d="m48.314 29.868 0.0726 0.033h-0.0782c-0.1285 0.3475-0.2459 0.6453-0.5085 0.6894h-0.1285c-0.0795-0.0103-0.1537-0.0452-0.2119-0.0997s-0.0975-0.1258-0.1121-0.2036c-0.0032-0.0146-0.0032-0.0296 0-0.0441-3e-3 -0.0478-3e-3 -0.0957 0-0.1434 0.0288-0.2602 0.1426-0.504 0.324-0.6949l0.1229-0.1213c0.0097-0.0138 0.0148-0.0301 0.0148-0.0469 0-0.0167-0.0051-0.0331-0.0148-0.0469-0.0051-0.0156-0.016-0.0288-0.0304-0.0369-0.0145-0.0082-0.0315-0.0107-0.0478-0.0072l-0.5587 0.0938c-0.0114 3e-4 -0.0225 0.0036-0.0323 0.0094s-0.0179 0.0139-0.0236 0.0237c-0.1624 0.2603-0.2276 0.5685-0.1844 0.8713 0.0152 0.2585 0.1221 0.5034 0.3019 0.692 0.1798 0.1885 0.421 0.3086 0.6815 0.3392h0.1397c0.6146-0.0937 0.8046-0.6397 0.9554-1.1029 0.1229-0.3529 0.2235-0.6342 0.4749-0.6728 0.0408-0.0055 0.0822-0.0055 0.123 0 0.0671 0.0129 0.1294 0.0439 0.1797 0.0897s0.0868 0.1044 0.1052 0.1695v0.0662c0.0029 0.0367 0.0029 0.0736 0 0.1103-0.0264 0.2277-0.124 0.4417-0.2794 0.6121l-0.1005 0.1213c-0.0096 0.0138-0.0148 0.0302-0.0148 0.0469s0.0052 0.0331 0.0148 0.0469c0.0086 0.0138 0.0211 0.0248 0.036 0.0317s0.0315 0.0093 0.0478 0.0069l0.5587-0.0883c0.0119-0.0031 0.023-0.0087 0.0326-0.0163s0.0176-0.017 0.0233-0.0278c0.1168-0.2597 0.1481-0.549 0.0894-0.8272-0.0412-0.2375-0.1519-0.458-0.3185-0.6342-0.0913-0.1002-0.2068-0.176-0.3357-0.2203-0.129-0.0444-0.2672-0.0558-0.4018-0.0334-0.5643 0.0883-0.7599 0.6011-0.9163 1.0148z" clip-path="url(#clipPath842)"/>
  <path transform="translate(5.3895 7.5)" d="m47.308 33.601 0.0335 0.5018c-6e-3 0.0179-6e-3 0.0373 0 0.0552 0.0089 0.0036 0.0184 0.0055 0.0279 0.0055 0.0096 0 0.0191-0.0019 0.028-0.0055l3.1792-0.2427c0.0212-0.0027 0.0406-0.0134 0.0541-0.0298s0.0201-0.0373 0.0185-0.0584l-0.0391-0.5018c0.0069-0.0178 0.0069-0.0374 0-0.0552-0.0087-4e-3 -0.0183-6e-3 -0.0279-6e-3 -0.0097 0-0.0192 2e-3 -0.028 6e-3l-3.1792 0.2427c-0.0103 0.0013-0.0202 0.0047-0.0292 0.0099-9e-3 0.0051-0.0168 0.0121-0.0231 0.0203-0.0062 0.0082-0.0107 0.0175-0.0133 0.0275-0.0025 0.01-3e-3 0.0203-0.0014 0.0305z" clip-path="url(#clipPath836)"/>
  <path transform="translate(5.3895 7.5)" d="m50.783 36.292c-0.0181-0.0063-0.0378-0.0063-0.0559 0h-0.2738c-0.0212 0.0014-0.0411 0.0107-0.0557 0.0261-0.0145 0.0153-0.0226 0.0356-0.0225 0.0566v1.1029l-2.8384-0.0275c-0.0085-0.0049-0.0181-0.0074-0.0279-0.0074s-0.0194 0.0025-0.0279 0.0074c-0.0045 0.0181-0.0045 0.037 0 0.0551v0.5074c0 0.0204 0.0082 0.0401 0.0229 0.0545 0.0146 0.0145 0.0345 0.0227 0.0553 0.0227l2.8328 0.0331v1.1029c0.0032 0.0208 0.0131 0.04 0.0282 0.0548 0.0151 0.0149 0.0345 0.0247 0.0556 0.0279h0.2737c0.0208 0 0.0407-0.0081 0.0554-0.0226 0.0146-0.0145 0.0229-0.0341 0.0229-0.0546l0.0335-2.8566c-0.0012-0.0207-0.0096-0.0403-0.0239-0.0554s-0.0335-0.0248-0.0543-0.0273z" clip-path="url(#clipPath830)"/>
  <path transform="translate(5.3895 7.5)" d="m49.135 46.324c-0.5587-0.1103-0.9163 0.3033-1.2068 0.6397-0.2906 0.3364-0.4526 0.5239-0.7152 0.4688-0.0423-0.0107-0.0835-0.0255-0.1229-0.0441-0.072-0.0365-0.1303-0.0946-0.1665-0.166-0.0362-0.0715-0.0483-0.1524-0.0347-0.2311v-0.0441c0.0127-0.043 0.0276-0.0854 0.0447-0.1269 0.1176-0.241 0.3146-0.4354 0.5588-0.5514l0.1564-0.0717c0.0156-0.0071 0.0285-0.019 0.0365-0.0339 0.0081-0.015 0.011-0.0321 0.0082-0.0488-0.0017-0.0167-0.0084-0.0325-0.0194-0.0453s-0.0256-0.022-0.042-0.0264l-0.5588-0.1158c-0.0097-0.0041-0.0201-0.0062-0.0307-0.0062s-0.021 0.0021-0.0307 0.0062c-0.2423 0.1922-0.41 0.461-0.475 0.761-0.0788 0.2706-0.0498 0.5607 0.0811 0.8109s0.3538 0.4415 0.6229 0.5347c0.6091 0.1213 0.9778-0.3199 1.2684-0.6838 0.2905-0.364 0.4414-0.5129 0.6816-0.4688 0.0373 0.01 0.073 0.0248 0.1062 0.0441 0.0606 0.0333 0.1099 0.0835 0.1417 0.1443 0.0318 0.0609 0.0447 0.1296 0.0371 0.1976 0.0027 0.022 0.0027 0.0442 0 0.0662-0.0052 0.0365-0.0165 0.072-0.0336 0.1048-0.0993 0.2079-0.2666 0.3769-0.4749 0.4798l-0.1341 0.0772c-0.0152 0.0071-0.0274 0.0193-0.0346 0.0344-0.0071 0.0151-0.0087 0.0322-0.0045 0.0483 0.0011 0.0163 0.0078 0.0317 0.019 0.0438 0.0111 0.012 0.0261 0.0199 0.0425 0.0224l0.5587 0.1158c0.0089 0.0036 0.0184 0.0055 0.0279 0.0055 0.0096 0 0.0191-0.0019 0.028-0.0055 0.1931-0.1955 0.3234-0.443 0.3743-0.7114 0.0375-0.2452-0.0035-0.4958-0.1173-0.7169-0.048-0.1266-0.1274-0.2394-0.2308-0.328-0.1035-0.0886-0.2277-0.1503-0.3615-0.1794z" clip-path="url(#clipPath824)"/>
  <path transform="translate(5.3895 7.5)" d="m44.699 58.87c-0.22-0.0968-0.4633-0.13-0.7016-0.0958s-0.462 0.1343-0.645 0.2888c-0.3129 0.1765-0.6034 0.3364-0.8325 0.1985-0.0366-0.0191-0.0689-0.0454-0.095-0.0772-0.0556-0.0591-0.0914-0.1338-0.1024-0.2137-0.011-0.08 0.0033-0.1613 0.041-0.233v-0.0386l0.0838-0.1158c0.1889-0.1799 0.4322-0.2942 0.6928-0.3253h0.1732c0.0162-2e-3 0.0314-0.0089 0.0434-0.0198 0.012-0.0108 0.0203-0.0252 0.0237-0.0409 5e-3 -0.0163 0.0045-0.0338-0.0016-0.0498-6e-3 -0.0159-0.0173-0.0294-0.032-0.0384l-0.5084-0.3089c-0.0097-0.0041-0.0202-0.0062-0.0307-0.0062-0.0106 0-0.0211 0.0021-0.0308 0.0062-0.2917 0.0963-0.5392 0.2917-0.6984 0.5515-0.1507 0.2451-0.221 0.5302-0.2011 0.8162 8e-3 0.1391 0.0497 0.2744 0.1217 0.3943 0.0719 0.12 0.172 0.2211 0.2917 0.295 0.2317 0.1088 0.491 0.147 0.7448 0.1097s0.4905-0.1485 0.68-0.3192c0.3241-0.193 0.5587-0.3475 0.7934-0.2151 0.05 0.0281 0.0922 0.0679 0.1229 0.1158 0.0274 0.051 0.0418 0.1078 0.0418 0.1654 0 0.0577-0.0144 0.1145-0.0418 0.1655l-0.0335 0.0717c-0.0196 0.0313-0.042 0.0608-0.067 0.0882-0.1645 0.1615-0.3788 0.2643-0.6091 0.2923h-0.1508c-0.0158 0.0037-0.0302 0.0118-0.0415 0.0234-0.0112 0.0117-0.0187 0.0263-0.0217 0.042-3e-3 0.0158-0.0012 0.0321 0.0051 0.0469 0.0062 0.0149 0.0167 0.0276 0.0301 0.0366l0.4861 0.2978h0.0783c0.2489-0.1191 0.454-0.3119 0.5866-0.5515 0.12-0.2036 0.1763-0.4377 0.1621-0.6728-0.0018-0.1335-0.035-0.2649-0.097-0.3836-0.0621-0.1187-0.1513-0.2215-0.2606-0.3002z" clip-path="url(#clipPath818)"/>
  <path transform="translate(5.3895 7.5)" d="m42.793 62.719c-0.0182-0.0055-0.0377-0.0055-0.0559 0-0.0183-0.0049-0.0375-0.0049-0.0558 0l-0.6873 0.8493-2.1902-1.8033c-0.0163-0.014-0.0371-0.0217-0.0587-0.0217-0.0215 0-0.0424 0.0077-0.0587 0.0217l-0.3128 0.3915c-0.0054 0.0093-0.0083 0.0197-0.0083 0.0304 0 0.0106 0.0029 0.0211 0.0083 0.0303-0.0066 0.0159-0.0066 0.0337 0 0.0496l2.1902 1.8144-0.6872 0.8492c-0.0069 0.0178-0.0069 0.0374 0 0.0552 0.0042 0.0217 0.0161 0.0412 0.0335 0.0551l0.2123 0.1765c0.0165 0.0042 0.0338 0.0042 0.0503 0 0.0121-4e-4 0.024-0.0036 0.0347-0.0094 0.0106-0.0057 0.0198-0.0138 0.0267-0.0237l1.7992-2.2059c0.0141-0.016 0.0219-0.0366 0.0219-0.0579s-0.0078-0.0418-0.0219-0.0579z" clip-path="url(#clipPath812)"/>
  <path transform="translate(5.3895 7.5)" d="m33.396 67.279c-0.0096-0.0185-0.0255-0.0331-0.0449-0.0412-0.0194-8e-3 -0.0411-0.0091-0.0612-0.0029l-0.6537 0.2757c-0.5658 0.2094-1.0559 0.5798-1.408 1.0644-0.1426 0.2261-0.2255 0.4839-0.2411 0.7498s0.0365 0.5314 0.1517 0.7722c0.0943 0.2845 0.2827 0.5294 0.535 0.6955 0.2523 0.166 0.5539 0.2435 0.8562 0.22 0.4741-0.0463 0.9369-0.1712 1.3689-0.3695l0.6928-0.2923c0.0173-0.0105 0.0309-0.0259 0.0391-0.0441 0.0054-0.0092 0.0083-0.0197 0.0083-0.0303 0-0.0107-0.0029-0.0212-0.0083-0.0304zm0.3129 2.9669c-1.0336 0.4191-1.7097 0.2151-2.0617-0.6342-0.1164-0.2351-0.1383-0.505-0.0615-0.7555 0.0313-0.1077 0.0888-0.2061 0.1677-0.2867 0.2953-0.2838 0.6473-0.5035 1.0336-0.6453l0.1341-0.0606 0.9666 2.3051z" clip-path="url(#clipPath806)"/>
  <path transform="translate(5.3895 7.5)" d="m28.635 68.702c-0.0198-0.0077-0.0418-0.0077-0.0615 0l-0.4917 0.0496c-0.0212 0.0028-0.0406 0.0135-0.0541 0.0299s-0.0201 0.0373-0.0185 0.0584l0.2905 3.1985c0.0023 0.0211 0.0122 0.0407 0.0279 0.0551 0.0165 0.0043 0.0338 0.0043 0.0503 0l0.4973-0.0496c0.0212-0.0027 0.0406-0.0134 0.0541-0.0298s0.0202-0.0373 0.0185-0.0584l-0.2961-3.1986c0.0016-0.0098 9e-4 -0.0199-2e-3 -0.0294-0.0029-0.0096-0.0079-0.0183-0.0147-0.0257z" clip-path="url(#clipPath800)"/>
  <path transform="translate(5.3895 7.5)" d="m24.143 68.382c-0.2317-0.0543-0.472-0.0623-0.7069-0.0234-0.2348 0.0388-0.4594 0.1237-0.6604 0.2497-0.201 0.1259-0.3745 0.2903-0.5101 0.4835-0.1355 0.1933-0.2305 0.4113-0.2793 0.6413-0.0512 0.2248-0.0543 0.4576-0.0091 0.6837 0.0452 0.226 0.1377 0.4402 0.2717 0.6288 0.2954 0.391 0.7313 0.6554 1.218 0.739 0.1248 0.0268 0.2523 0.0397 0.38 0.0386 0.4154 0.0155 0.8227-0.116 1.1485-0.3708 0.3258-0.2549 0.5486-0.6162 0.6282-1.0189 0.0504-0.2239 0.0531-0.4557 0.0079-0.6807s-0.1373-0.4383-0.2705-0.6263c-0.2948-0.3925-0.7306-0.6589-1.218-0.7445zm0.8493 1.9247c-0.0455 0.2713-0.1588 0.5272-0.3297 0.7445-0.1403 0.1695-0.3394 0.2816-0.5587 0.3143-0.1222 0.0194-0.2466 0.0194-0.3688 0-0.1878-0.0345-0.3658-0.1085-0.522-0.217s-0.2869-0.2489-0.3831-0.4117c-0.1652-0.2634-0.2324-0.5754-0.19-0.8823 0.044-0.2701 0.1575-0.5246 0.3296-0.739 0.1389-0.1713 0.3388-0.2837 0.5588-0.3143 0.0501-0.0055 0.1007-0.0055 0.1508 0 0.0724-0.0082 0.1455-0.0082 0.2179 0 0.1886 0.0323 0.3675 0.1055 0.524 0.2142 0.1565 0.1086 0.2867 0.2502 0.3812 0.4144 0.1691 0.266 0.2365 0.5828 0.19 0.8934z" clip-path="url(#clipPath794)"/>
  <path transform="translate(5.3895 7.5)" d="m13.454 60.948-0.162-0.2536c-0.0048-0.0094-0.012-0.0173-0.0208-0.0231s-0.019-0.0093-0.0295-0.01c-0.0097-0.0041-0.0202-0.0062-0.0308-0.0062-0.0105 0-0.021 0.0021-0.0307 0.0062l-1.8606 1.1967 1.2013-2.2997c0.0069-0.0127 0.0104-0.0269 0.0104-0.0413 0-0.0145-0.0035-0.0287-0.0104-0.0414l-0.0559-0.0827c-0.0049-0.0131-0.0143-0.024-0.0265-0.0311-0.0122-7e-3 -0.0265-0.0097-0.0405-0.0075l-2.4473 0.0551 1.7321-1.1029c0.0195-0.013 0.0335-0.0326 0.0391-0.0552 5e-3 -0.0199 5e-3 -0.0407 0-0.0606l-0.2682-0.4247c-0.0153-0.0135-0.0352-0.021-0.0558-0.021-0.0207 0-0.0405 0.0075-0.0559 0.021l-2.6931 1.7206c-0.01314 0.0166-0.02028 0.0369-0.02028 0.0579s0.00714 0.0414 0.02028 0.0579l0.16203 0.2592s0.0447 0.0497 0.07264 0.0386l2.7936-0.0441-1.3018 2.4596c-0.0069 0.0127-0.0105 0.0269-0.0105 0.0413 0 0.0145 0.0036 0.0287 0.0105 0.0414l0.2458 0.386c0.0058 0.0125 0.0153 0.023 0.0273 0.0299s0.0259 0.01 0.0398 0.0087c0.0126 0.0047 0.0265 0.0047 0.0391 0l2.6819-1.7647c0.0104-0.0042 0.0198-0.0104 0.0277-0.0183 0.0079-0.0078 0.0141-0.0172 0.0183-0.0275s0.0062-0.0213 6e-3 -0.0324c-2e-4 -0.011-0.0027-0.022-0.0073-0.0321z" clip-path="url(#clipPath788)"/>
  <path transform="translate(5.3895 7.5)" d="m7.4032 47.338-2.4249 0.4467 2.0059-2.9669c0.00401-0.0086 0.00609-0.018 0.00609-0.0276 0-0.0095-0.00208-0.0189-0.00609-0.0275l-0.02794-0.1489c-0.00406-0.0196-0.01565-0.0368-0.03231-0.0481-0.01667-0.0113-0.03713-0.0158-0.05709-0.0126l-3.1401 0.5515c-0.02035 0.0045-0.03828 0.0163-0.05028 0.0331-0.00415 0.0096-0.00629 0.0199-0.00629 0.0303s0.00214 0.0207 0.00629 0.0303l0.05028 0.2978c0.00409 0.021 0.01627 0.0397 0.03398 0.052 0.01771 0.0124 0.03958 0.0174 0.06101 0.0142l2.1679-0.4026-1.7991 2.6361c-0.00415 0.0095-0.00629 0.0199-0.00629 0.0303s0.00214 0.0207 0.00629 0.0303l0.08381 0.4522c0.00453 0.0201 0.01648 0.0378 0.03352 0.0497 0.01438 0.0055 0.03033 0.0055 0.0447 0l3.1345-0.5846c0.01056-8e-4 0.02074-0.0042 0.02955-0.01s0.01596-0.0138 0.02074-0.0231c0.00575-0.0198 0.00575-0.0408 0-0.0607l-0.05587-0.2977c-0.00684-0.0145-0.01803-0.0264-0.03203-0.0343s-0.03014-0.0114-0.04619-0.0099z" clip-path="url(#clipPath782)"/>
  <path transform="translate(5.3895 7.5)" d="m7.7385 25.368c-0.01739-8e-4 -0.03454 0.0043-0.0487 0.0143-0.01417 0.01-0.02456 0.0243-0.02952 0.0408-0.02121 0.0749-0.05121 0.1471-0.0894 0.2151-0.12274 0.1708-0.27386 0.32-0.44698 0.4411-0.21232 0.171-0.68166 0.4743-1.056 0.7114-0.04553-0.1596-0.13312-0.3044-0.25385-0.4197s-0.27028-0.1969-0.43339-0.2365c-0.12554-0.0331-0.25702-0.0379-0.38469-0.014-0.12767 0.0238-0.24826 0.0757-0.35284 0.1519-0.26809 0.2361-0.44237 0.5586-0.49169 0.9099l-0.16203 0.739c-0.00347 0.0203 9.1e-4 0.0413 0.01229 0.0586 0.01137 0.0174 0.02891 0.0299 0.04917 0.0351l3.1122 0.6949c0.01437 0.0055 0.03032 0.0055 0.0447 0 0.01704-0.0119 0.02899-0.0296 0.03352-0.0497l0.11175-0.4908c0.00228-0.0202-0.0026-0.0406-0.0138-0.0577s-0.02804-0.0298-0.04766-0.036l-1.2069-0.2703c0.02234-0.1036 0.03728-0.2086 0.0447-0.3143l0.1341-0.0772c0.42657-0.2233 0.82746-0.4914 1.1957-0.7996 0.23803-0.225 0.38163-0.5301 0.40228-0.8548-0.0042-0.1113-0.02684-0.2213-0.06704-0.3254-0.00281-0.0148-0.00942-0.0287-0.0192-0.0402-0.00978-0.0116-0.02241-0.0206-0.03668-0.0259zm-2.0226 2.3382-1.1733-0.2592v-0.0662c0.0447-0.1599 0.22349-0.6838 0.7487-0.5515 0.14178 0.026 0.2679 0.105 0.352 0.2206 0.09895 0.2024 0.12458 0.432 0.07264 0.6508z" clip-path="url(#clipPath776)"/>
  <path transform="translate(5.3895 7.5)" d="m46.615 27.645c0.0182 0.0055 0.0377 0.0055 0.0559 0h0.0391c0.0145-0.0094 0.0259-0.0227 0.0328-0.0384 7e-3 -0.0157 0.0091-0.033 0.0063-0.0498-0.0082-0.077-0.0082-0.1547 0-0.2317 0.0295-0.205 0.0918-0.4042 0.1844-0.59 0.1285-0.2978 0.4582-0.8769 0.6034-1.103 0.1151 0.1186 0.2603 0.2047 0.4204 0.2493s0.3294 0.0461 0.4904 0.0044c0.1217-0.034 0.2346-0.0935 0.331-0.1744s0.174-0.1813 0.2277-0.2943c0.1224-0.3351 0.1224-0.7018 0-1.0368l-0.2012-0.7279c-0.0064-0.0208-0.0203-0.0384-0.0391-0.0497-0.0097-0.0041-0.0201-0.0062-0.0307-0.0062s-0.021 0.0021-0.0307 0.0062l-3.0731 0.8548c-0.021 0.0063-0.0389 0.0201-0.0502 0.0386-0.0058 0.0198-0.0058 0.0408 0 0.0607l0.1341 0.4853c0.0022 0.0106 0.0069 0.0206 0.0137 0.0292s0.0155 0.0156 0.0254 0.0204c0.0097 0.0041 0.0201 0.0062 0.0307 0.0062s0.021-0.0021 0.0307-0.0062l1.1845-0.3309c0.0336 0.1048 0.0727 0.204 0.1118 0.2978l-0.0838 0.1324c-0.2593 0.4045-0.4783 0.833-0.6537 1.2794-0.0845 0.2282-0.0962 0.4764-0.0336 0.7114 0.0196 0.0799 0.0477 0.1575 0.0838 0.2316 0.0534 0.0846 0.1172 0.1624 0.19 0.2316zm1.9444-3.3364v0.0607c0.0391 0.1654 0.1285 0.7114-0.3967 0.8603-0.0675 0.0228-0.1391 0.0316-0.2102 0.0259-0.0712-0.0057-0.1403-0.0258-0.2033-0.059-0.1841-0.136-0.3145-0.331-0.3687-0.5515z" clip-path="url(#clipPath770)"/>
  <path transform="translate(5.3895 7.5)" d="m9.9509 19.925h0.06147c0.0108-0.0026 0.0206-0.0081 0.0285-0.0159s0.0135-0.0175 0.0162-0.0282l0.7263-1.5165c0.0082-0.0214 0.0082-0.0449 0-0.0662-0.0082-0.0183-0.0218-0.0336-0.0391-0.0441l-0.2458-0.1158c-0.0092-0.0048-0.0192-0.0077-0.0295-0.0087-0.0103-9e-4 -0.0207 2e-4 -0.0306 0.0033s-0.019 0.0081-0.0269 0.0147c-8e-3 0.0066-0.0145 0.0147-0.0192 0.0238l-0.4749 0.9981-0.92191-0.4191 0.34083-0.7114c0.00823-0.0199 0.0088-0.0421 0.00159-0.0624-0.0072-0.0204-0.02168-0.0374-0.0407-0.0479l-0.24584-0.1213c-0.01939-0.0078-0.04103-0.0082-0.06068-0.0011-0.01965 0.0072-0.03587 0.0213-0.04548 0.0397l-0.34083 0.7169-0.92191-0.4467 0.47492-1.0202c0.00792-0.0191 0.0083-0.0405 0.00106-0.0599s-0.02157-0.0354-0.04017-0.0449l-0.25143-0.1213c-0.00971-0.0041-0.02017-0.0062-0.03073-0.0062s-0.02102 0.0021-0.03073 0.0062c-0.01889 0.0101-0.03441 0.0255-0.0447 0.0441l-0.72076 1.511c-0.01003 0.0191-0.01214 0.0413-0.00588 0.0619s0.02039 0.0379 0.0394 0.0484z" clip-path="url(#clipPath764)"/>
  <path transform="translate(5.3895 7.5)" d="m11.733 16.5c0.0143 0.0055 0.0303 0.0055 0.0447 0 0.0203-0.0045 0.0382-0.0163 0.0502-0.0331l0.1677-0.2537c0.0074-0.0072 0.0133-0.0157 0.0173-0.0252 0.0041-0.0095 0.0061-0.0196 0.0061-0.0299s-2e-3 -0.0205-0.0061-0.0299c-4e-3 -0.0095-0.0099-0.0181-0.0173-0.0253l-2.0562-1.3731 3.5089-0.739c0.0203-0.0045 0.0383-0.0163 0.0503-0.0331l0.0838-0.1213c0.0131-0.0165 0.0203-0.0369 0.0203-0.0579s-0.0072-0.0414-0.0203-0.0579l-2.6875-1.7592c-0.0085-0.0048-0.0182-0.0074-0.028-0.0074s-0.0194 0.0026-0.0279 0.0074c-0.0106 8e-4 -0.0207 0.0042-0.0296 0.01-0.0088 0.0058-0.0159 0.0138-0.0207 0.0231l-0.1676 0.2537c-0.0138 0.0151-0.0214 0.0348-0.0214 0.0551 0 0.0204 0.0076 0.04 0.0214 0.0552l1.8382 1.2242-3.1177 0.6232c-0.02282 0.0056-0.04273 0.0193-0.05587 0.0386l-0.25143 0.3805c-0.00574 0.0198-0.00574 0.0408 0 0.0607 0.00453 0.02 0.01649 0.0377 0.03353 0.0496z" clip-path="url(#clipPath758)"/>
  <path transform="translate(5.3895 7.5)" d="m14.527 10.649v-0.0772 0.0772c0.3575-0.0937 0.6649-0.171 0.8492 0 0.0386 0.0409 0.0706 0.0874 0.095 0.1379 0.0288 0.06 0.0404 0.1268 0.0335 0.1929s-0.032 0.129-0.0726 0.1821l-0.0615 0.0661-0.1061 0.0938c-0.2255 0.1311-0.4905 0.1799-0.7487 0.1379h-0.1732c-0.0166-1e-4 -0.0329 0.0039-0.0475 0.0116-0.0147 0.0077-0.0271 0.0189-0.0363 0.0325-0.0096 0.0138-0.0148 0.0301-0.0148 0.0469 0 0.0167 0.0052 0.033 0.0148 0.0468l0.419 0.4247c0.0088 0.0039 0.0183 6e-3 0.028 6e-3 0.0096 0 0.0191-0.0021 0.0279-6e-3h0.0335c0.3008-0.0228 0.5838-0.1498 0.799-0.3585 0.2087-0.2012 0.3493-0.4613 0.4023-0.7445 0.0258-0.137 0.018-0.2781-0.0228-0.4114-0.0409-0.1334-0.1135-0.2552-0.2119-0.3551-0.1945-0.1634-0.4339-0.26588-0.6877-0.29436-0.2537-0.02849-0.5103 0.01831-0.737 0.13441-0.3632 0.10475-0.6426 0.19305-0.827 0-0.0261-0.01989-0.0504-0.04204-0.0726-0.06617-0.0301-0.06294-0.0419-0.13289-0.034-0.20204s0.0352-0.13476 0.0787-0.18951c0.0135-0.01606 0.0284-0.03083 0.0447-0.04412 0.0253-0.02678 0.0534-0.05081 0.0838-0.07169 0.2005-0.11048 0.4315-0.15491 0.6593-0.12684h0.1565c0.0162 0.00355 0.0332 1e-3 0.0477-0.00715 0.0144-0.00816 0.0253-0.02133 0.0305-0.03696 0.0091-0.01295 0.014-0.02835 0.014-0.04412 0-0.01578-0.0049-0.03117-0.014-0.04412l-0.4023-0.4136c-0.0113-0.00538-0.0238-0.00817-0.0363-0.00817-0.0126 0-0.025 0.00279-0.0363 0.00817-0.2704 0.04789-0.5176 0.18148-0.7041 0.38051-0.1727 0.17112-0.2878 0.39065-0.3296 0.62868-0.0232 0.12842-0.0161 0.26038 0.0207 0.38568s0.1024 0.2405 0.1916 0.3367c0.1853 0.151 0.41 0.2471 0.6483 0.2773 0.2382 0.0303 0.4803-0.0066 0.6983-0.1063z" clip-path="url(#clipPath752)"/>
  <path transform="translate(5.3895 7.5)" d="m17.779 9.4798c0.0074 0.01062 0.0175 0.01921 0.0292 0.02499s0.0247 0.00857 0.0378 0.0081h0.0447l0.4023-0.29228c0.0161-0.01276 0.0278-0.03009 0.0335-0.04963 0.0042-0.00959 0.0063-0.01991 0.0063-0.03033 0-0.01043-0.0021-0.02075-0.0063-0.03033l-1.8606-2.614c-0.0062-0.00801-0.0143-0.0145-0.0235-0.01897-0.0092-0.00446-0.0193-0.00678-0.0295-0.00678-0.0103 0-0.0204 0.00232-0.0296 0.00678-0.0092 0.00447-0.0173 0.01096-0.0235 0.01897l-0.4079 0.29228c-0.017 0.01185-0.029 0.02954-0.0335 0.04963-0.0058 0.01982-0.0058 0.04084 0 0.06066z" clip-path="url(#clipPath746)"/>
  <path transform="translate(5.3895 7.5)" d="m20.17 6.4191v-0.08272 0.08272c0.3631 0.03861 0.6816 0.07169 0.7878 0.31986 0.0203 0.04361 0.0335 0.09015 0.0391 0.13786 0.0086 0.07663-0.0065 0.15405-0.0434 0.222-0.0369 0.06796-0.0939 0.12323-0.1633 0.15852h-0.0392l-0.1341 0.04963c-0.2563 0.03541-0.5173-0.01302-0.7431-0.13787l-0.1508-0.08823c-0.014-0.00949-0.0306-0.01457-0.0475-0.01457-0.017 0-0.0335 0.00508-0.0475 0.01457-0.011 0.01213-0.0171 0.02784-0.0171 0.04412 0 0.01627 0.0061 0.03198 0.0171 0.04411l0.2347 0.55147c0.0106 0.01702 0.0262 0.03047 0.0447 0.03861 0.1127 0.04014 0.2321 0.05885 0.352 0.05514 0.1916 0.00407 0.3819-0.03163 0.5587-0.10478 0.2673-0.09645 0.4873-0.28996 0.615-0.54105 0.1278-0.25109 0.1536-0.54081 0.0722-0.81005-0.1255-0.2216-0.3142-0.40193-0.5427-0.5186-0.2284-0.11667-0.4866-0.16453-0.7424-0.13765-0.3743-0.02757-0.6704-0.04963-0.771-0.28676-0.0171-0.03636-0.0266-0.07575-0.0279-0.11581-0.0036-0.05742 0.0067-0.11485 0.0301-0.16757 0.0233-0.05272 0.0589-0.09924 0.104-0.13574l0.0558-0.02758 0.1062-0.0386c0.2285-0.03224 0.4614 0.00833 0.6649 0.11581l0.1397 0.07169c0.0135 0.00775 0.029 0.01182 0.0447 0.01182s0.0311-0.00407 0.0447-0.01182c0.0091-0.01294 0.014-0.02834 0.014-0.04412 0-0.01577-0.0049-0.03117-0.014-0.04411l-0.2291-0.55147c-6e-3 -0.01162-0.0147-0.02167-0.0254-0.02933-0.0107-0.00767-0.023-0.01274-0.0361-0.01479-0.2594-0.04372-0.5262-0.00912-0.7654 0.09926-0.2149 0.10169-0.3954 0.26258-0.5197 0.46324-0.0739 0.11796-0.1175 0.2519-0.1273 0.39025-0.0097 0.13835 0.0148 0.27696 0.0715 0.40387 0.2123 0.52389 0.7542 0.57904 1.1901 0.62867z" clip-path="url(#clipPath740)"/>
  <path transform="translate(5.3895 7.5)" d="m8.4983 23.608-1.1678-0.4026c0.02793-0.1048 0.05587-0.2096 0.07263-0.3088l0.14527-0.0607c0.44708-0.1757 0.87409-0.3975 1.2739-0.6618 0.20483-0.1402 0.35627-0.344 0.43022-0.579 0.02893-0.0729 0.04955-0.1487 0.06146-0.2261 0.00631-0.1111-0.00309-0.2224-0.02794-0.3309-0.00366-0.0166-0.01276-0.0315-0.02589-0.0425-0.01313-0.0109-0.02956-0.0173-0.04674-0.0182-0.01594-7e-4 -0.03177 3e-3 -0.04563 0.0108-0.01386 0.0079-0.02516 0.0194-0.03259 0.0334-0.02769 0.0727-0.06528 0.1413-0.11175 0.204-0.14217 0.1551-0.30808 0.2872-0.49169 0.3915-0.22908 0.1434-0.73194 0.3971-1.1175 0.5846-0.03356-0.1597-0.10903-0.308-0.21884-0.4299-0.10982-0.122-0.25014-0.2133-0.40694-0.2649-0.12031-0.0489-0.2504-0.0699-0.38021-0.0613s-0.25589 0.0466-0.36849 0.1109c-0.28214 0.2113-0.47994 0.5139-0.55874 0.8548l-0.24584 0.7114c-0.00585 0.0205-0.00398 0.0424 0.00526 0.0616 0.00924 0.0193 0.02524 0.0346 0.04503 0.0431l3.0004 1.0368h0.03911c0.01724-0.0105 0.03087-0.0259 0.03911-0.0441l0.18439-0.5074c0.0072-0.0204 0.00597-0.0429-0.00344-0.0625-0.0094-0.0196-0.02623-0.0348-0.04685-0.0422zm-1.5421-0.5515-1.1175-0.3916v-0.0606c0.06146-0.1599 0.29613-0.6618 0.81016-0.4853 0.13787 0.0419 0.254 0.1347 0.32407 0.2592 0.07883 0.228 0.07289 0.4763-0.01676 0.7003z" clip-path="url(#clipPath734)"/>
  <path transform="translate(5.3895 7.5)" d="m23.662 16.66c-0.0345 0.0359-0.0612 0.0784-0.0785 0.1249s-0.0248 0.0959-0.0221 0.1453c3e-4 0.0489 0.0109 0.0972 0.0311 0.1418s0.0496 0.0846 0.0863 0.1174c0.0685 0.0667 0.1607 0.1043 0.257 0.1048 0.0518 6e-4 0.1031-0.01 0.1504-0.0309 0.0473-0.021 0.0894-0.0518 0.1234-0.0904 0.0352-0.0357 0.0628-0.078 0.081-0.1244 0.0182-0.0465 0.0268-0.0961 0.0251-0.1458-8e-4 -0.0496-0.0116-0.0985-0.0318-0.144-0.0201-0.0454-0.0492-0.0865-0.0855-0.1207-0.036-0.0347-0.0788-0.0618-0.1257-0.0795-0.047-0.0178-0.0971-0.0259-0.1473-0.0238-0.0503 0.0021-0.0995 0.0142-0.1448 0.0358-0.0453 0.0215-0.0857 0.052-0.1186 0.0895z" clip-path="url(#clipPath728)"/>
  <path transform="translate(5.3895 7.5)" d="m26.216 28.676c-0.1285-0.5515-0.257-0.9816-0.3911-1.4063-0.1449-0.4705-0.3165-0.9327-0.514-1.3842-0.0098-0.0214-0.027-0.0387-0.0485-0.0488-0.0214-0.01-0.0459-0.0123-0.0689-0.0063-0.0156 0.0089-0.0285 0.0218-0.0374 0.0373-0.0088 0.0155-0.0133 0.0331-0.0129 0.0509 0.0348 0.4901 0.0963 0.9779 0.1844 1.4614 0.0783 0.4412 0.1732 0.91 0.3017 1.4338 0.1286 0.5239 0.2571 0.9762 0.3967 1.4063 0.1441 0.4708 0.3157 0.933 0.5141 1.3842 0.0083 0.0164 0.021 0.0303 0.0368 0.0401 0.0158 0.0097 0.034 0.0149 0.0526 0.015 0.0226-7e-3 0.0424-0.0209 0.0564-0.0397 0.0141-0.0189 0.0217-0.0416 0.0218-0.065-0.0337-0.4923-0.0972-0.9821-0.19-1.467-0.0782-0.4301-0.1732-0.8989-0.3017-1.4117z" clip-path="url(#clipPath722)"/>
  <path transform="translate(5.3895 7.5)" d="m28.803 33.601c-0.0245 1e-3 -0.0479 0.0103-0.0662 0.0264-0.0184 0.0161-0.0305 0.0379-0.0344 0.0618-0.0949 0.7611-0.1508 1.5331-0.2067 2.2776 0 0.1875-0.0335 0.3805-0.0447 0.5515v0.0992c-0.0782 0.8879-0.1564 1.8089-0.2961 2.6912-0.1071 0.9049-0.3697 1.7852-0.7767 2.603-0.1051 0.1838-0.2327 0.3542-0.3799 0.5073-0.1392 0.1515-0.3036 0.2783-0.4861 0.375-0.3983 0.1949-0.8412 0.2842-1.2851 0.2592-0.0234 0.0016-0.0458 0.0105-0.0638 0.0253-0.0181 0.0149-0.0309 0.035-0.0367 0.0574-2e-3 0.023 0.0035 0.046 0.0155 0.0658s0.03 0.0354 0.0515 0.0445c0.2591 0.0873 0.5309 0.132 0.8046 0.1324 0.2409 1e-4 0.4803-0.0371 0.7096-0.1103 0.5029-0.1935 0.9324-0.5366 1.2292-0.9816 0.2944-0.4214 0.5224-0.8843 0.676-1.3732 0.1498-0.4726 0.2637-0.9556 0.3409-1.4448 0.1391-0.9624 0.1952-1.9346 0.1676-2.9063-0.0167-0.9619-0.0969-1.9216-0.2403-2.8732-0.0033-0.0204-0.0124-0.0396-0.0262-0.0552s-0.0319-0.027-0.052-0.033z" clip-path="url(#clipPath716)"/>
  <path transform="translate(5.3895 7.5)" d="m28.82 31.864c0.0239-0.0012 0.0466-0.0107 0.064-0.0269s0.0284-0.0379 0.031-0.0614c0.1174-0.7114 0.2012-1.4283 0.2794-2.1231l0.0391-0.3475c0.0838-0.7389 0.1676-1.4944 0.2458-2.2444 0.095-0.9045 0.1621-1.6545 0.2235-2.3548 0.0559-0.7721 0.1174-1.5717 0.1174-2.3713 5e-4 -0.023-0.0069-0.0454-0.0212-0.0635-0.0142-0.0181-0.0344-0.0307-0.0571-0.0358-0.0234-0.0028-0.0471 0.0022-0.0673 0.0142-0.0203 0.0119-0.0359 0.0302-0.0444 0.052-0.2587 0.7599-0.4677 1.5354-0.6258 2.3217-0.1564 0.7775-0.2793 1.5772-0.3632 2.3713-0.0817 0.797-0.1208 1.5978-0.1173 2.3989-6e-4 0.8072 0.0648 1.6131 0.1956 2.4099 0.0088 0.0188 0.023 0.0346 0.0409 0.0454s0.0387 0.0161 0.0596 0.0153z" clip-path="url(#clipPath710)"/>
  <path transform="translate(5.3895 7.5)" d="m26.322 32.129c-0.0207-0.0089-0.0438-0.0106-0.0656-0.0048-0.0219 0.0057-0.0411 0.0185-0.0546 0.0363-0.0136 0.0179-0.0207 0.0397-0.0201 0.062 5e-4 0.0222 0.0086 0.0437 0.023 0.0609 0.2713 0.276 0.6015 0.4889 0.9666 0.6231 0.3597 0.1335 0.7353 0.2206 1.1175 0.2592 0.2235 0 0.4526 0.0331 0.6816 0.0331 0.5219-0.0017 1.0423-0.0553 1.5533-0.1599 0.7282-0.1394 1.4372-0.3634 2.112-0.6673 0.6883-0.2904 1.3198-0.6972 1.8662-1.2022 0.015-0.0178 0.0232-0.0403 0.0232-0.0634 0-0.0232-0.0082-0.0456-0.0232-0.0634-0.0127-0.0196-0.0323-0.0338-0.055-0.0399-0.0227-0.0062-0.0469-0.0037-0.0679 0.0068-0.6395 0.2954-1.2984 0.5478-1.9724 0.7555-0.6654 0.2096-1.3426 0.3808-2.0282 0.5129-0.6768 0.1394-1.3649 0.2187-2.0561 0.2371-0.6887 0.0346-1.3755-0.0979-2.0003-0.386z" clip-path="url(#clipPath704)"/>
  <path transform="translate(5.3895 7.5)" d="m14.829 40.456c-0.1505 0.0128-0.2959 0.06-0.4247 0.1379-0.0189 0.0121-0.0335 0.0298-0.0415 0.0506-0.0081 0.0209-0.0092 0.0437-0.0032 0.0652 0.0448 0.145 0.1211 0.2786 0.2235 0.3915 0.0847 0.0845 0.1853 0.152 0.2961 0.1985 0.0977 0.0392 0.202 0.0597 0.3074 0.0607h0.0502c0.1523-0.0083 0.3002-0.0538 0.4303-0.1324 0.0179-0.0128 0.0314-0.0309 0.0384-0.0517 7e-3 -0.0207 0.0072-0.0431 7e-4 -0.0641-0.0383-0.1464-0.1133-0.281-0.2179-0.3915-0.084-0.0893-0.1871-0.159-0.3017-0.2041-0.1134-0.0455-0.2354-0.0662-0.3576-0.0606z" clip-path="url(#clipPath698)"/>
  <path transform="translate(5.3895 7.5)" d="m36.144 56.961c0.16-0.5028 0.2888-1.0148 0.3856-1.5331 0.0502-0.2426 0.0949-0.5018 0.1341-0.772v-0.0607c0.0391-0.2371 0.0726-0.4632 0.1173-0.6893 0.1502-0.9451 0.534-1.8391 1.1175-2.603 0.3041-0.3731 0.664-0.6985 1.0671-0.9651 0.3446-0.2175 0.7095-0.4022 1.0896-0.5514l0.095 0.3584 0.229 0.8548c0.0161 0.061 0.0462 0.1176 0.0878 0.1653 0.0416 0.0478 0.0938 0.0856 0.1525 0.1104 0.0517 0.0241 0.1079 0.0371 0.165 0.0383 0.0572 0.0012 0.1139-0.0095 0.1666-0.0314 0.0526-0.0218 0.1001-0.0543 0.1392-0.0954s0.0691-0.0898 0.0879-0.1431c0.1732-0.4246 0.3353-0.8713 0.5029-1.3566 0.088 0.1157 0.1612 0.2416 0.2179 0.375 0.1255 0.275 0.1829 0.5756 0.1676 0.8769-0.0113 0.2974-0.0875 0.589-0.2235 0.8547-0.1193 0.2624-0.2881 0.5001-0.4973 0.7004-0.1751 0.1636-0.3618 0.3147-0.5587 0.4522l-0.1676 0.1158c-0.2963 0.2025-0.5731 0.4314-0.8269 0.6838l-0.1006 0.0993-0.095 0.1158c-0.0603 0.074-0.1163 0.1513-0.1676 0.2316-0.1021 0.1528-0.1954 0.3111-0.2794 0.4743-0.1575 0.3218-0.2938 0.6534-0.4079 0.9926-0.0327 0.0984-0.0274 0.2051 0.0149 0.2998s0.1186 0.1706 0.2142 0.2131l0.4861 0.2206-0.1732 0.1599-0.7319 0.5956c-0.2626 0.2316-0.5588 0.4743-0.7878 0.7169v-0.0772-0.8272c0-0.5845 0-1.1029-0.0447-1.6544-0.0014-0.0244-0.0118-0.0475-0.0293-0.0648-0.0176-0.0173-0.041-0.0276-0.0657-0.029-0.0243-0.0015-0.0483 0.0062-0.0671 0.0216-0.0187 0.0154-0.0307 0.0373-0.0335 0.0612-0.0838 0.5184-0.1564 1.0533-0.2235 1.6544-0.0335 0.2978-0.067 0.5515-0.0894 0.8217l-0.0838 0.8161c-0.0058 0.0411-0.0028 0.083 0.0087 0.1228 0.0116 0.0399 0.0314 0.077 0.0584 0.1089 0.0251 0.0326 0.0566 0.0599 0.0927 0.0801 0.0361 0.0203 0.076 0.0332 0.1172 0.0378 0.0413 0.0046 0.083 1e-3 0.1228-0.0108 0.0398-0.0117 0.0767-0.0313 0.1087-0.0575l0.4749-0.375c0.3073-0.2426 0.6202-0.4908 0.9219-0.739l0.6928-0.5514 0.5029-0.4026 0.2235-0.1875c0.0464-0.0423 0.0843-0.0928 0.1117-0.1489 0.0419-0.1007 0.0419-0.2137 0-0.3144-0.0398-0.105-0.1202-0.1903-0.2235-0.2371l-0.7207-0.3309c0.0726-0.182 0.1452-0.3584 0.2234-0.5514 0.0667-0.1366 0.1413-0.2691 0.2235-0.3971 0.0352-0.0613 0.0744-0.1202 0.1174-0.1765l0.1397-0.1654c0.2115-0.2278 0.4434-0.4364 0.6928-0.6232l0.1229-0.0937 0.285-0.2151c0.1405-0.1201 0.2747-0.2471 0.4022-0.3805 0.2461-0.2842 0.4357-0.6116 0.5588-0.9651 0.1338-0.3519 0.1909-0.7277 0.1676-1.1029-0.0326-0.3717-0.1532-0.7306-0.352-1.0478-0.1219-0.1874-0.2727-0.3549-0.447-0.4963 0.162-0.4964 0.3185-1.0203 0.4973-1.6545 0.0503-0.1764 0.095-0.3529 0.1397-0.5514 0.1649-0.0623 0.312-0.1634 0.4283-0.2945 0.1164-0.1311 0.1985-0.2883 0.2393-0.4579 0.0407-0.1696 0.0389-0.3465-0.0054-0.5152-0.0443-0.1688-0.1297-0.3243-0.2488-0.453 0.095-0.4191 0.1677-0.7721 0.2347-1.1029 0.4467-2.271 0.7231-4.5713 0.8269-6.8824 0-0.5018 0.0336-1.0313 0.0391-1.6544 0.1803-0.088 0.332-0.2239 0.4381-0.3925 0.106-0.1686 0.1623-0.3631 0.1623-0.5616 0-0.1984-0.0563-0.3929-0.1623-0.5615-0.1061-0.1686-0.2578-0.3045-0.4381-0.3925-0.0335-1.0313-0.1117-2.1287-0.2458-3.3529-0.1006-0.8769-0.2347-1.7923-0.4079-2.7243 0.1689-0.0962 0.3093-0.2344 0.4074-0.4008 0.098-0.1664 0.1502-0.3553 0.1514-0.5477-0.0039-0.2552-0.102-0.5001-0.2758-0.689-0.1739-0.1889-0.4116-0.3086-0.6685-0.3368-0.1676-0.7169-0.352-1.4228-0.5587-2.0956v-0.0386c-0.0136-0.0323-0.0341-0.0614-0.0602-0.0852-0.026-0.0238-0.057-0.0418-0.0907-0.0526-0.0317-0.0137-0.066-0.0208-0.1006-0.0208s-0.0688 0.0071-0.1005 0.0208c-0.621 0.2837-1.257 0.534-1.9053 0.75-0.5196 0.1764-1.0784 0.3474-1.6762 0.5239-0.285-1.4339-0.6593-2.9339-1.1175-4.5772-0.2123-0.7611-0.4693-1.5221-0.7152-2.2611-0.2849-0.8272-0.5587-1.5661-0.8716-2.2445-0.3218-0.7688-0.7547-1.4876-1.2851-2.1341-0.1458-0.1667-0.3066-0.3199-0.4805-0.4578-0.2015-0.1763-0.4494-0.2929-0.7152-0.3364-0.1563-0.0197-0.3153-0.0027-0.4637 0.0497-0.1382 0.0505-0.2639 0.1295-0.3688 0.2316-0.0924 0.0806-0.1733 0.1734-0.2402 0.2757l-0.1788 0.2537c-0.9204 1.371-1.428 2.9715-1.4639 4.6158-2e-4 0.0245 0.0089 0.0482 0.0254 0.0666 0.0165 0.0183 0.0393 0.0299 0.064 0.0327 0.0256 0.0019 0.051-0.0055 0.0716-0.0207 0.0205-0.0152 0.0348-0.0373 0.0401-0.062 0.1152-0.7819 0.3215-1.548 0.6146-2.2831 0.1466-0.3553 0.3184-0.6999 0.5141-1.0313 0.1895-0.3323 0.4023-0.6511 0.6369-0.954 0.0559-0.0772 0.1118-0.1489 0.1732-0.2206 0.0466-0.0584 0.099-0.112 0.1565-0.1599 0.0331-0.0332 0.0735-0.0585 0.1181-0.0738 0.0445-0.0153 0.0921-0.0202 0.1389-0.0145 0.1235 0.0347 0.2354 0.1013 0.3241 0.193 0.1319 0.1143 0.2534 0.2398 0.3631 0.375 0.231 0.2893 0.4366 0.5974 0.6147 0.921 0.1893 0.3347 0.3608 0.6789 0.514 1.0312 0.3352 0.7556 0.6314 1.5221 0.8772 2.1783 0.19 0.4964 0.3799 1.0092 0.5587 1.5 0.0894 0.2427 0.1788 0.4853 0.2626 0.7225l0.3353 0.8658c0.419 1.1691 0.8492 2.3823 1.3018 3.568h-0.0726c-0.5587 0.1489-1.151 0.2978-1.8271 0.4467-0.1955-0.3143-0.419-0.6783-0.6425-1.0313-0.162-0.2536-0.3241-0.5073-0.4917-0.7555l-0.2067-0.3198-0.5085-0.7721-0.5587-0.8327-0.3464-0.4412-0.0391-0.0551c-0.4605-0.6439-1.0823-1.1588-1.8047-1.4945-0.3572-0.1672-0.7319-0.2948-1.1175-0.3805-0.3028-0.0629-0.5886-0.1889-0.8381-0.3695-0.2351-0.1822-0.426-0.414-0.5587-0.6783-0.0722-0.1367-0.1284-0.281-0.1677-0.4302v-0.0882l-0.1005-0.4246c-0.19-0.7556-0.3632-1.4394-0.5588-2.1453-0.0503-0.1489-0.1173-0.3474-0.1955-0.5514-0.0775-0.1902-0.169-0.3745-0.2738-0.5515-0.2095-0.3718-0.5114-0.6849-0.8772-0.9099-0.3682-0.2125-0.786-0.3265-1.2125-0.3309-0.3991 0.0022-0.796 0.0598-1.1789 0.1709l-0.1844 0.0607-0.352 0.1268c-0.1941 0.0711-0.3811 0.1597-0.5587 0.2648-0.3386 0.2032-0.6391 0.4625-0.8884 0.7665-0.1219 0.1515-0.2321 0.3119-0.3296 0.4798-0.098 0.1743-0.1749 0.3594-0.2291 0.5514-0.1099 0.373-0.1252 0.7669-0.0447 1.1471 0.0085 0.1561 0.031 0.3111 0.067 0.4632 0.0447 0.16 0.0894 0.3089 0.1397 0.4467 0.0213 0.0599 0.0556 0.1145 0.1006 0.16l0.067 0.0661 0.4917 0.353c0.0335 0.2095 0.0726 0.4191 0.1118 0.6231 0 0.1048 0.0447 0.2096 0.0614 0.3144l0.0503 0.2206c0.0175 0.0809 0.0666 0.1518 0.1367 0.1972s0.1555 0.0617 0.2377 0.0454l0.4637-0.0827c0.1966 0.2225 0.4199 0.4206 0.6649 0.5901 0.3041 0.2103 0.6627 0.3308 1.0337 0.3474h0.0838c0.0366 4e-4 0.0729-0.0067 0.1066-0.0209 0.0337-0.0143 0.064-0.0353 0.0889-0.0618 0.2226-0.2528 0.3951-0.5447 0.5085-0.8603 0.1051-0.3026 0.1672-0.6181 0.1843-0.9375 0-0.0234-0.0077-0.0462-0.0217-0.065-0.0141-0.0189-0.0339-0.0328-0.0565-0.0398-0.0113-0.0034-0.0233-0.0045-0.0351-0.0032-0.0118 0.0012-0.0232 0.0048-0.0336 0.0104s-0.0196 0.0133-0.027 0.0225c-0.0074 0.0091-0.0128 0.0197-0.016 0.031-0.1635 0.5012-0.434 0.9619-0.7934 1.3511-0.2427-0.0484-0.4704-0.1523-0.6649-0.3033-0.228-0.1681-0.4311-0.3667-0.6034-0.5901l-0.0336-0.0441c-0.0374-0.046-0.0868-0.0811-0.1429-0.1015s-0.1168-0.0254-0.1755-0.0143l-0.3576 0.0772c0-0.0773-0.0391-0.1489-0.0559-0.2206-0.0559-0.2041-0.1062-0.4081-0.1676-0.6122l-0.0391-0.1268c-0.0085-0.0321-0.0239-0.0619-0.0451-0.0876s-0.0478-0.0466-0.0779-0.0613l-0.3911-0.2096-0.3017-0.1268-0.2235-0.4026c-0.0447-0.0937-0.0894-0.193-0.1285-0.2867 0.2905-0.0552 0.5867-0.1158 0.9052-0.1986l0.5084-0.1323h0.0335l0.1788-0.0441 0.1788-0.0386c0.2871-0.0098 0.5713 0.0589 0.8214 0.1985 0.1303 0.0729 0.2521 0.1598 0.3631 0.2592 0.0626 0.056 0.1447 0.0856 0.2291 0.0827 0.0521-4e-4 0.1035-0.0117 0.1509-0.0331l0.4525-0.2316 0.1341-0.0772 0.2682 0.7114c0.0226 0.0559 0.0615 0.1039 0.1118 0.1379l0.2682 0.1819c0.4972 0.3309 0.9163 0.5956 1.3242 0.8272 0.0571 0.1903 0.1319 0.3749 0.2235 0.5515 0.2029 0.3763 0.4894 0.7024 0.8381 0.9541 0.0625 0.0461 0.1278 0.0884 0.1955 0.1268-0.0024 0.0109-0.0024 0.0222 0 0.0331v0.0331c-0.0883 0.4269-0.2509 0.8355-0.4805 1.2077-0.1168 0.1549-0.2651 0.284-0.4354 0.379s-0.3589 0.1537-0.5536 0.1725c-0.0631 0.0059-0.1267 0.0059-0.1899 0h-0.4302c-0.1837-9e-3 -0.363-0.058-0.5253-0.1434-0.157-0.0884-0.2931-0.209-0.3991-0.3535-0.106-0.1446-0.1795-0.3099-0.2155-0.4847-0.013-0.061-0.041-0.1178-0.0815-0.1656-0.0405-0.0477-0.0923-0.085-0.1507-0.1084-0.0585-0.0234-0.1219-0.0323-0.1847-0.0259-0.0627 0.0065-0.1229 0.028-0.1753 0.0627-0.4582 0.2537-0.8269 0.4743-1.2069 0.7335-0.4231 0.2722-0.8213 0.5803-1.1901 0.9209-0.2152 0.1916-0.3915 0.4218-0.5196 0.6783-0.0263 0.0498-0.0487 0.1014-0.0671 0.1545 0.0043 0.0181 0.0043 0.037 0 0.0551v0.0607c-0.0173 0.0413-0.0323 0.0837-0.0447 0.1268-0.0078 0.0413-0.019 0.0818-0.0335 0.1213-0.0233 0.0798-0.042 0.1608-0.0559 0.2427-0.111 0.48-0.1931 0.9662-0.2458 1.4559-0.0726 0.5514-0.1117 1.0202-0.1341 1.4448-0.0028 0.033-0.0028 0.0662 0 0.0993-0.6306-0.8345-1.1823-1.7242-1.6483-2.6581-0.5692-1.067-1.0512-2.1772-1.4415-3.3199l-0.0503-0.1599c-0.0335-0.0937-0.0614-0.182-0.0894-0.2702l-0.1173-0.4357c0-0.0882-0.0447-0.1709-0.0726-0.2537-0.0559-0.204-0.1174-0.4136-0.1621-0.6286l-0.2067-0.8824v-0.0993c-0.0447-0.2647-0.095-0.5514-0.1509-0.7996l-0.0838-0.4412c-0.0166-0.0931-0.0049-0.1891 0.0336-0.2757 0.0301-0.0866 0.0892-0.1606 0.1676-0.2096 0.035-0.0185 0.0727-0.0315 0.1117-0.0386h0.2068c0.2916-0.011 0.5837 0.0075 0.8716 0.0552 0.2558 0.0406 0.5095 0.094 0.7599 0.1599 0.0349 0.5189 0.1402 1.0308 0.3128 1.5221 0.2637 0.7666 0.7399 1.4448 1.3745 1.9577 0.0178 0.0175 0.0419 0.0273 0.0671 0.0273 0.0251 0 0.0492-0.0098 0.067-0.0273 0.0165-0.0182 0.0256-0.0418 0.0256-0.0662s-0.0091-0.048-0.0256-0.0662c-0.4956-0.5651-0.8446-1.2408-1.0169-1.9687-0.1889-0.7089-0.2269-1.4487-0.1117-2.1728l0.0503-0.2647 0.0447-0.1599 0.0335-0.1048c0.0309-0.1226 0.072-0.2425 0.1229-0.3585 0.0162-0.0487 0.0348-0.0965 0.0559-0.1434 0.0177-0.0497 0.0401-0.0977 0.067-0.1433l0.0391-0.0883 0.0503-0.0937c0.0206-0.0488 0.0468-0.0951 0.0783-0.1379l0.067-0.1103c0.0711-0.1168 0.1495-0.2291 0.2347-0.3364 0.2094-0.2772 0.4513-0.5289 0.7207-0.75l0.1565-0.1158c0.0881-0.0711 0.1815-0.1356 0.2793-0.193l0.2235-0.1324 0.2403-0.1158c0.6415-0.2987 1.3483-0.435 2.0565-0.3965s1.3956 0.2506 1.9999 0.6171c0.0658 0.0365 0.1293 0.0771 0.19 0.1213l0.0838 0.0607 0.1341 0.0938 0.257 0.2205 0.0503 0.0442 0.2905 0.2867 0.257 0.3199 0.2291 0.3419c0.3884 0.6479 0.6251 1.3733 0.6928 2.1232 0.0028 0.0243 0.0146 0.0468 0.0332 0.0631 0.0185 0.0163 0.0426 0.0252 0.0674 0.0251 0.0248-0.0013 0.0482-0.0116 0.0657-0.0289s0.028-0.0404 0.0293-0.0649c0.0634-0.8089-0.0868-1.6202-0.4358-2.3547-0.3621-0.7432-0.9125-1.3815-1.598-1.853-0.6895-0.4773-1.495-0.7656-2.3342-0.8354-0.8393-0.0697-1.6823 0.0815-2.443 0.4384-0.7687 0.3602-1.4299 0.9106-1.9195 1.5977-0.4895 0.687-0.7906 1.4873-0.8741 2.3232-0.0141 0.202-0.0141 0.4047 0 0.6066-0.2111-0.1012-0.4275-0.1914-0.6482-0.2702-0.3062-0.1006-0.623-0.1672-0.9442-0.1985h-0.2682c-0.1103 0.0046-0.2186 0.0309-0.3185 0.0772-0.202 0.0883-0.3676 0.242-0.4693 0.4357-0.1078 0.1895-0.1564 0.4063-0.1397 0.6231 0 0.1103 0.0112 0.2151 0.0335 0.3144v0.2426c0.028 0.2813 0.0615 0.5515 0.1062 0.8548l0.1676 0.9209c0.0391 0.2206 0.095 0.4412 0.1509 0.6508l0.067 0.2757 0.1229 0.4522c0 0.1048 0.0615 0.2041 0.0894 0.3033l0.0503 0.1489c0.3761 1.2035 0.8957 2.3586 1.5477 3.4412 0.5893 1.0127 1.3445 1.922 2.2349 2.6912 0 0.2702 0 0.6176-0.0335 0.9706 0 0.7224 0 1.4503 0.0391 2.1728l-0.2067-0.3309c-0.4302-0.6618-0.8996-1.296-1.2627-1.7703-0.3632-0.4742-0.8493-1.1029-1.3578-1.693-0.0448-0.0525-0.1035-0.0917-0.1697-0.1132-0.0661-0.0214-0.137-0.0242-0.2046-0.0081-0.0503-0.1268-0.1062-0.2537-0.1565-0.386-0.0502-0.1324-0.067-0.1434-0.0949-0.2151l-0.1844-0.4026-0.095-0.204c-0.0615-0.1324-0.1229-0.2702-0.19-0.3971l-0.2905-0.5514v-0.0331c-0.0288-0.0562-0.0727-0.1034-0.1269-0.1364-0.0543-0.0331-0.1167-0.0508-0.1804-0.0511h-0.0335c-0.38 0-0.8102 0-1.2795 0.0386-0.2738-0.9265-0.5588-1.8419-0.8661-2.7574-0.257-0.75-0.609-1.7426-1.0169-2.7242-0.0098-0.0214-0.0269-0.0387-0.0484-0.0488s-0.0459-0.0124-0.0689-0.0064c-0.0241 0.0076-0.0447 0.0234-0.058 0.0447-0.0133 0.0212-0.0185 0.0464-0.0146 0.0711 0.1955 1.0478 0.4414 2.068 0.6369 2.8346 0.1956 0.7665 0.4582 1.7151 0.7208 2.5974-0.0913 0.0126-0.1757 0.0546-0.2404 0.1194-0.0646 0.0648-0.1058 0.1488-0.1172 0.2391-0.0615 0.4136-0.1062 0.7775-0.1453 1.1029-0.0094 0.0775 0.0042 0.1561 0.0391 0.2261 0.1341 0.2427 0.2794 0.5018 0.4303 0.761 0.1508 0.2592 0.2905 0.5019 0.4469 0.7555v0.0331c0.0188 0.0305 0.044 0.0566 0.0739 0.0766 0.0298 0.02 0.0637 0.0333 0.0993 0.0392l0.3465 0.0773c1.1174 3.7665 2.3355 7.7205 3.2294 10.583 0.9387 3.011 1.6762 5.3327 2.397 7.5331 0.0105 0.033 0.0313 0.0619 0.0593 0.0827 0.0281 0.0208 0.0621 0.0324 0.0971 0.0331h0.0503c0.0355-0.0046 0.0684-0.0206 0.0936-0.0455 0.0253-0.025 0.0415-0.0574 0.0461-0.0924v-1.8419c-0.0016-0.0305-0.0134-0.0596-0.0335-0.0827-0.0246-0.018-0.0535-0.0293-0.0838-0.0331h-0.0391l-0.3241 0.1323c-0.4861-1.7536-1.0113-3.6121-1.6762-5.8345-0.8325-2.8952-2.7154-9.1765-3.0619-10.279h0.0783l0.2402 0.0331c0.3129 1.2683 0.6426 2.5808 1.0784 3.8602 0.2011 0.5846 0.4358 1.2629 0.7152 1.9192 0.2636 0.6411 0.5951 1.2529 0.9889 1.8253l0.0727 0.0993c0.1799 0.2688 0.3877 0.5183 0.6201 0.7445 0.1394 0.1297 0.2909 0.246 0.4526 0.3474 0.1793 0.1103 0.3785 0.1852 0.5867 0.2206 0.1148 0.0166 0.2315 0.0166 0.3464 0 0.0962-0.0166 0.1913-0.0387 0.285-0.0662 0.1811-0.0586 0.3553-0.1363 0.5196-0.2316 0.3115-0.1865 0.5939-0.4169 0.8381-0.6838 0.4636-0.5168 0.8408-1.1032 1.1174-1.7372 0.1386-0.3199 0.238-0.655 0.2962-0.9981 0.0631-0.3373 0.106-0.678 0.1285-1.0202 3e-4 -0.0252-0.0086-0.0496-0.025-0.0688-0.0164-0.0193-0.0393-0.032-0.0644-0.036-0.0264-0.0017-0.0525 0.0064-0.0732 0.0227-0.0207 0.0164-0.0344 0.0397-0.0386 0.0655-0.0451 0.3235-0.1104 0.644-0.1955 0.9596-0.0786 0.3135-0.189 0.6183-0.3297 0.9099-0.324 0.5619-0.7286 1.0745-1.2012 1.5221-0.2221 0.22-0.4764 0.4059-0.7543 0.5514-0.1274 0.0672-0.2625 0.119-0.4023 0.1545l-0.2012 0.033c-0.0518 0.0079-0.1046 0.0079-0.1564 0-0.2613-0.0755-0.4945-0.2251-0.6705-0.4301-0.1808-0.1954-0.3418-0.4078-0.4805-0.6342l-0.0894-0.1324c-0.342-0.5375-0.6266-1.1086-0.8493-1.704-0.2626-0.6618-0.4805-1.2739-0.676-1.875-0.3912-1.2187-0.732-2.4982-1.0225-3.6121l0.2682-0.182 0.2849-0.1875c0.3408 0.386 0.704 0.8051 1.1622 1.3511 0.4581 0.5459 0.8995 1.1029 1.3242 1.6544 0.2347 0.3088 0.4302 0.5956 0.609 0.8658 0.1956 0.2865 0.3693 0.5869 0.5196 0.8989 0.0845 0.1303 0.1415 0.2761 0.1674 0.4287s0.0203 0.3088-0.0165 0.4592c-0.0658 0.138-0.1657 0.2575-0.2906 0.3474-0.1379 0.1008-0.2858 0.1877-0.4414 0.2592-0.0119 0.0048-0.0228 0.0119-0.0319 0.021-9e-3 0.0091-0.0162 0.0199-0.0209 0.0317-0.0047 0.0119-0.0069 0.0246-0.0064 0.0373 4e-4 0.0128 0.0035 0.0253 9e-3 0.0368 0.0088 0.0236 0.0265 0.043 0.0493 0.0543s0.0491 0.0136 0.0736 0.0064c0.1795-0.0559 0.3519-0.1317 0.514-0.2261 0.1825-0.0987 0.3334-0.2458 0.4358-0.4246 0.1022-0.1932 0.1375-0.4139 0.1006-0.6287-0.0265-0.1888-0.0752-0.3739-0.1453-0.5515-0.1536-0.4023-0.3404-0.7915-0.5587-1.1636l0.2794-2.5809 0.0447-0.375c0.0391-0.3474 0.0782-0.6948 0.1229-1.0423 0.0447-0.3474 0.1285-0.9044 0.2067-1.4007s0.1732-0.9485 0.2794-1.3676c0-0.0717 0.0335-0.1379 0.0558-0.2041l0.0336-0.1213 0.0335-0.0938v-0.1047c0.0022-0.0202 0.0022-0.0405 0-0.0607v-0.0276c0.0323-0.0629 0.0717-0.1221 0.1173-0.1764l0.0727-0.0772c0.0477-0.0591 0.1-0.1145 0.1564-0.1655 0.3309-0.3083 0.6858-0.5904 1.0616-0.8437 0.2905-0.1986 0.5587-0.375 0.7934-0.5515 0.0542 0.1012 0.1178 0.1972 0.19 0.2868 0.1826 0.2224 0.4137 0.4015 0.676 0.5238 0.2571 0.1112 0.5351 0.1676 0.8158 0.1655h0.2738 0.2291c0.083-0.0107 0.1652-0.0273 0.2458-0.0496 0.2599-0.0561 0.5065-0.161 0.7263-0.3089 0.2221-0.1567 0.4039-0.3626 0.5308-0.6011 0.238-0.449 0.3734-0.9441 0.3967-1.4503 0.2469 0.1241 0.5102 0.2132 0.7823 0.2647 0.3285 0.062 0.6489 0.1601 0.9554 0.2923 0.6216 0.2623 1.167 0.6736 1.5868 1.1966l0.7375 0.9375 0.3018 0.3861 0.4916 0.6231 0.2626 0.3364c0.1788 0.2206 0.352 0.4467 0.5588 0.6673 0.2067 0.2206 0.4693 0.5515 0.7096 0.8658l-0.6091 0.1324-0.3575 0.0772-1.0225 0.193h-0.0335v0.0331c-0.0043 0.0125-0.0043 0.0261 0 0.0386v0.0937l1.5644 6.193 1.57 6.2703c0.1732 0.6672 0.3409 1.3345 0.5141 2.0018 0.3632 1.4063 0.7375 2.8621 1.1174 4.296l0.1733 0.6507 0.8548 3.2482c-0.9709 0.1077-1.9018 0.4423-2.7154 0.9761-0.8886 0.5962-1.5787 1.4385-1.9835 2.4209l-0.1397 0.3585c-0.0335 0.0882-0.0559 0.1764-0.0782 0.2592-0.0224 0.0827 0 0.0827-0.0391 0.1268l-0.0336 0.1213-0.067 0.2537-0.0838 0.3585c-0.1118 0.4908-0.2235 0.9705-0.3353 1.4283-0.1162 0.4632-0.2636 0.9183-0.4414 1.3621-0.0895 0.2208-0.1921 0.4363-0.3073 0.6452-0.0782 0.1379-0.162 0.2702-0.2458 0.3916-0.2235-0.182-0.4526-0.3475-0.6481-0.4908 0.0782-0.3916 0.1452-0.7942 0.2123-1.1912 0.095-0.5515 0.162-1.0202 0.2179-1.4559 0.1305-0.9618 0.2032-1.9304 0.2179-2.9007 0.18-0.5404 0.3182-1.0935 0.4134-1.6545 0.0954-0.571 0.1533-1.1476 0.1733-1.7261 0.0308-0.5749 0.0308-1.1511 0-1.7261-0.0336-0.4466-0.0839-0.8878-0.1509-1.329l0.0503-0.0386c0.0802-0.0656 0.1567-0.1355 0.2291-0.2096 0.2843-0.2973 0.498-0.6533 0.6257-1.0422 0.2224-0.738 0.2964-1.5117 0.2179-2.2776 0-0.2647-0.0447-0.5515-0.0726-0.7776 0-0.1048 0-0.204-0.0391-0.3088-0.0432-0.3547-0.1085-0.7065-0.1956-1.0533v-0.0441c-0.1787-0.7611-0.3799-1.489-0.5587-2.1011-0.3743-1.307-0.7934-2.6581-1.2851-4.1361-0.0031-0.0126-0.0089-0.0244-0.017-0.0347-8e-3 -0.0103-0.0181-0.0188-0.0297-0.025-0.0115-0.0063-0.0243-0.01-0.0374-0.0111s-0.0263 5e-4 -0.0388 0.0047c-0.025 0.0076-0.0459 0.0246-0.0584 0.0472-0.0125 0.0227-0.0156 0.0492-0.0086 0.0741 0.3073 1.2408 0.676 2.7077 1.0224 4.1967 0.1565 0.6672 0.3185 1.3897 0.4582 2.1011 0.0721 0.3405 0.1243 0.6848 0.1564 1.0312v0.3144c0 0.2647 0.028 0.5073 0.0392 0.7555 0.0496 0.6734-0.0358 1.35-0.2515 1.9908-0.1054 0.2894-0.2732 0.5528-0.4917 0.772-0.0501 0.0519-0.1043 0.0998-0.162 0.1434l-0.0782 0.0552-0.1229 0.0882c-0.1397 0.0938-0.2794 0.182-0.4303 0.2647-0.6142 0.3201-1.2601 0.5769-1.9276 0.7666-0.6596 0.206-1.3365 0.3537-2.0226 0.4411-0.6661 0.0893-1.3419 0.0819-2.0059-0.022-0.6505-0.105-1.2679-0.3559-1.8047-0.7335-0.2641-0.1897-0.5042-0.41-0.7151-0.6562-0.1031-0.1214-0.1965-0.2505-0.2794-0.3861-0.0815-0.1388-0.1543-0.2824-0.2179-0.4301-0.2494-0.618-0.3582-1.2826-0.3185-1.9467 0.0163-0.3299 0.0764-0.6562 0.1788-0.9706 0.0488-0.1537 0.1105-0.3031 0.1844-0.4467l0.0838-0.1654 0.162-0.3254c0.3129-0.6728 0.6146-1.3456 0.8884-1.9798 0.6649-1.5496 1.1789-2.8235 1.6371-4.0092 0.0092-0.0241 0.0086-0.0509-0.0019-0.0746-0.0104-0.0236-0.0298-0.0424-0.054-0.0522-0.0113-0.0056-0.0237-0.0089-0.0363-0.0097-0.0127-8e-4 -0.0254 9e-4 -0.0374 5e-3 -0.0119 0.0041-0.023 0.0106-0.0324 0.0189-0.0094 0.0084-0.017 0.0186-0.0224 0.0299l-1.9276 3.8603c-0.3073 0.6177-0.637 1.2739-0.9834 1.9136-0.0503 0.1048-0.1061 0.2096-0.162 0.3088l-0.0894 0.16c-0.0974 0.1767-0.1796 0.3612-0.2459 0.5514-0.1347 0.3682-0.221 0.7518-0.257 1.1416-0.0693 0.7804 0.0395 1.5662 0.3185 2.2996 0.0738 0.189 0.1596 0.3732 0.257 0.5515 0.1015 0.1745 0.2174 0.3405 0.3464 0.4963 0.11 0.1368 0.2275 0.2675 0.352 0.3916-0.0869 0.3635-0.1522 0.7318-0.1955 1.1029-0.065 0.4936-0.093 0.9913-0.0838 1.489 0.0034 0.4984 0.0426 0.996 0.1173 1.4889 0.0694 0.4766 0.1702 0.9482 0.3017 1.4118-0.0391 0.4798-0.0391 0.9871-0.0391 1.4118 0 0.4246 0.0279 0.943 0.0559 1.4944 0.0279 0.5515 0.0782 1.0478 0.1229 1.489 0.0335 0.3419 0.0726 0.7114 0.1341 1.1747-0.3296 0.1488-0.609 0.2812-0.8716 0.4136-0.38-0.5515-0.7711-1.1912-1.1175-1.8199-0.3787-0.6572-0.7201-1.3347-1.0225-2.0294l-0.0447-0.1103c0.2622-0.2219 0.5121-0.4576 0.7487-0.7059 0.1843-0.1895 0.3387-0.4051 0.4582-0.6397 0.0513-0.1245 0.096-0.2515 0.1341-0.3805v-0.1158c0.0221-0.0835 0.0389-0.1682 0.0503-0.2537 0.0627-0.4741 0.0627-0.9542 0-1.4283-0.0336-0.4463-0.0952-0.8902-0.1844-1.329-0.0447-0.1986-0.095-0.4302-0.1564-0.6618l-0.1844-0.6618c-0.0167-0.0635-0.0522-0.1207-0.1019-0.1643s-0.1114-0.0716-0.1773-0.0804c-0.0659-0.0089-0.133 0.0018-0.1927 0.0306-0.0597 0.0289-0.1094 0.0746-0.1427 0.1314l-0.4135 0.6949c-0.0559 0.0992-0.1117 0.193-0.1732 0.2867 0.0024-0.0238 0.0024-0.0478 0-0.0717l0.0894-0.3695 0.0559-0.3639c0.0668-0.4935 0.0837-0.9923 0.0503-1.489 0-0.204-0.0392-0.4687-0.0839-0.739-0.0395-0.2492-0.0936-0.4959-0.162-0.7389-0.0265-0.0899-0.0813-0.1691-0.1564-0.2261-0.0891-0.0564-0.1966-0.077-0.3006-0.0575-0.1039 0.0195-0.1963 0.0775-0.2582 0.1622l-1.0001 1.3897-0.1117 0.1489c-0.1341 0.182-0.2571 0.353-0.3912 0.5019s-0.2067 0.2151-0.3184 0.3309c-0.1732-0.375-0.3632-0.728-0.5588-1.0644-0.2411-0.4141-0.5177-0.8071-0.8269-1.1746l0.447-0.0827c0.0321-0.0101 0.0606-0.0289 0.0824-0.0542 0.0217-0.0254 0.0358-0.0563 0.0405-0.0892 0.1118-0.2151 0.2123-0.4357 0.3185-0.6507l0.0726-0.1545c0.1341-0.2647 0.2626-0.5514 0.3856-0.8051 0.0301-0.0633 0.0348-0.1355 0.013-0.2021-0.0218-0.0665-0.0684-0.1224-0.1304-0.1564l-0.2291-0.1213 0.3185-0.6673 0.2291-0.4797c0.017-0.0348 0.0283-0.072 0.0335-0.1103 0.0108-0.0925-0.0152-0.1854-0.0726-0.2592-0.0284-0.0363-0.0637-0.0666-0.104-0.0893-0.0402-0.0227-0.0847-0.0374-0.1307-0.0431l-1.2013-0.1213-0.5922-0.0607c-0.7208-0.2757-1.4527-0.5514-2.0897-0.772-0.6369-0.2206-1.4192-0.5074-2.1511-0.7611-0.0697-0.0229-0.1445-0.0268-0.2162-0.0113-0.0718 0.0156-0.1381 0.05-0.1917 0.0996l-0.5196 0.5018-0.1229 0.1213-0.1285-0.193c-0.0673-0.0926-0.1271-0.1903-0.1788-0.2923v-0.033l-0.0503-0.0938c-0.0454-0.0786-0.0865-0.1596-0.1229-0.2426-0.0227-0.0585-0.0488-0.1156-0.0783-0.171-0.0279-0.0607-0.0558-0.1213-0.0782-0.182l-0.1229-0.3584c-0.2715-0.9765-0.2715-2.0071 0-2.9835 0.2647-0.9972 0.669-1.9531 1.2013-2.8401 0.2291-0.3915 0.4749-0.7665 0.7207-1.1029l0.3241 0.7996c0.0078 0.0177 0.0207 0.0328 0.0371 0.0434s0.0355 0.0162 0.0551 0.0162 0.0387-0.0056 0.0551-0.0162 0.0293-0.0257 0.0371-0.0434l0.2849-0.7996c0.0174-0.0433 0.0324-0.0874 0.0447-0.1324 0.0475-0.1091 0.0867-0.2215 0.1174-0.3364 0.1186-0.357 0.19-0.7277 0.2123-1.1029-0.0041-0.0204-0.0142-0.0392-0.0291-0.054-0.015-0.0147-0.034-0.0247-0.0547-0.0287-0.0182-0.0055-0.0377-0.0055-0.0559 0-0.4557 0.3226-0.8753 0.6924-1.2515 1.1029-0.3855 0.3995-0.7421 0.8252-1.0672 1.2739-0.6755 0.9128-1.1737 1.9412-1.4695 3.0331-0.14207 0.5623-0.20413 1.1414-0.18438 1.7206 0.01599 0.5793 0.13123 1.1517 0.34083 1.693 0.21476 0.5322 0.51675 1.026 0.89395 1.4614l0.19 0.2041-0.5923 0.5955-0.0447 0.0497c-0.0279 0.0391-0.0477 0.0832-0.0583 0.1299s-0.0118 0.0949-0.0035 0.142c0.0083 0.0472 0.0259 0.0922 0.0519 0.1326 0.0259 0.0404 0.0597 0.0753 0.0993 0.1028l1.2348 0.8769c0.1006 0.2978 0.19 0.5514 0.285 0.7886 0.0611 0.1541 0.1301 0.305 0.2067 0.4522 0.0421 0.0809 0.0907 0.1584 0.1453 0.2316 0.0653 0.0869 0.1492 0.1585 0.2458 0.2096 0.2799 0.1459 0.5762 0.2588 0.8828 0.3364h0.123c0.0279 0.4908 0.0726 0.9816 0.1173 1.4558 0.0279 0.2427 0.0503 0.4853 0.067 0.7225v0.2536 0.2372c-0.0186 0.1712-0.0503 0.3408-0.095 0.5073-0.0452 0.1964-0.0788 0.3953-0.1005 0.5956 0.0027 0.0312 0.0027 0.0626 0 0.0938l-0.6929-0.171-0.9442-0.182c-0.0506-0.0112-0.1029-0.0121-0.1539-0.0026-0.0509 0.0095-0.0993 0.0291-0.1422 0.0578l-0.7599 0.4963c-0.1279 0.0931-0.2409 0.2046-0.3353 0.3309-0.1129 0.1485-0.1912 0.3199-0.229 0.5018-0.0086 0.0251-0.0086 0.0522 0 0.0772 0.0181 0.0228 0.0438 0.0385 0.0726 0.0441 0.1515 0.0268 0.3066 0.0268 0.4582 0 0.0447 0.1875 0.0838 0.375 0.1341 0.5515h-0.0392c-0.1123 0.0788-0.2049 0.1818-0.2707 0.3013-0.0659 0.1195-0.1032 0.2522-0.1092 0.388-0.0034 0.0219 0.0015 0.0442 0.014 0.0626 0.0124 0.0183 0.0313 0.0314 0.0531 0.0367 0.1408 0.0518 0.2928 0.067 0.4414 0.0441h0.1061c0.0671 0.2758 0.1341 0.5515 0.2067 0.8383-0.0018 0.0128-0.0018 0.0258 0 0.0386 0.0176 0.0513 0.0454 0.0987 0.0817 0.1393s0.0804 0.0737 0.1299 0.0973c0.0494 0.0236 0.103 0.0373 0.1579 0.0402 0.0548 0.0029 0.1096-0.0049 0.1613-0.0232l0.9611-0.3419 0.1676 0.9927c0.0838 0.4632 0.1788 0.9706 0.3017 1.4889 0.0526 0.2571 0.1254 0.5097 0.2179 0.7556 0.0894 0.2371 0.19 0.4632 0.2905 0.6783v0.0275c0.2235 0.4853 0.4414 0.9265 0.6649 1.3567 0.0263 0.0501 0.0715 0.088 0.1259 0.1055 0.0543 0.0176 0.1135 0.0133 0.1647-0.0118l0.8716-0.4357 0.8604-0.4522c0.0227-0.0128 0.0397-0.0333 0.048-0.0577 0.0082-0.0244 0.0071-0.051-0.0033-0.0746-0.0099-0.0226-0.0279-0.0408-0.0506-0.051-0.0228-0.0102-0.0485-0.0117-0.0723-0.0042l-0.9163 0.3199-0.704 0.2537-0.0559-0.1434c-0.1285-0.3419-0.2682-0.6949-0.3967-1.0478-0.095-0.2427-0.1732-0.4798-0.2402-0.6893-0.0663-0.2261-0.1167-0.4565-0.1509-0.6894-0.0447-0.2481-0.0838-0.4963-0.1173-0.7279l-0.0615-0.7114c-0.0503-0.3419-0.095-0.6894-0.1397-1.0368l-0.0558-0.4412v-0.0772c-0.0164-0.0509-0.043-0.098-0.0782-0.1386-0.0353-0.0405-0.0785-0.0736-0.127-0.0973s-0.1013-0.0375-0.1554-0.0405c-0.054-0.0031-0.1081 0.0047-0.1591 0.0228l-1.0001 0.3419c-0.162-0.6618-0.3296-1.3456-0.514-2.0515l0.3743-0.2647 0.7543 0.1489 0.7878 0.1434 0.3688 0.5514 0.2067 0.3199c0.2012 0.3033 0.4079 0.6397 0.637 1.0147 0.2089 0.3408 0.3991 0.6924 0.5699 1.0533 0.0447 0.0882 0.0782 0.1765 0.1117 0.2592l0.0503 0.1654 0.0335 0.1214 0.1788 0.5514c0.0078 0.0235 0.0241 0.0432 0.0458 0.0555 0.0217 0.0122 0.0472 0.016 0.0716 0.0107 0.015-0.0046 0.0288-0.0124 0.0404-0.0229s0.0207-0.0234 0.0266-0.0378l-0.1006-0.6893c0-0.0717 0-0.1489-0.0391-0.2206-0.0221-0.1044-0.0501-0.2075-0.0838-0.3088-0.1365-0.3908-0.2951-0.7737-0.4749-1.1471-0.1844-0.386-0.3855-0.761-0.5587-1.1029-0.123-0.2261-0.2515-0.4522-0.3632-0.6507 0.0391-0.0883 0.067-0.171 0.095-0.2537 0.0453-0.1209 0.0753-0.2469 0.0894-0.375 0-0.1655 0.0279-0.3199 0.0614-0.5515 0.0364-0.2023 0.0588-0.4068 0.0671-0.6121v-0.3364c-0.0108-0.1038-0.0276-0.2069-0.0503-0.3088-0.1496-0.6833-0.3571-1.3529-0.6202-2.0019 0.1956 0.0441 0.3799 0.0883 0.5587 0.1213 0.0243 0.0036 0.0491-0.0017 0.0697-0.0149s0.0355-0.0334 0.0421-0.0567c6e-3 -0.0242 0.0031-0.0496-0.0082-0.0718-0.0112-0.0223-0.0301-0.0398-0.0533-0.0496-0.3073-0.0772-0.6034-0.193-0.866-0.3088-0.1453-0.0606-0.285-0.1268-0.4191-0.193-0.1294-0.0602-0.2529-0.1322-0.3687-0.2151-0.0371-0.0259-0.0677-0.0598-0.0894-0.0992-0.0332-0.0572-0.063-0.1161-0.0894-0.1765-0.0503-0.1268-0.1006-0.2702-0.1453-0.4191-0.0838-0.2647-0.1564-0.5515-0.2291-0.8824-0.0154-0.064-0.0506-0.1218-0.1005-0.1654l-0.922-0.7445 0.352-0.2978 0.2738 0.1985 0.2291 0.1544c0.0175 0.0159 0.0405 0.0247 0.0643 0.0247s0.0467-0.0088 0.0642-0.0247c0.0165-0.0182 0.0256-0.0417 0.0256-0.0661 0-0.0245-0.0091-0.048-0.0256-0.0662l-0.2961-0.3419-0.1118-0.1214 0.1788-0.1599 0.352-0.3143c0.7096 0.2592 1.3298 0.4853 1.9109 0.6893 0.6872 0.2427 1.4248 0.5019 2.1455 0.7445 0.0277 0.0052 0.0562 0.0052 0.0838 0l0.6202 0.0386 0.7264 0.0441c-0.1285 0.3199-0.2626 0.6508-0.3855 0.9817-0.0296 0.0716-0.0291 0.1519 0.0013 0.2233 0.0304 0.0713 0.0882 0.1278 0.1607 0.1572l0.2682 0.1103c-0.0726 0.193-0.1397 0.386-0.2067 0.5514l-0.0503 0.1434-0.2179 0.6232-0.9052 0.3088c-0.0225 0.0106-0.0407 0.0283-0.0518 0.0502-0.0112 0.022-0.0146 0.047-0.0096 0.0711 0.0053 0.0241 0.0201 0.045 0.041 0.0585 0.0209 0.0134 0.0463 0.0181 0.0707 0.0132l0.3632-0.0607c0.0654 0.4964 0.1776 0.9857 0.3352 1.4614 0.1397 0.4412 0.3856 1.0478 0.5588 1.4835-0.0559 0.0662-0.1118 0.1268-0.1621 0.193-0.1056 0.1214-0.1992 0.2525-0.2793 0.3916-0.0836 0.1423-0.1492 0.2942-0.1956 0.4522-0.1525 0.5911-0.1791 1.207-0.0782 1.8088 0.0014 0.0239 0.012 0.0463 0.0297 0.0627 0.0177 0.0165 0.041 0.0256 0.0653 0.0255 0.0248 2e-4 0.0488-0.0088 0.0674-0.025 0.0186-0.0163 0.0304-0.0388 0.0331-0.0632 0.0688-0.534 0.2137-1.0557 0.4303-1.5496 0.1074-0.229 0.2614-0.4336 0.4525-0.6011 0.1844-0.1875 0.3911-0.3695 0.5923-0.5515l0.0782-0.0662c0.1956-0.171 0.4023-0.3474 0.5979-0.5515 0.2004-0.2085 0.387-0.4295 0.5587-0.6617v-0.0331c0.1508-0.193 0.3017-0.3971 0.4861-0.6508 0 0.1489 0.0447 0.2923 0.0614 0.4357 0.055 0.4482 0.0774 0.8997 0.0671 1.3511-0.0172 0.4534-0.079 0.904-0.1844 1.3456-0.1147 0.4453-0.2757 0.8778-0.4805 1.2904-0.0112 0.0201-0.0145 0.0436-0.0094 0.0659 0.0052 0.0224 0.0185 0.0421 0.0373 0.0555 0.0172 0.0143 0.039 0.0222 0.0615 0.0222s0.0443-0.0079 0.0615-0.0222c0.2131-0.1706 0.4147-0.3549 0.6034-0.5515 0.1732-0.171 0.3352-0.3585 0.4917-0.5515l0.067-0.0772c0.1621-0.1875 0.3185-0.386 0.4638-0.5515l0.0503-0.0606v-0.0276l0.1005 0.5515c0.0783 0.4577 0.1285 0.8768 0.1621 1.2794 0.0434 0.4106 0.0434 0.8246 0 1.2353-0.0058 0.0561-0.017 0.1115-0.0336 0.1654v0.1048c0 0.0276-0.0502 0.1489-0.0782 0.2206v0.0331c-0.0815 0.1606-0.1828 0.3107-0.3017 0.4467-0.2235 0.2592-0.4805 0.5128-0.7543 0.772l-0.2291 0.2317c-0.3116 0.2939-0.5889 0.6213-0.8269 0.9761-0.0383 0.0521-0.072 0.1075-0.1006 0.1654v0.0551c0 0.0386-0.0391 0.0772-0.0558 0.1269v0.0441c-0.0175 0.0451-0.0324 0.0911-0.0447 0.1379-0.0166 0.0577-0.0278 0.1167-0.0336 0.1764-0.0314 0.2377-0.0407 0.4776-0.0279 0.7169 0 0.1931 0 0.3806 0.0391 0.5515 0.0391 0.171 0.0391 0.5074 0.0391 0.761-1e-4 0.0246 0.0089 0.0483 0.0254 0.0666s0.0393 0.03 0.064 0.0327c0.0242 0.0019 0.0482-0.0048 0.0677-0.019s0.0332-0.0349 0.0385-0.0582c0.0745-0.351 0.1249-0.7066 0.1508-1.0643v-0.2703c0.0195-0.2082 0.055-0.4147 0.1062-0.6176l0.0335-0.1103 0.0727-0.1434s0-0.0386 0.0335-0.0606l0.0391-0.0497c0-0.0386 0.0559-0.0772 0.0782-0.1103 0.1298-0.1542 0.2698-0.2997 0.4191-0.4356 0.3105 0.6827 0.6985 1.3283 1.1565 1.9246 0.4337 0.5701 0.943 1.0802 1.5142 1.5166-0.1788 0.0937-0.3576 0.1985-0.5587 0.3143-0.1102 0.0711-0.2148 0.1504-0.3129 0.2371-0.0552 0.0542-0.1074 0.1113-0.1565 0.171l-0.1341 0.1764c-0.1576 0.2449-0.2693 0.5158-0.3296 0.7997 0 0.1158-0.0447 0.2481-0.0615 0.3915-0.0063 0.0716-0.0063 0.1435 0 0.2151 0.0024 0.127 0.0349 0.2517 0.095 0.364 0.0549 0.0932 0.1247 0.177 0.2068 0.2481 0.0606 0.0535 0.1261 0.1015 0.1955 0.1434l0.0894 0.0496 0.1285 0.0662c0.0798 0.0307 0.162 0.0547 0.2459 0.0717 0.5679 0.0932 1.1512 0.0184 1.6762-0.2151 0.0816-0.0411 0.1585-0.0911 0.229-0.1489 0.0633-0.0552 0.1213-0.1162 0.1732-0.1819 0.085-0.1075 0.1633-0.2198 0.2347-0.3364l0.0391-0.0662 0.1397-0.2206c0.0334-0.0504 0.0728-0.0967 0.1173-0.1379l0.5979-0.3088c0.1844-0.1048 0.4079-0.2316 0.6314-0.386 0.1197-0.078 0.2319-0.1666 0.3352-0.2647 0.1363-0.1305 0.2314-0.2971 0.2738-0.4798 0.0563-0.2216 0.0696-0.4518 0.0391-0.6783 0.199-0.0548 0.403-0.0899 0.609-0.1048 0.2451-0.0268 0.4924-0.0268 0.7375 0 0.2505 0.0329 0.4973 0.0882 0.7376 0.1654 0.1908 0.0594 0.3775 0.1313 0.5587 0.2151 0 0.0552-0.0279 0.1048-0.0391 0.1599-0.0485 0.2433-0.0635 0.4918-0.0447 0.739 0.0166 0.1498 0.0601 0.2954 0.1285 0.4302 0.0761 0.1538 0.1941 0.2837 0.3408 0.375l0.2514 0.1323 0.095 0.0441c-1e-3 0.3454-0.0517 0.689-0.1508 1.0203-0.1196 0.397-0.3087 0.7703-0.5588 1.1029-0.125 0.1722-0.2612 0.3361-0.4078 0.4908-0.1397 0.1489-0.2906 0.2978-0.4582 0.4522-0.3144 0.2778-0.6592 0.5201-1.0281 0.7224-0.7307 0.3919-1.5548 0.5824-2.3858 0.5515-0.4212-0.0198-0.8399-0.0752-1.2515-0.1654-0.4162-0.0875-0.8252-0.2055-1.2236-0.353-1.6133-0.6367-3.0429-1.6556-4.1626-2.9669-1.2007-1.3112-2.2814-2.7249-3.2295-4.2243-0.0138-0.0213-0.0354-0.0367-0.0604-0.0428-0.0249-0.0062-0.0513-0.0027-0.0737 0.0098-0.0213 0.0126-0.0375 0.0322-0.0456 0.0554-0.0082 0.0232-0.0079 0.0484 9e-4 0.0714 0.3555 0.8327 0.7662 1.6414 1.2292 2.421 0.4655 0.7821 0.9845 1.532 1.5533 2.2444 0.5795 0.7181 1.2392 1.3693 1.9668 1.9412 0.7377 0.5743 1.5614 1.032 2.4416 1.3566 0.4466 0.1546 0.9041 0.2763 1.3689 0.364 0.4577 0.095 0.9236 0.1467 1.3913 0.1544 0.9652 0.0233 1.9176-0.2212 2.7489-0.7059 0.1341-0.0827 0.2738-0.1764 0.4191-0.2867 0.3915 0.312 0.8601 0.5156 1.3577 0.59 0.6334 0.0858 1.2782-0.02 1.8494-0.3033 0.5588-0.2605 1.0542-0.6367 1.4527-1.1029 0.3426-0.3828 0.6251-0.814 0.8381-1.2794h0.1006c0.0825-0.0091 0.1634-0.0295 0.2402-0.0607 0.1663-0.0593 0.3118-0.1646 0.4191-0.3033 0.0559-0.0723 0.1011-0.1522 0.1341-0.2371 0.0274-0.0768 0.0462-0.1563 0.0559-0.2372 0.0421-0.2445 0.0421-0.4944 0-0.7389 0.2034-0.325 0.3899-0.66 0.5587-1.0037 0.2214-0.484 0.4063-0.9836 0.5531-1.4945zm-8.9397-40.219c-0.0514-0.0489-0.1055-0.0949-0.162-0.1379l-0.1676-0.6121-0.1453-0.4412v-0.0552c-0.0223-0.0417-0.0528-0.0786-0.0897-0.1086-0.037-0.0299-0.0796-0.0522-0.1255-0.0655-0.0458-0.0134-0.0939-0.0176-0.1414-0.0123s-0.0934 0.0199-0.1351 0.0431l-0.5029 0.2702-0.2179 0.1268c-0.1-0.0781-0.2087-0.1447-0.324-0.1985-0.3683-0.1801-0.7845-0.2418-1.1901-0.1765-0.0992 0.0105-0.1968 0.0327-0.2906 0.0662-0.0885 0.0254-0.1745 0.0586-0.257 0.0993l-0.4693 0.215c-0.2794 0.1324-0.542 0.2647-0.7878 0.3971-0.0023-0.2931 0.0547-0.5837 0.1676-0.8548 0.1333-0.3088 0.3227-0.591 0.5587-0.8327 0.2374-0.2394 0.513-0.4387 0.8158-0.5901 0.1487-0.0757 0.3039-0.1384 0.4637-0.1875l0.3185-0.0882 0.1788-0.0497c0.3243-0.072 0.6568-0.1017 0.9889-0.0882 0.3045 0.0165 0.5993 0.1116 0.8549 0.2757 0.2522 0.1702 0.4576 0.3995 0.5978 0.6673 0.0779 0.1439 0.1451 0.2932 0.2012 0.4467 0.0559 0.1434 0.1006 0.2923 0.1508 0.4522v0.0386c0.1956 0.6783 0.3632 1.3732 0.5588 2.0846-0.285-0.2096-0.5476-0.4412-0.8381-0.6838zm-8.9565 9.5955-0.7599 0.5129c-0.042 0.0277-0.078 0.0633-0.1061 0.1048l-0.3744-0.1654-0.1341-0.0552-0.2682-0.1158-0.2626-0.1048c-0.1005-0.2481-0.2067-0.4908-0.2961-0.7003l-0.3017-0.6673 0.1006-0.6563c0.4972-0.0331 0.961-0.0717 1.4136-0.1213 0.0782 0.1213 0.1564 0.2371 0.2402 0.3529l0.2514 0.364c0.0503 0.0607 0.095 0.1269 0.1397 0.1875 0.0447 0.0607 0.1732 0.2427 0.2626 0.3585l0.1397 0.193 0.2514 0.3088zm24.143 20.129c-0.0376 0.0409-0.0832 0.0738-0.1342 0.0966-0.0509 0.0227-0.106 0.0349-0.162 0.0358-0.0548 0.0023-0.1095-0.0069-0.1605-0.0268-0.051-0.02-0.0972-0.0503-0.1356-0.089-0.0421-0.0377-0.0758-0.0837-0.0989-0.1349-0.0231-0.0513-0.0351-0.1068-0.0352-0.1629-0.0015-0.0555 0.0082-0.1108 0.0286-0.1625 0.0203-0.0518 0.0508-0.0991 0.0898-0.1391s0.0857-0.072 0.1373-0.0941c0.0516-0.022 0.1071-0.0338 0.1634-0.0345 0.0537-5e-4 0.1071 0.0094 0.157 0.0293 0.0498 0.0199 0.0952 0.0493 0.1335 0.0865 0.0802 0.077 0.1263 0.182 0.1285 0.2923 0.0041 0.1116-0.036 0.2204-0.1117 0.3033zm0.7207-9.0496c-0.0894 1.1857-0.1732 2.2886-0.3073 3.3915-0.1341 1.103-0.3296 2.2721-0.5587 3.3695-0.0559 0.2758-0.1173 0.5515-0.2011 0.9375h-0.1174c-0.2067-1.0257-0.447-2.1287-0.7319-3.3639-0.3688-1.5662-0.7543-3.1103-1.151-4.5828l-0.1341-0.5073 0.1229-0.1048c0.1882-0.2073 0.29-0.4772 0.285-0.7555h0.1005c0.3409-0.0496 0.732-0.1048 1.1175-0.171 0.3855-0.0661 0.7711-0.1268 1.1175-0.1875 0.1352 0.1935 0.3317 0.3371 0.5587 0.4081-0.0559 0.5956-0.0726 1.0974-0.1006 1.5662zm-3.7155-2.6305c-0.2124-0.761-0.4191-1.4614-0.6258-2.1508-0.3855-1.2959-0.7487-2.443-1.1175-3.5073 0.0962-0.0452 0.1848-0.1047 0.2626-0.1765 0.2961 0.3861 0.5588 0.7004 0.7934 0.9927 0.2347 0.2922 0.4023 0.4853 0.6035 0.7224l0.1452 0.171c0.2123 0.2536 0.4358 0.5073 0.6537 0.75l0.1118 0.1268c0.514 0.5901 1.0504 1.1746 1.5589 1.7206 0.2737 0.2978 0.5587 0.5956 0.8157 0.8548-0.0789 0.1387-0.1248 0.2933-0.1341 0.4522l-1.0336 0.2922c-0.3744 0.1048-0.7543 0.2261-1.0784 0.3254l-0.1006 0.0331c-0.0763-0.1661-0.1953-0.3095-0.3453-0.416-0.1501-0.1064-0.3257-0.1721-0.5095-0.1906zm0.3017 1.0588c0.0022 0.0558-0.0071 0.1114-0.0273 0.1635-0.0201 0.0521-0.0508 0.0997-0.0901 0.1398-0.0368 0.0403-0.0816 0.0727-0.1315 0.0955-0.05 0.0227-0.104 0.0353-0.159 0.0369-0.1119 1e-3 -0.2199-0.0404-0.3017-0.1158-0.0404-0.0388-0.0725-0.0851-0.0946-0.1362-0.022-0.0511-0.0336-0.1061-0.0339-0.1616-0.0029-0.1114 0.037-0.2198 0.1117-0.3033 0.0399-0.041 0.0875-0.0738 0.1403-0.0966 0.0527-0.0227 0.1095-0.0349 0.167-0.0358 0.1103 0.0028 0.2152 0.0473 0.2932 0.1242 0.078 0.077 0.123 0.1806 0.1259 0.2894zm3.7938-1.4007c0.1049 0.0118 0.2018 0.0614 0.2721 0.1392s0.1091 0.1784 0.1091 0.2826c0 0.1043-0.0388 0.2049-0.1091 0.2827s-0.1672 0.1274-0.2721 0.1392c-0.0553 0.0028-0.1105-0.0056-0.1624-0.0245-0.0518-0.019-0.0993-0.0482-0.1393-0.0858-0.0814-0.0806-0.1275-0.1895-0.1285-0.3033-3e-3 -0.1114 0.037-0.2197 0.1117-0.3033 0.0394-0.0456 0.0882-0.0824 0.1431-0.1081s0.1146-0.0396 0.1754-0.0408zm-1.0281-7.853c0.0379-0.0418 0.0845-0.0753 0.1365-0.0981s0.1083-0.0345 0.1652-0.0342c0.1107 0.0014 0.2165 0.0454 0.2947 0.1227 0.0783 0.0773 0.1229 0.1816 0.1244 0.2909 0.0022 0.0548-0.0066 0.1094-0.026 0.1608-0.0193 0.0514-0.0488 0.0985-0.0868 0.1385-0.0379 0.04-0.0836 0.0722-0.1342 0.0946-0.0507 0.0225-0.1054 0.0348-0.1609 0.0362-0.0576 0.0047-0.1155-0.0032-0.1696-0.0232-0.0541-0.0201-0.103-0.0517-0.1433-0.0926-0.0817-0.0764-0.1298-0.1813-0.1341-0.2923 0.0026-0.1145 0.0507-0.2235 0.1341-0.3033zm0.1844 1.3346c0.1285 0.8217 0.2402 1.6985 0.3408 2.6746s0.1565 2.068 0.1844 3.0993c-0.2403-0.2702-0.5085-0.5515-0.7711-0.8438-0.5028-0.5514-1.0448-1.1029-1.6035-1.6544l-0.1174-0.1268-0.704-0.7445-0.1676-0.1599c-0.2123-0.2151-0.4414-0.4357-0.6649-0.6508-0.2235-0.215-0.6034-0.5514-0.9833-0.9099 0.051-0.114 0.0849-0.2348 0.1005-0.3584 0.7711-0.1875 1.4472-0.364 2.0618-0.5515 0.5028-0.1379 0.9945-0.2868 1.4806-0.4357 0.0543 0.1283 0.1341 0.2446 0.2347 0.3419 0.1576 0.1723 0.3708 0.2853 0.6034 0.3199zm-2.9389 17.443-0.218-0.7776c-0.3855-1.4007-0.7878-2.818-1.1789-4.1967-0.19-0.6617-0.3743-1.329-0.5587-1.9963l-3.5703-12.403 0.9163-0.1268 0.3632-0.0607 0.6649-0.1047c0.7599-0.1379 1.4303-0.2758 2.0449-0.4192 0.7431-0.1764 1.408-0.3474 2.0171-0.5514 0.2961-0.0883 0.6481-0.1986 1.0001-0.3199l0.7152-0.2371c0.162 0.6618 0.2905 1.2298 0.4023 1.7647-0.1058 0.0541-0.2005 0.127-0.2794 0.2151-0.1888 0.1985-0.2928 0.4612-0.2905 0.7334-0.4973 0.0827-1.0114 0.171-1.5254 0.2702-0.6314 0.1214-1.313 0.2703-2.0841 0.4467-0.0445-0.0748-0.099-0.1435-0.162-0.204-0.0987-0.0952-0.216-0.1697-0.3446-0.219-0.1287-0.0493-0.2662-0.0723-0.4041-0.0678-0.2838 8e-4 -0.5556 0.1127-0.7558 0.3113-0.2001 0.1986-0.3121 0.4675-0.3114 0.7475 8e-4 0.2801 0.1142 0.5485 0.3154 0.746s0.4736 0.3081 0.7574 0.3074h0.095c0.2179 1.1029 0.4693 2.283 0.7822 3.6011 0.162 0.7003 0.3352 1.4172 0.5587 2.2058l-0.1117 0.0993c-0.1881 0.1919-0.2993 0.4447-0.3129 0.7114-4e-4 0.1405 0.0276 0.2796 0.0823 0.4094 0.0547 0.1297 0.135 0.2473 0.2362 0.3461 0.1536 0.1457 0.3484 0.2419 0.5587 0.2758l0.1341 0.5073c0.3911 1.4779 0.8269 3.0055 1.2851 4.5441 0.3632 1.2243 0.7096 2.3052 1.0448 3.3088-0.172 0.0927-0.315 0.2301-0.4135 0.3973s-0.1487 0.3579-0.1452 0.5513c0.0065 0.1847 0.0614 0.3646 0.1593 0.5221 0.098 0.1575 0.2356 0.2873 0.3994 0.3768-0.0335 0.1323-0.067 0.2647-0.1061 0.397-0.2068 0.75-0.4135 1.4173-0.6202 2.0294-0.3744-1.3731-0.7655-2.7794-1.1398-4.1415zm-2.0674-17.211c9e-4 0.1121-0.041 0.2203-0.1173 0.3033-0.0376 0.039-0.0826 0.0703-0.1324 0.0921-0.0499 0.0217-0.1036 0.0336-0.1581 0.0348-0.0544 0.0023-0.1087-0.0063-0.1595-0.0252-0.0509-0.019-0.0974-0.048-0.1367-0.0851-0.0795-0.0797-0.1254-0.1861-0.1285-0.2978-0.0032-0.0554 5e-3 -0.1109 0.0242-0.1631 0.0192-0.0521 0.049-0.0998 0.0876-0.1402 0.0398-0.041 0.0875-0.0738 0.1402-0.0966 0.0528-0.0227 0.1095-0.0349 0.1671-0.0358 0.1064 0.0015 0.2083 0.0429 0.2849 0.1158 0.081 0.0786 0.1272 0.1857 0.1285 0.2978zm-10.784 23.366c-0.0174 0.2403-0.0473 0.4796-0.0894 0.7169-0.0335 0.2041-0.0782 0.4247-0.1453 0.7004l-0.0559 0.2095c-0.1172 0.4173-0.2105 0.8408-0.2793 1.2684-0.0779 0.5057-0.119 1.0162-0.1229 1.5276-0.0032 0.0145-0.0032 0.0296 0 0.0441 0 0.1489 0.0391 0.2813 0.0614 0.4136 0.0222 0.0983 0.039 0.1977 0.0503 0.2978 0.0397 0.1817 0.0397 0.3698 0 0.5515-0.0085 0.0493-0.0342 0.0942-0.0726 0.1268-0.0692 0.0618-0.1441 0.1172-0.2235 0.1655-0.1621 0.1047-0.3464 0.2095-0.5588 0.3364l-0.4637 0.2371-0.19 0.1048c-0.1367 0.089-0.2529 0.2055-0.3408 0.3419l-0.1564 0.2482-0.0447 0.0716c-0.0513 0.0857-0.1073 0.1685-0.1677 0.2482-0.0208 0.0235-0.0432 0.0456-0.067 0.0662l-0.0726 0.0441c-0.1773 0.0772-0.3659 0.1256-0.5588 0.1434-0.1852 0.0272-0.3735 0.0272-0.5587 0h-0.0894l-0.0671-0.0386-0.1061-0.0772c-0.0035-0.033-0.0035-0.0663 0-0.0993 0-0.1213 0.0279-0.2206 0.0447-0.3088 0.0342-0.1818 0.1024-0.3557 0.2011-0.5129 0.0988-0.1521 0.2329-0.2788 0.3911-0.3695 0.1956-0.1268 0.4079-0.2481 0.5588-0.3364 0.4023-0.215 0.8213-0.4246 1.2459-0.6176 0.0779-0.0374 0.1419-0.098 0.183-0.1732s0.0572-0.1612 0.0461-0.2459c-0.0838-0.5515-0.1508-1.0258-0.2011-1.4559-0.0503-0.4302-0.1118-0.9871-0.1565-1.4559-0.0447-0.4687-0.0894-1.0147-0.1117-1.4559 0-0.2206 0-0.4742-0.0279-0.7334-0.028-0.2592 0-0.5184 0-0.728 0.0053-0.0329 0.0053-0.0664 0-0.0992-0.1533-0.4512-0.2764-0.9117-0.3688-1.3787-0.0994-0.4693-0.1666-0.9446-0.2012-1.4228-0.0308-0.4793-0.0308-0.9601 0-1.4393 0-0.3585 0.0392-0.6563 0.0783-0.932l0.2849 0.2316c0.6334 0.453 1.3635 0.7568 2.1344 0.8879 0.3372 0.063 0.6793 0.098 1.0225 0.1047 0 0.193-0.0336 0.364-0.0503 0.5515-0.0335 0.3033-0.0727 0.6232-0.1229 0.9485-0.0503 0.3254-0.1118 0.6122-0.19 0.9265-0.073 0.2966-0.1721 0.5863-0.2961 0.8658-0.0079 0.0364-0.0079 0.074 0 0.1103-0.0153 0.466-0.0639 0.9304-0.1453 1.3897zm3.0842 0.2151c-0.056 0.498-0.0672 1-0.0335 1.5l0.095 1.4559v1.3456l-0.1006 0.2371c-0.0391 0.0993-0.0726 0.204-0.1118 0.3088-0.0979-0.1316-0.2146-0.2486-0.3464-0.3474-0.2795-0.2068-0.6088-0.338-0.9554-0.3805-0.0875-0.0055-0.1752-0.0055-0.2626 0-0.2634-0.0026-0.5243 0.05-0.7655 0.1544-0.1868 0.0807-0.3558 0.1969-0.4973 0.3419v-0.0993c0-0.1158-0.0446-0.2206-0.0614-0.3198-0.0089-0.4697 0.0135-0.9395 0.067-1.4063 0.0447-0.4025 0.1341-0.7941 0.2235-1.2132l0.0503-0.2096c0.1042-0.5012 0.164-1.0105 0.1788-1.522 0.0241-0.4967 0.0091-0.9946-0.0447-1.489 0.1029-0.2951 0.1832-0.5974 0.2403-0.9044 0.0592-0.3229 0.1002-0.6488 0.1229-0.9761 0.0447-0.5043 0.0634-1.0104 0.0559-1.5166 0.3345-0.0048 0.6684-0.0288 1.0001-0.0716 0.3644-0.0463 0.7261-0.1108 1.0839-0.1931 0 0.5515 0 1.1581 0.0447 1.7427 0.0443 0.7169 0.1264 1.4311 0.2459 2.1397-0.1108 0.4682-0.1874 0.9437-0.2291 1.4228zm2.7937 10.064c-0.3999 0.3363-0.841 0.6217-1.3131 0.8493-0.4541 0.2146-0.9493 0.3311-1.4527 0.3419-0.3662 0.0065-0.7314-0.0399-1.0839-0.1379 0.4983-0.4184 0.9313-0.9071 1.2851-1.4503 0.2515-0.4072 0.4274-0.8554 0.5196-1.3236 0.0563-0.3297 0.0676-0.6654 0.0335-0.9981h0.0559l0.419 0.1985 0.1677 0.1048s0.0503 0.0717 0.0838 0.1378c0.0335 0.0662 0.0503 0.0993 0.0782 0.16 0.0674 0.1407 0.1439 0.277 0.2291 0.4081 0.049 0.0715 0.1072 0.1363 0.1732 0.193l0.0726 0.0496 0.1118 0.0662c0.0968 0.0551 0.1918 0.1048 0.2849 0.1489 0.1931 0.0908 0.3908 0.1718 0.5923 0.2426 0.2049 0.0693 0.4139 0.1264 0.6258 0.171h0.067c-0.3296 0.3198-0.6202 0.5901-0.9275 0.8382zm1.4247-1.7316c0.0017 0.0183 0.0017 0.0368 0 0.0552-0.0143 0.018-0.0338 0.0314-0.0558 0.0386h-0.1174l-0.2402-0.0331c-0.1746-0.0335-0.3464-0.0796-0.5141-0.1379-0.1734-0.058-0.3432-0.1261-0.5084-0.204-0.0782-0.0331-0.1565-0.0773-0.2291-0.1159l-0.067-0.0386-0.0336-0.033c-0.0447-0.0717-0.0949-0.171-0.1564-0.2868-0.0302-0.066-0.0638-0.1304-0.1006-0.193v-0.0386c-0.0586-0.1177-0.1381-0.2242-0.2347-0.3144-0.0938-0.0798-0.1969-0.1483-0.3073-0.204-0.1809-0.0988-0.3674-0.1871-0.5587-0.2647l-0.2682-0.1103c-0.095-0.0441-0.1732-0.0772-0.2067-0.0993h-0.0279c-0.0234-0.0113-0.0414-0.031-0.0503-0.0551-0.0262-0.0496-0.0414-0.1041-0.0447-0.1599-0.0239-0.1665-0.0239-0.3354 0-0.5019 0.0319-0.1866 0.0767-0.3709 0.1341-0.5515 0.0335-0.0937 0.0614-0.1875 0.095-0.2757l0.0614-0.2978c0.0063-0.042 0.0063-0.0848 0-0.1268 0-0.4412 0-0.91-0.0782-1.4835l-0.1397-1.4448c-0.0491-0.4672-0.0603-0.9374-0.0335-1.4063 0.0226-0.4702 0.0786-0.9382 0.1676-1.4007 0.0083-0.0307 0.0083-0.0631 0-0.0938-0.0726-0.3364-0.1453-0.6948-0.2067-1.0643-0.0615-0.3695-0.123-0.7555-0.1621-1.0699-0.0391-0.3143-0.0894-0.7114-0.1229-1.1029 0-0.2206-0.0447-0.4412-0.0614-0.6893 0.2849-0.0662 0.5587-0.1489 0.8436-0.2317 0.716-0.2145 1.4055-0.5067 2.0562-0.8713 0.1508-0.0882 0.3017-0.182 0.4414-0.2812 0 0.3529 0.0335 0.7334 0.0335 1.1746 0 0.5515-0.0335 1.1029-0.0838 1.682-0.0559 0.5559-0.1436 1.1083-0.2626 1.6544-0.1209 0.5384-0.2815 1.0674-0.4805 1.5827-0.0095 0.0343-0.0095 0.0705 0 0.1048-0.0428 0.9586-0.1398 1.9142-0.2906 2.8621-0.0894 0.5515-0.1676 1.0092-0.2458 1.4228-0.095 0.5515-0.19 0.9927-0.285 1.4173-0.017 0.0751-0.0118 0.1535 0.0149 0.2259 0.0268 0.0723 0.0739 0.1355 0.136 0.1822 0.3352 0.2537 0.6425 0.4963 0.9219 0.7169l0.2123 0.182c0.0727 0.0662 0.1229 0.1103 0.19 0.182 0.067 0.0717 0.2458 0.2757 0.3688 0.4246 0.1229 0.1489 0.2346 0.3033 0.3296 0.4467 0.0469 0.0674 0.0898 0.1373 0.1285 0.2096 0.0271 0.0563 0.0478 0.1155 0.0615 0.1764 0.0218 0.1463 0.0218 0.2949 0 0.4412zm0.8996-1.8309c-0.0782 0.2537-0.162 0.5019-0.257 0.7666-0.0503-0.0883-0.1006-0.171-0.1453-0.2372-0.1117-0.1654-0.2347-0.3308-0.3799-0.5073-0.1453-0.1765-0.2738-0.3199-0.4135-0.4633-0.0778-0.0831-0.1599-0.1622-0.2458-0.2371l-0.1341-0.1158c0.1285-0.1158 0.2402-0.2261 0.3408-0.3364 0.1665-0.1994 0.3195-0.4095 0.4582-0.6287 0.2611-0.4414 0.4781-0.9068 0.6481-1.3897 0.1676-0.4467 0.3017-0.8989 0.4526-1.4338l0.1005-0.3585c0-0.0772 0.0391-0.1433 0.0615-0.215 0.0223-0.0717 0.0279-0.0827 0.0391-0.1214 0.0112-0.0386 0.0279-0.0882 0.0391-0.1323 0.0173-0.0677 0.0397-0.1341 0.0671-0.1985l0.1285-0.3254c0.3521-0.8534 0.908-1.6102 1.6203-2.2059 0.7127-0.5565 1.5104-0.9976 2.3634-1.307 0.0503 0.193 0.1006 0.3861 0.1565 0.5515l0.0335 0.1324c-0.4398 0.0705-0.8682 0.1985-1.2739 0.3805-0.4852 0.2475-0.9207 0.5801-1.2851 0.9816-0.3884 0.3977-0.7075 0.8561-0.9443 1.3566-0.2305 0.4965-0.3994 1.0186-0.5028 1.5552-0.0559 0.3198-0.1006 0.6231-0.1397 0.9154s-0.0503 0.4136-0.0838 0.6232c-0.0726 0.4797-0.162 0.965-0.2682 1.4889s-0.2961 1.0202-0.4135 1.4614z" clip-path="url(#clipPath692)"/>
  <path transform="translate(5.3895 7.5)" d="m48.297 42.574 0.6481-0.215z" clip-path="url(#clipPath686)"/>
  <path transform="translate(5.3895 7.5)" d="m50.459 42.463-3.0675-1.7316c-0.0108-0.0069-0.0234-0.0105-0.0363-0.0105s-0.0255 0.0036-0.0363 0.0105c-0.0227 0.0158-0.0387 0.0394-0.0447 0.0662v0.3309c-0.0024 0.016 0 0.0324 0.0069 0.0471 7e-3 0.0148 0.0182 0.0271 0.0322 0.0356l0.8772 0.4908-0.1061 1.103-0.9555 0.3198c-0.0149 0.0043-0.0282 0.0129-0.0381 0.0247-0.01 0.0118-0.0162 0.0262-0.0177 0.0415l-0.0559 0.5515c-5e-4 0.0137 0.0023 0.0273 0.0082 0.0397 0.0058 0.0125 0.0145 0.0234 0.0253 0.0319 0.0161 0.0065 0.0342 0.0065 0.0503 0l3.4697-1.158c0.0147-0.0056 0.0274-0.0154 0.0364-0.0282s0.0138-0.028 0.0139-0.0435c0.0029-0.0154 6e-4 -0.0312-0.0065-0.0451-7e-3 -0.0139-0.0185-0.0252-0.0326-0.0321zm-1.95 0.2041 0.1006-0.7169 0.1955 0.1103 0.5979 0.3309z" clip-path="url(#clipPath680)"/>
  <path transform="translate(5.3895 7.5)" d="m3.3523 41.36 3.3189 1.1802c0.01083 0.0068 0.02344 0.0105 0.03632 0.0105s0.02549-0.0037 0.03632-0.0105c0.01075-0.0074 0.01946-0.0174 0.02531-0.0289 0.00586-0.0116 0.00868-0.0244 0.00821-0.0373v-0.3364c-9e-5 -0.0156-0.00493-0.0308-0.01391-0.0435-0.00897-0.0128-0.02165-0.0227-0.03638-0.0282l-0.95543-0.3364-0.0894-1.103 0.88839-0.4742c0.01357-0.0076 0.02454-0.019 0.03151-0.0327 0.00697-0.0138 0.00961-0.0293 0.0076-0.0445l-0.0447-0.5515c-1.2e-4 -0.0134-0.00379-0.0266-0.01065-0.0382s-0.01667-0.0213-0.02846-0.028c-0.01637-0.0051-0.03392-0.0051-0.05029 0l-3.2742 1.7151c-0.01413 0.0069-0.02559 0.0182-0.03265 0.0321-0.00706 0.014-0.00932 0.0298-0.00646 0.0451 0.00116 0.0146 0.0065 0.0286 0.0154 0.0403 0.00891 0.0117 0.021 0.0207 0.03488 0.0259zm1.8829-0.5515 0.05587 0.7335-0.21232-0.0717-0.64254-0.2316z" clip-path="url(#clipPath674)"/>
  <path transform="translate(5.3895 7.5)" d="m3.4586 31.748 3.0283 1.7812c0.01189 0.0068 0.02538 0.0103 0.03911 0.0103s0.02722-0.0035 0.03911-0.0103c0.01191-0.0071 0.02209-0.0167 0.02981-0.0282 0.00773-0.0114 0.01281-0.0244 0.01489-0.038l0.03911-0.3309c0.00131-0.0151-0.00164-0.0304-0.00854-0.044-0.00691-0.0136-0.01748-0.0251-0.03057-0.0332l-0.87163-0.5183 0.12293-1.103 0.9666-0.3033c0.01458-0.0049 0.0275-0.0137 0.03736-0.0253 0.00985-0.0117 0.01626-0.0258 0.01852-0.0409l0.06146-0.5514c0.00637-0.0109 0.00973-0.0233 0.00973-0.0359s-0.00336-0.0249-0.00973-0.0358c-0.01631-0.0055-0.03398-0.0055-0.05029 0l-3.5424 1.0864c-0.01417 0.0067-0.02612 0.0173-0.03448 0.0305s-0.01279 0.0284-0.01279 0.0439c0 0.0156 0.00443 0.0308 0.01279 0.0439 0.00836 0.0132 0.02031 0.0238 0.03448 0.0306zm1.95-0.171-0.08381 0.7335-0.19555-0.1159-0.55874-0.3474z" clip-path="url(#clipPath668)"/>
 </g>
 <defs>
  <clipPath id="clipPath668">
   <rect width="169" height="75" fill="#fff"/>
  </clipPath>
  <clipPath id="clipPath674">
   <rect width="169" height="75" fill="#fff"/>
  </clipPath>
  <clipPath id="clipPath680">
   <rect width="169" height="75" fill="#fff"/>
  </clipPath>
  <clipPath id="clipPath686">
   <rect width="169" height="75" fill="#fff"/>
  </clipPath>
  <clipPath id="clipPath692">
   <rect width="169" height="75" fill="#fff"/>
  </clipPath>
  <clipPath id="clipPath698">
   <rect width="169" height="75" fill="#fff"/>
  </clipPath>
  <clipPath id="clipPath704">
   <rect width="169" height="75" fill="#fff"/>
  </clipPath>
  <clipPath id="clipPath710">
   <rect width="169" height="75" fill="#fff"/>
  </clipPath>
  <clipPath id="clipPath716">
   <rect width="169" height="75" fill="#fff"/>
  </clipPath>
  <clipPath id="clipPath722">
   <rect width="169" height="75" fill="#fff"/>
  </clipPath>
  <clipPath id="clipPath728">
   <rect width="169" height="75" fill="#fff"/>
  </clipPath>
  <clipPath id="clipPath734">
   <rect width="169" height="75" fill="#fff"/>
  </clipPath>
  <clipPath id="clipPath740">
   <rect width="169" height="75" fill="#fff"/>
  </clipPath>
  <clipPath id="clipPath746">
   <rect width="169" height="75" fill="#fff"/>
  </clipPath>
  <clipPath id="clipPath752">
   <rect width="169" height="75" fill="#fff"/>
  </clipPath>
  <clipPath id="clipPath758">
   <rect width="169" height="75" fill="#fff"/>
  </clipPath>
  <clipPath id="clipPath764">
   <rect width="169" height="75" fill="#fff"/>
  </clipPath>
  <clipPath id="clipPath770">
   <rect width="169" height="75" fill="#fff"/>
  </clipPath>
  <clipPath id="clipPath776">
   <rect width="169" height="75" fill="#fff"/>
  </clipPath>
  <clipPath id="clipPath782">
   <rect width="169" height="75" fill="#fff"/>
  </clipPath>
  <clipPath id="clipPath788">
   <rect width="169" height="75" fill="#fff"/>
  </clipPath>
  <clipPath id="clipPath794">
   <rect width="169" height="75" fill="#fff"/>
  </clipPath>
  <clipPath id="clipPath800">
   <rect width="169" height="75" fill="#fff"/>
  </clipPath>
  <clipPath id="clipPath806">
   <rect width="169" height="75" fill="#fff"/>
  </clipPath>
  <clipPath id="clipPath812">
   <rect width="169" height="75" fill="#fff"/>
  </clipPath>
  <clipPath id="clipPath818">
   <rect width="169" height="75" fill="#fff"/>
  </clipPath>
  <clipPath id="clipPath824">
   <rect width="169" height="75" fill="#fff"/>
  </clipPath>
  <clipPath id="clipPath830">
   <rect width="169" height="75" fill="#fff"/>
  </clipPath>
  <clipPath id="clipPath836">
   <rect width="169" height="75" fill="#fff"/>
  </clipPath>
  <clipPath id="clipPath842">
   <rect width="169" height="75" fill="#fff"/>
  </clipPath>
  <clipPath id="clipPath848">
   <rect width="169" height="75" fill="#fff"/>
  </clipPath>
  <clipPath id="clipPath854">
   <rect width="169" height="75" fill="#fff"/>
  </clipPath>
  <clipPath id="clipPath860">
   <rect width="169" height="75" fill="#fff"/>
  </clipPath>
  <clipPath id="clipPath866">
   <rect width="169" height="75" fill="#fff"/>
  </clipPath>
  <clipPath id="clipPath872">
   <rect width="169" height="75" fill="#fff"/>
  </clipPath>
  <clipPath id="clipPath878">
   <rect width="169" height="75" fill="#fff"/>
  </clipPath>
  <clipPath id="clipPath884">
   <rect width="169" height="75" fill="#fff"/>
  </clipPath>
  <clipPath id="clipPath890">
   <rect width="169" height="75" fill="#fff"/>
  </clipPath>
  <clipPath id="clipPath896">
   <rect width="169" height="75" fill="#fff"/>
  </clipPath>
  <clipPath id="clipPath902">
   <rect width="169" height="75" fill="#fff"/>
  </clipPath>
  <clipPath id="clipPath902-3">
   <rect width="169" height="75" fill="#fff"/>
  </clipPath>
 </defs>
</svg>
