<?xml version="1.0" encoding="UTF-8" standalone="no"?>
<svg
   version="1.1"
   width="806.64343"
   height="506.71494"
   id="svg1"
   sodipodi:docname="openeye.svg"
   inkscape:version="1.4.2 (ebf0e940d0, 2025-05-08)"
   xmlns:inkscape="http://www.inkscape.org/namespaces/inkscape"
   xmlns:sodipodi="http://sodipodi.sourceforge.net/DTD/sodipodi-0.dtd"
   xmlns="http://www.w3.org/2000/svg"
   xmlns:svg="http://www.w3.org/2000/svg">
  <defs
     id="defs1" />
  <sodipodi:namedview
     id="namedview1"
     pagecolor="#505050"
     bordercolor="#eeeeee"
     borderopacity="1"
     inkscape:showpageshadow="0"
     inkscape:pageopacity="0"
     inkscape:pagecheckerboard="0"
     inkscape:deskcolor="#505050"
     inkscape:zoom="0.37228331"
     inkscape:cx="-359.94093"
     inkscape:cy="276.67101"
     inkscape:window-width="1920"
     inkscape:window-height="1017"
     inkscape:window-x="0"
     inkscape:window-y="0"
     inkscape:window-maximized="1"
     inkscape:current-layer="svg1" />
  <path
     d="m 41.414301,230.90243 c 6.360484,3.53922 11.383141,8.85715 16.582031,13.875 4.64704,4.47803 9.588268,8.52395 14.667969,12.5 l 2.933594,2.3125 c 65.161635,50.76262 138.828835,87.70372 219.066405,107.6875 l 3.0249,0.75391 c 17.76329,4.3378 35.85125,6.9498 53.9751,9.24609 l 3.22314,0.41113 c 35.21066,4.2009 72.65765,3.33307 107.77686,-1.41113 l 3.73096,-0.50391 c 53.98743,-7.60882 106.96879,-24.56948 155.41259,-49.55029 1.85091,-0.94298 3.7135,-1.85674 5.58301,-2.76221 41.38891,-20.1123 80.13907,-46.51189 115.5708,-75.78076 3.86264,-3.18249 7.77677,-6.29898 11.70264,-9.40283 l 2.10156,-1.71094 c 6.33729,-5.016 12.37133,-7.94289 20.59766,-7.64453 6.01885,0.92991 12.1249,3.9476 16.30078,8.35547 4.83956,7.05155 6.0768,13.55309 5,22 -3.2461,11.00068 -12.60885,17.09235 -21.29639,23.70166 -2.37443,1.80958 -4.72614,3.64785 -7.07861,5.48584 -1.20804,0.93788 -50.13622,36.72455 -53.25,39 -45.38471,28.01228 -66.40496,46.66094 -101.14087,58.35669 -61.80431,20.80981 -47.2177,16.13542 -66.04663,21.64331 -39.24129,11.58742 -80.86813,21.39645 -122.1191,20.57508 -52.15692,0.33521 -52.54496,0.19442 -52.54496,0.19442 -42.60099,-1.01715 -83.80158,-10.27037 -124.69246,-21.60087 -50.94082,-18.01298 -49.75749,-18.14373 -49.75749,-18.14373 -38.63691,-15.87592 -76.33393,-34.52822 -110.735843,-58.36938 -2.898994,-2.1716 -29.603878,-21.85458 -51.212646,-37.96802 -4.757297,-3.76187 -9.302503,-7.66202 -13.777344,-11.75391 -2.158387,-1.95009 -4.367212,-3.81713 -6.597656,-5.68359 -5.81781,-5.09942 -10.5340705,-10.60152 -11.7499995,-18.4375 -0.086236,-7.50252 1.427007,-14.0901 6.5742185,-19.72266 7.99015,-7.30784 17.955909,-9.97155 28.175781,-5.65234 z"
     fill="#000000"
     id="path1"
     sodipodi:nodetypes="cccccccccccccccccccccscccccccccccc" />
  <path
     d="m 765.22904,275.81249 c -6.3605,-3.5392 -11.3831,-8.8571 -16.582,-13.875 -4.6471,-4.478 -9.5883,-8.5239 -14.668,-12.5 l -2.9336,-2.3125 c -65.1616,-50.7626 -138.8288,-87.7037 -219.0664,-107.6875 l -3.0249,-0.7539 c -17.7633,-4.3378 -35.8513,-6.9498 -53.9751,-9.2461 l -3.2231,-0.4111 c -35.2107,-4.2009 -72.6577,-3.3331 -107.77689,1.4111 l -3.731,0.5039 c -53.9874,7.6088 -106.9687,24.5695 -155.4125,49.5503 -1.8509,0.943 -3.7135,1.8568 -5.583,2.7622 -41.3889,20.1123 -80.139099,46.5119 -115.570803,75.7808 -3.8626,3.1825 -7.7768,6.299 -11.7026,9.4028 l -2.1016,1.711 c -6.3373,5.016 -12.3713,7.9428 -20.5977,7.6445 -6.0188,-0.9299 -12.1249,-3.9476 -16.3007,-8.3555 -4.8395995,-7.0515 -6.0767995,-13.5531 -4.9999995,-22 3.2460995,-11.0007 12.6087995,-17.0923 21.2962995,-23.7016 2.3745,-1.8096 4.7262,-3.6479 7.0787,-5.4859 1.208,-0.9379 2.4162,-1.8755 3.625,-2.8125 -0.5988,-2.9639 -1.4739,-4.9883 -3.2305,-7.4414 l -1.4126,-1.989 -1.5444,-2.1321 -1.607,-2.2473 c -4.0623,-5.6609 -8.1934,-11.2713 -12.3305,-16.8777 l -1.7774,-2.4119 c -2.6864,-3.6431 -5.3808,-7.2791 -8.1015995,-10.8967 -5.6861,-7.6321 -10.47350003,-14.1817 -9.93350003,-24.0664 1.08730003,-7.3827 3.96400003,-13.0517 9.89450003,-17.6797 6.1783995,-3.8039 12.5920995,-4.8714 19.7225995,-3.832 13.8796,3.4348 22.4632,19.8591 30.2703,30.8955 4.3833,6.186 8.8929,12.2778 13.4045,18.3706 l 1.7393,2.3511 1.5527,2.0945 c 1.1575,1.5927 2.2614,3.2243 3.3536,4.8625 3.6314,-1.3153 6.511204,-2.912 9.625004,-5.1875 84.440599,-51.2796 101.140799,-58.3567 101.140799,-58.3567 -3.9642,-8.1751 -7.9214,-16.3536 -11.8718,-24.53539 -1.1551,-2.392 -2.3124,-4.78288 -3.4717,-7.17285 -1.2712,-2.62162 -2.5356,-5.2464 -3.7973,-7.87256 l -1.0975,-2.25121 c -3.4958,-7.31717 -4.9886,-14.74353 -2.465,-22.62379 2.6894,-6.35463 7.0636,-11.39041 13.25,-14.5 6.6712,-2.53711 12.8903,-2.49799 19.5,0.1875 11.1753,5.63678 15.528,17.82718 20.4375,28.625 0.8565,1.86797 1.7151,3.73503 2.5736,5.60208 0.5719,1.24391 1.1431,2.48812 1.7136,3.73261 2.5482,5.55515 5.1505,11.08355 7.7753,16.60281 l 1.1474,2.41528 c 0.8457,1.77871 1.6927,3.55682 2.5401,5.33472 6.7229,-1.4078 13.2389,-3.20515 19.8124,-5.1875 39.2413,-11.58742 80.8681,-21.39644 122.11909,-20.57507 -0.185,-11.0535 -0.069,-21.45993 -0.1638,-37.36431 -0.012,-1.69703 -0.029,-3.39403 -0.051,-5.09094 -0.2457,-19.72715 -0.2457,-19.72715 5.0452,-27.30561 5.9621,-5.73231 10.8554,-8.48968 19.1758,-8.91406 7.1212,0.23007 14.1465,3.24838 19.0625,8.4375 6.0893,8.5191 5.7804,17.67951 5.8125,27.6875 0.023,1.65001 0.047,3.3 0.074,4.94995 0.07,4.78752 0.095,9.5746 0.1135,14.36255 l 0.025,3.96582 c 0.038,6.34552 0.034,12.68884 -0.025,19.03418 l 3.4766,0.043 c 42.6009,1.01715 83.8015,10.27037 124.6924,21.60087 2.3674,-5.15098 4.5418,-9.07733 6.956,-13.51887 3.0496,-5.66636 6.0229,-11.35672 8.875,-17.125 0.9884,-1.977 1.9785,-3.95311 2.9687,-5.9292 0.714,-1.43372 1.422,-2.87046 2.125,-4.30957 9.5118,-19.41563 9.5118,-19.41563 20.2813,-23.76124 6.8264,-1.87667 13.0591,-1.06364 19.375,2.0625 5.7988,3.5614 9.195,8.20423 11.625,14.5 2.1526,11.83916 -3.086,21.42396 -8.625,31.625 -0.9739,1.82487 -1.9465,3.65039 -2.918,5.47657 l -1.4468,2.71191 c -2.0412,3.86656 -4.0033,7.77058 -5.9477,11.68652 l -0.9756,1.9636 c -0.8219,1.6574 -1.642,3.3156 -2.4619,4.9739 l -1.2148,2.2461 c -0.9895,1.89 -0.9056,1.5542 -1.7925,4.2922 l 2.9338,1.2493 c 38.6369,15.8759 76.3339,34.5282 110.7358,58.3694 2.899,2.1716 2.899,2.1716 6.3377,2.843 1.853,-2.2756 3.5925,-4.5637 5.3125,-6.9375 1.0851,-1.4733 2.171,-2.9459 3.2578,-4.418 l 1.708,-2.3217 c 3.2982,-4.4496 6.6835,-8.8327 10.0635,-13.2202 2.4441,-3.1798 4.867,-6.3655 7.1973,-9.6299 5.4165,-7.5292 10.9333,-14.5283 20.4609,-16.4727 7.9753,-0.8199 14.3989,0.7283 20.75,5.6875 5.5041,5.1145 7.9568,11.2153 8.4023,18.6758 -0.4764,8.2463 -4.3226,14.3976 -9.5546,20.5195 -3.5301,4.1495 -6.7232,8.5601 -9.9727,12.9297 -7.3272,9.8384 -7.3272,9.8384 -10.8164,14.2656 l -1.4224,1.8094 c -1.2362,1.5642 -2.4808,3.1218 -3.726,4.6789 -1.942,2.3557 -1.942,2.3557 -1.6602,5.4336 2.1129,2.0654 2.1129,2.0654 4.875,4.125 4.7573,3.7619 9.3025,7.662 13.7773,11.7539 2.1584,1.9501 4.3673,3.8172 6.5977,5.6836 5.8178,5.0994 10.5341,10.6015 11.75,18.4375 0.086,7.5025 -1.427,14.0901 -6.5742,19.7227 -7.9902,7.3078 -17.9559,9.9715 -28.1758,5.6523 z"
     fill="#000000"
     id="path1-5"
     sodipodi:nodetypes="ccccccccccccccccccccccccccccccccccccccscccccccccccccccccccccccccccccccccccccccccccccccccccccccccccccccc" />
  <circle
     style="fill:#000000;fill-opacity:1;stroke-width:1.40839"
     id="path2"
     cx="403.32172"
     cy="253.35747"
     r="115.04099" />
</svg>
