<svg width="16" height="16" viewBox="0 0 16 16" fill="none" xmlns="http://www.w3.org/2000/svg">
<g clip-path="url(#clip0_169_741)">
<path d="M13.4184 6.6943C13.2921 6.56805 13.0874 6.56805 12.961 6.6943C12.3687 7.28662 11.5213 7.55568 10.6946 7.41387C10.5184 7.38384 10.3513 7.50193 10.3211 7.67796C10.2909 7.854 10.4091 8.02125 10.5852 8.05141C10.767 8.08259 10.9494 8.09784 11.1309 8.09784C11.9813 8.09784 12.8081 7.76203 13.4184 7.15171C13.5448 7.02543 13.5448 6.82064 13.4184 6.6943Z" fill="#003DA5"/>
<path d="M13.4184 6.6943C13.2921 6.56805 13.0874 6.56805 12.961 6.6943C12.3687 7.28662 11.5213 7.55568 10.6946 7.41387C10.5184 7.38384 10.3513 7.50193 10.3211 7.67796C10.2909 7.854 10.4091 8.02125 10.5852 8.05141C10.767 8.08259 10.9494 8.09784 11.1309 8.09784C11.9813 8.09784 12.8081 7.76203 13.4184 7.15171C13.5448 7.02543 13.5448 6.82064 13.4184 6.6943Z" fill="white" fill-opacity="0.3"/>
<path d="M14.576 1.42369C12.6777 -0.474554 9.58858 -0.474586 7.68989 1.42373C6.29189 2.82201 5.88317 4.93338 6.63914 6.74391L0.0947323 13.2884C0.0301697 13.3529 -0.0040803 13.4418 0.000388454 13.5329L0.101295 15.5918C0.10942 15.758 0.242326 15.8909 0.408545 15.899L2.46711 15.9996C2.47242 15.9998 2.47764 16 2.48292 16C2.56845 16 2.65073 15.966 2.71155 15.9053L3.41758 15.1996C3.47827 15.1389 3.51236 15.0567 3.51236 14.9708V13.4566H5.02661C5.11239 13.4566 5.19467 13.4225 5.2553 13.3619L6.04667 12.5705C6.10733 12.5098 6.14139 12.4276 6.14139 12.3418V10.8275H7.65564C7.74143 10.8275 7.82371 10.7934 7.88433 10.7328L9.2563 9.36082C11.0671 10.1166 13.1782 9.70779 14.5762 8.31013C14.5762 8.3101 14.5762 8.3101 14.5762 8.31007C16.4746 6.41141 16.4744 3.32219 14.576 1.42369ZM14.1189 7.85266C12.8594 9.112 10.9322 9.44557 9.3234 8.68275C9.19977 8.62422 9.05283 8.64963 8.95615 8.74632L7.52174 10.1807H5.81802C5.63939 10.1807 5.49461 10.3255 5.49461 10.5041V12.2078L4.89267 12.8098H3.18892C3.0103 12.8098 2.86552 12.9546 2.86552 13.1332V14.8369L2.35558 15.3466L0.733014 15.2673L0.653483 13.6445L7.25374 7.04416C7.35043 6.94747 7.37586 6.80041 7.31727 6.67688C6.55424 5.06819 6.88783 3.14091 8.14733 1.88113C9.79374 0.235039 12.4724 0.234945 14.1186 1.8811C15.7649 3.52738 15.765 6.20625 14.1189 7.85266Z" fill="#003DA5"/>
<path d="M14.576 1.42369C12.6777 -0.474554 9.58858 -0.474586 7.68989 1.42373C6.29189 2.82201 5.88317 4.93338 6.63914 6.74391L0.0947323 13.2884C0.0301697 13.3529 -0.0040803 13.4418 0.000388454 13.5329L0.101295 15.5918C0.10942 15.758 0.242326 15.8909 0.408545 15.899L2.46711 15.9996C2.47242 15.9998 2.47764 16 2.48292 16C2.56845 16 2.65073 15.966 2.71155 15.9053L3.41758 15.1996C3.47827 15.1389 3.51236 15.0567 3.51236 14.9708V13.4566H5.02661C5.11239 13.4566 5.19467 13.4225 5.2553 13.3619L6.04667 12.5705C6.10733 12.5098 6.14139 12.4276 6.14139 12.3418V10.8275H7.65564C7.74143 10.8275 7.82371 10.7934 7.88433 10.7328L9.2563 9.36082C11.0671 10.1166 13.1782 9.70779 14.5762 8.31013C14.5762 8.3101 14.5762 8.3101 14.5762 8.31007C16.4746 6.41141 16.4744 3.32219 14.576 1.42369ZM14.1189 7.85266C12.8594 9.112 10.9322 9.44557 9.3234 8.68275C9.19977 8.62422 9.05283 8.64963 8.95615 8.74632L7.52174 10.1807H5.81802C5.63939 10.1807 5.49461 10.3255 5.49461 10.5041V12.2078L4.89267 12.8098H3.18892C3.0103 12.8098 2.86552 12.9546 2.86552 13.1332V14.8369L2.35558 15.3466L0.733014 15.2673L0.653483 13.6445L7.25374 7.04416C7.35043 6.94747 7.37586 6.80041 7.31727 6.67688C6.55424 5.06819 6.88783 3.14091 8.14733 1.88113C9.79374 0.235039 12.4724 0.234945 14.1186 1.8811C15.7649 3.52738 15.765 6.20625 14.1189 7.85266Z" fill="white" fill-opacity="0.3"/>
<path d="M12.8934 3.10641C12.6081 2.82116 12.2289 2.66406 11.8256 2.66406C11.4222 2.66406 11.043 2.82116 10.7577 3.10647C10.1693 3.69522 10.1693 4.65315 10.7578 5.24206C11.0522 5.53627 11.4389 5.68337 11.8255 5.68337C12.2122 5.68337 12.5989 5.53627 12.8933 5.24209C12.8933 5.24206 12.8933 5.24206 12.8934 5.24203C13.1786 4.95681 13.3357 4.57756 13.3357 4.17418C13.3357 3.77081 13.1786 3.39165 12.8934 3.10641ZM12.436 4.78465C12.0994 5.12099 11.5516 5.1209 11.2152 4.78474C10.8788 4.44809 10.8788 3.90034 11.2152 3.56384C11.3782 3.40078 11.595 3.31097 11.8256 3.31097C12.0562 3.31097 12.2729 3.40078 12.436 3.56384C12.5991 3.72687 12.6889 3.94365 12.6889 4.17425C12.6889 4.40484 12.599 4.62159 12.436 4.78465Z" fill="#003DA5"/>
<path d="M12.8934 3.10641C12.6081 2.82116 12.2289 2.66406 11.8256 2.66406C11.4222 2.66406 11.043 2.82116 10.7577 3.10647C10.1693 3.69522 10.1693 4.65315 10.7578 5.24206C11.0522 5.53627 11.4389 5.68337 11.8255 5.68337C12.2122 5.68337 12.5989 5.53627 12.8933 5.24209C12.8933 5.24206 12.8933 5.24206 12.8934 5.24203C13.1786 4.95681 13.3357 4.57756 13.3357 4.17418C13.3357 3.77081 13.1786 3.39165 12.8934 3.10641ZM12.436 4.78465C12.0994 5.12099 11.5516 5.1209 11.2152 4.78474C10.8788 4.44809 10.8788 3.90034 11.2152 3.56384C11.3782 3.40078 11.595 3.31097 11.8256 3.31097C12.0562 3.31097 12.2729 3.40078 12.436 3.56384C12.5991 3.72687 12.6889 3.94365 12.6889 4.17425C12.6889 4.40484 12.599 4.62159 12.436 4.78465Z" fill="white" fill-opacity="0.3"/>
<path d="M13.787 5.87891C13.3708 5.87891 13.3701 6.52575 13.787 6.52575C14.2032 6.52575 14.2039 5.87891 13.787 5.87891Z" fill="#003DA5"/>
<path d="M13.787 5.87891C13.3708 5.87891 13.3701 6.52575 13.787 6.52575C14.2032 6.52575 14.2039 5.87891 13.787 5.87891Z" fill="white" fill-opacity="0.3"/>
</g>
<defs>
<clipPath id="clip0_169_741">
<rect width="16" height="16" fill="white"/>
</clipPath>
</defs>
</svg>
