<?xml version="1.0" encoding="UTF-8" standalone="no"?>
<svg
   version="1.1"
   width="296.50543"
   height="278.79602"
   id="svg1"
   sodipodi:docname="send.svg"
   inkscape:version="1.4.2 (ebf0e940d0, 2025-05-08)"
   xmlns:inkscape="http://www.inkscape.org/namespaces/inkscape"
   xmlns:sodipodi="http://sodipodi.sourceforge.net/DTD/sodipodi-0.dtd"
   xmlns="http://www.w3.org/2000/svg"
   xmlns:svg="http://www.w3.org/2000/svg">
  <defs
     id="defs1" />
  <sodipodi:namedview
     id="namedview1"
     pagecolor="#505050"
     bordercolor="#eeeeee"
     borderopacity="1"
     inkscape:showpageshadow="0"
     inkscape:pageopacity="0"
     inkscape:pagecheckerboard="0"
     inkscape:deskcolor="#505050"
     inkscape:zoom="1.4532374"
     inkscape:cx="41.975248"
     inkscape:cy="122.48515"
     inkscape:window-width="1920"
     inkscape:window-height="1017"
     inkscape:window-x="0"
     inkscape:window-y="0"
     inkscape:window-maximized="1"
     inkscape:current-layer="svg1" />
  <g
     id="g1">
    <path
       d="m 26.809221,1.8389776 c 4.194169,1.7531347 8.277767,3.7316441 12.366699,5.7148437 1.478637,0.698124 2.958301,1.3940766 4.438965,2.0878907 2.88771,1.355183 5.770838,2.719372 8.650391,4.091797 4.619383,2.194994 9.286127,4.274325 13.973144,6.320313 10.391174,4.588732 20.655384,9.4305 30.893799,14.348633 9.586601,4.602849 19.203811,9.124259 28.880131,13.5354 6.45571,2.943481 12.90143,5.907245 19.33935,8.889404 15.98102,7.400501 31.97102,14.762557 48.08032,21.880371 9.69435,4.284268 19.29529,8.738427 28.84937,13.32666 9.88974,4.74854 19.79357,9.45436 29.76953,14.01953 1.47122,0.67688 1.47122,0.67688 2.97217,1.36744 5.20672,2.38815 10.43123,4.72098 15.69189,6.98803 1.08161,0.47438 2.16321,0.94875 3.27759,1.4375 2.05694,0.90109 4.1209,1.78638 6.19287,2.65235 6.45506,2.85188 10.96154,6.13809 14.92798,12.05468 1.94927,5.84781 1.78007,12.52212 -0.0625,18.375 -4.59808,6.22967 -10.31102,9.62506 -17.375,12.5 -1.60423,0.6817 -3.20707,1.36667 -4.80859,2.05469 -0.79906,0.34257 -1.59812,0.68514 -2.42139,1.03809 -4.13767,1.83107 -8.14298,3.91363 -12.17096,5.97145 -4.76601,2.41082 -9.59337,4.62714 -14.48578,6.7678 -8.7288,3.85021 -17.39287,7.83076 -26.04614,11.84726 -12.84084,5.95845 -25.70192,11.86555 -38.62964,17.63321 -11.11988,4.96403 -22.1826,10.01715 -33.16016,15.28907 -11.82933,5.68007 -23.70037,11.24826 -35.64062,16.6914 -5.45159,2.4856 -10.889538,4.99989 -16.325685,7.51905 -8.787481,4.07131 -17.582081,8.10698 -26.471191,11.95166 -4.165874,1.80609 -8.290861,3.68477 -12.402344,5.61132 -0.58894,0.27377 -1.177881,0.54753 -1.784668,0.82959 -4.06751,1.89508 -8.107208,3.84147 -12.141113,5.80713 -2.128675,1.01741 -4.257582,2.03434 -6.386719,3.05078 -1.503369,0.74589 -1.503369,0.74589 -3.037109,1.50684 -7.467494,3.53112 -13.880136,5.11517 -21.9003911,2.49316 -4.327445,-3.04888 -7.744186,-6.04705 -9.52343703,-11.16015 -1.326082,-7.69378 1.63179203,-13.90832 4.77343703,-20.77735 0.377373,-0.83305 0.754746,-1.66611 1.143555,-2.52441 2.275466,-5.01311 4.5763461,-10.01409 6.8876951,-15.01074 2.930991,-6.35529 5.778644,-12.74499 8.59375,-19.15235 0.454797,-1.03503 0.909595,-2.07007 1.378174,-3.13647 2.589788,-5.91361 5.139693,-11.84289 7.660644,-17.78613 1.759129,-4.13853 3.542561,-8.26622 5.336182,-12.3899 0.276504,-0.6434 0.553008,-1.2868 0.837891,-1.9497 0.718789,-1.65185 1.470463,-3.28929 2.224609,-4.9253 0.574278,-1.26457 0.574278,-1.26457 1.160156,-2.55468 3.319241,-4.80014 6.862791,-8.72249 12.605713,-10.39307 3.22689,-0.50527 6.414106,-0.81609 9.671631,-1.05225 1.164185,-0.10892 2.328369,-0.21785 3.527832,-0.33007 7.173315,-0.6504 14.357559,-1.11456 21.550293,-1.48633 7.248265,-0.44565 14.463105,-1.34959 21.678955,-2.14795 8.68426,-0.95653 17.37197,-1.79737 26.07935,-2.51392 1.25852,-0.10743 1.25852,-0.10743 2.54248,-0.21704 0.72775,-0.0595 1.45551,-0.11891 2.20532,-0.18017 2.13293,-0.21576 2.13293,-0.21576 4.91577,-1.24952 2.51275,-3.63915 3.10074,-5.32838 2.4375,-9.75 -1.08749,-3.211 -1.08749,-3.211 -3.05933,-4.39502 -3.23822,-1.16417 -6.46372,-1.47356 -9.86645,-1.78466 -0.75513,-0.0751 -1.51025,-0.15013 -2.28826,-0.22747 -2.51129,-0.24711 -5.02355,-0.48241 -7.53596,-0.71785 -1.76307,-0.17194 -3.52609,-0.3444 -5.28906,-0.51733 -10.06708,-0.97555 -20.140681,-1.84445 -30.222659,-2.65063 -1.059715,-0.0858 -2.11943,-0.17165 -3.211257,-0.26008 -5.190696,-0.42008 -10.381758,-0.82828 -15.575119,-1.21405 -1.911088,-0.15139 -3.822141,-0.30323 -5.733155,-0.45556 -0.8599,-0.0593 -1.719801,-0.11863 -2.605758,-0.17974 -6.699843,-0.55316 -13.167162,-1.6739 -18.112992,-6.59761 -2.628529,-3.38374 -4.342377,-7.03016 -6.128906,-10.91406 -0.301127,-0.65326 -0.602254,-1.30652 -0.912506,-1.97958 C 33.351729,96.946762 29.79042,88.939822 26.23842,80.928822 25.889255,80.142786 25.540091,79.35675 25.180345,78.546894 20.713249,68.489709 16.300496,58.412938 12.008196,48.279652 9.3387129,42.002017 6.4814959,35.829327 3.5235759,29.682728 1.0342289,24.159273 -0.43172713,19.659465 0.11341987,13.553822 2.0902369,8.3516724 5.1364689,4.3197895 9.9769459,1.4483526 15.587039,-0.90056569 21.185215,-0.11668149 26.809221,1.8389776 Z"
       fill="#ffffff"
       id="path1" />
  </g>
</svg>
