<?xml version="1.0" encoding="UTF-8" standalone="no"?>
<svg
   height="1000"
   width="875"
   version="1.1"
   id="svg1"
   sodipodi:docname="trash.svg"
   inkscape:version="1.4.2 (ebf0e940d0, 2025-05-08)"
   xmlns:inkscape="http://www.inkscape.org/namespaces/inkscape"
   xmlns:sodipodi="http://sodipodi.sourceforge.net/DTD/sodipodi-0.dtd"
   xmlns="http://www.w3.org/2000/svg"
   xmlns:svg="http://www.w3.org/2000/svg">
  <defs
     id="defs1" />
  <sodipodi:namedview
     id="namedview1"
     pagecolor="#505050"
     bordercolor="#eeeeee"
     borderopacity="1"
     inkscape:showpageshadow="0"
     inkscape:pageopacity="0"
     inkscape:pagecheckerboard="0"
     inkscape:deskcolor="#505050"
     inkscape:zoom="0.404"
     inkscape:cx="-87.871287"
     inkscape:cy="415.84158"
     inkscape:window-width="1920"
     inkscape:window-height="1017"
     inkscape:window-x="0"
     inkscape:window-y="0"
     inkscape:window-maximized="1"
     inkscape:current-layer="g1" />
  <g
     id="g1">
    <path
       d="m 0,281.296 v -68.355 c 1.302,-24.738 11.067,-45.57 29.295,-62.496 18.228,-16.926 39.711,-25.389 64.449,-25.389 h 93.744 V 93.808 c 0,-26.04 9.114,-48.174 27.342,-66.402 C 233.058,9.178 255.192,0.064 281.232,0.064 h 312.48 c 26.04,0 48.174,9.114 66.402,27.342 18.228,18.228 27.342,40.362 27.342,66.402 v 31.248 H 781.2 c 24.738,0 46.221,8.463 64.449,25.389 18.228,16.926 27.993,37.758 29.295,62.496 v 68.355 c 0,16.926 -6.18433,31.57367 -18.553,43.943 -12.36867,12.36933 -27.01633,18.55367 -43.943,18.553 l -40,531.216 c -2.63959,35.05476 -12.04333,64.77467 -36.13,88.862 -24.08667,24.08733 -53.70733,36.1307 -88.862,36.13 H 227.488 c -35.154,0 -64.77467,-12.04333 -88.862,-36.13 -24.08733,-24.08667 -36.13067,-53.70733 -36.13,-88.862 l -40,-531.216 c -16.926,0 -31.573667,-6.18433 -43.943,-18.553 C 6.1836667,312.87033 -6.6666667e-4,298.22267 0,281.296 Z m 62.496,0 H 812.448 V 218.8 c 0,-9.114 -2.92967,-16.60067 -8.789,-22.46 -5.85933,-5.85933 -13.346,-8.789 -22.46,-8.789 H 93.743 c -9.114,0 -16.600667,2.92967 -22.46,8.789 -5.859333,5.85933 -8.789,13.346 -8.789,22.46 v 62.496 z m 102.496,593.712 c 1.27091,16.87822 6.18433,31.57367 18.553,43.943 12.36867,12.36933 27.01633,18.55367 43.943,18.553 h 419.968 c 16.926,0 31.57367,-6.18433 43.943,-18.553 12.36933,-12.36867 18.55367,-27.01633 18.553,-43.943 l 40,-531.216 h -624.96 z m 46.496,-31.248 -24,-406.224 c -0.53752,-9.09814 2.92967,-16.60067 8.789,-22.46 5.85933,-5.85933 13.346,-8.789 22.46,-8.789 h 62.496 c 9.114,0 16.60067,2.92967 22.46,8.789 5.85933,5.85933 8.51989,13.34997 8.789,22.46 l 12,406.224 c 0.26911,9.11003 -2.92967,16.60067 -8.789,22.46 -5.85933,5.85933 -13.346,8.789 -22.46,8.789 h -50.496 c -9.114,0 -16.60067,-2.92967 -22.46,-8.789 -5.85933,-5.85933 -8.25148,-13.36186 -8.789,-22.46 z m 31.248,0 h 50.496 l -12,-406.224 h -62.496 z m 7.248,-718.704 H 624.96 V 93.808 c 0,-9.114 -2.92967,-16.600667 -8.789,-22.46 -5.85933,-5.859333 -13.346,-8.789 -22.46,-8.789 h -312.48 c -9.114,0 -16.60067,2.929667 -22.46,8.789 -5.85933,5.859333 -8.789,13.346 -8.789,22.46 v 31.248 z m 130.992,718.704 -6,-406.224 c -0.1346,-9.11301 2.92967,-16.60067 8.789,-22.46 5.85933,-5.85933 13.346,-8.789 22.46,-8.789 h 62.496 c 9.114,0 16.60067,2.92967 22.46,8.789 5.85933,5.85933 8.9236,13.34699 8.789,22.46 l -6,406.224 c -0.1346,9.11301 -2.92967,16.60067 -8.789,22.46 -5.85933,5.85933 -13.346,8.789 -22.46,8.789 h -50.496 c -9.114,0 -16.60067,-2.92967 -22.46,-8.789 -5.85933,-5.85933 -8.6544,-13.34699 -8.789,-22.46 z m 31.248,0 h 50.496 l 6,-406.224 h -62.496 z m 138.24,0 12,-406.224 c 0.26911,-9.11003 2.92967,-16.60067 8.789,-22.46 5.85933,-5.85933 13.346,-8.789 22.46,-8.789 h 62.496 c 9.114,0 16.60067,2.92967 22.46,8.789 5.85933,5.85933 9.32652,13.36186 8.789,22.46 l -24,406.224 c -0.53752,9.09814 -2.92967,16.60067 -8.789,22.46 -5.85933,5.85933 -13.346,8.789 -22.46,8.789 h -50.496 c -9.114,0 -16.60067,-2.92967 -22.46,-8.789 -5.85933,-5.85933 -9.05811,-13.34997 -8.789,-22.46 z m 31.248,0 h 50.496 l 24,-406.224 h -62.496 z"
       id="path1"
       sodipodi:nodetypes="ccsscsssssscsscsscsscssccscccssssssccsscsscccsssssssssssssscccccccssssssccssssssssssssscccccsssssssssssssccccc"
       style="fill:#de1919;fill-opacity:1" />
  </g>
</svg>
